<?xml version="1.0" encoding="utf-8"?>
<COLLADA xmlns="http://www.collada.org/2005/11/COLLADASchema" version="1.4.1" xmlns:xsi="http://www.w3.org/2001/XMLSchema-instance">
  <asset>
    <contributor>
      <author>Blender User</author>
      <authoring_tool>Blender 4.0.0 commit date:2023-11-13, commit time:17:26, hash:878f71061b8e</authoring_tool>
    </contributor>
    <created>2024-11-29T21:12:10</created>
    <modified>2024-11-29T21:12:10</modified>
    <unit name="meter" meter="1"/>
    <up_axis>Z_UP</up_axis>
  </asset>
  <library_effects>
    <effect id="bug_switchboard-effect">
      <profile_COMMON>
        <newparam sid="switchboard_d_color_png-surface">
          <surface type="2D">
            <init_from>switchboard_d_color_png</init_from>
          </surface>
        </newparam>
        <newparam sid="switchboard_d_color_png-sampler">
          <sampler2D>
            <source>switchboard_d_color_png-surface</source>
          </sampler2D>
        </newparam>
        <technique sid="common">
          <lambert>
            <emission>
              <color sid="emission">0 0 0 1</color>
            </emission>
            <diffuse>
              <texture texture="switchboard_d_color_png-sampler" texcoord="UVMap"/>
            </diffuse>
            <reflectivity>
              <float sid="specular">1</float>
            </reflectivity>
            <index_of_refraction>
              <float sid="ior">1.45</float>
            </index_of_refraction>
          </lambert>
        </technique>
      </profile_COMMON>
    </effect>
  </library_effects>
  <library_images>
    <image id="switchboard_d_color_png" name="switchboard_d_color_png">
      <init_from>switchboard_d.color.png</init_from>
    </image>
  </library_images>
  <library_materials>
    <material id="bug_switchboard-material" name="bug_switchboard">
      <instance_effect url="#bug_switchboard-effect"/>
    </material>
  </library_materials>
  <library_geometries>
    <geometry id="Cube_007-mesh" name="Cube.007">
      <mesh>
        <source id="Cube_007-mesh-positions">
          <float_array id="Cube_007-mesh-positions-array" count="204">-0.07344299 -0.5450793 0.7813495 -0.07344323 -0.5451734 0.7794484 -0.07636862 -0.5458732 0.7809888 0.07350575 -0.5450793 0.7813495 0.07643139 -0.5458732 0.7809888 0.07350599 -0.5451734 0.7794484 -0.07636862 -0.5670097 0.827516 -0.07344323 -0.5677095 0.8290565 -0.07344299 -0.5662158 0.8278767 0.07350575 -0.5662158 0.8278767 0.07350599 -0.5677095 0.8290565 0.07643139 -0.5670097 0.827516 -0.07344436 -0.5480129 0.7781584 -0.07636976 -0.5487127 0.7796989 0.07350713 -0.5480129 0.7781584 0.07643252 -0.5487127 0.7796989 -0.07636976 -0.5698493 0.8262261 -0.07344436 -0.570549 0.8277665 0.07643252 -0.5698493 0.8262261 0.07350713 -0.570549 0.8277665 -0.07363027 -0.5944284 0.7592456 -0.07288616 -0.5942356 0.7588214 0.07294893 -0.5942356 0.7588214 0.07369309 -0.5944284 0.7592456 -0.07288616 -0.6155207 0.8056756 -0.07363027 -0.615328 0.8052513 0.07369309 -0.615328 0.8052513 0.07294893 -0.6155207 0.8056756 -0.07638728 -0.5943099 0.7589849 -0.07346194 -0.5936101 0.7574445 0.07352471 -0.5936101 0.7574445 0.07645004 -0.5943099 0.7589849 -0.07346194 -0.6161462 0.8070525 -0.07638728 -0.6154465 0.8055121 0.07645004 -0.6154465 0.8055121 0.07352471 -0.6161462 0.8070525 -0.07363027 -0.591374 0.7606332 -0.07288616 -0.5911812 0.7602089 0.07294893 -0.5911812 0.7602089 0.07369309 -0.591374 0.7606332 -0.07288616 -0.6124663 0.8070631 -0.07363027 -0.6122736 0.8066388 0.07369309 -0.6122736 0.8066388 0.07294893 -0.6124663 0.8070631 0.05527019 -0.5936101 0.7574445 0.055256 -0.5450793 0.7813495 0.05525618 -0.5677095 0.8290565 0.05525696 -0.5480129 0.7781584 0.05483746 -0.5942356 0.7588214 0.05483746 -0.5911812 0.7602089 0.05525618 -0.5451734 0.7794484 0.05527019 -0.6161462 0.8070525 0.055256 -0.5662158 0.8278767 0.05525696 -0.570549 0.8277665 0.05483746 -0.6155207 0.8056756 0.05483746 -0.6124663 0.8070631 -0.05519342 -0.5451734 0.7794484 -0.05520743 -0.6161462 0.8070525 -0.05519324 -0.5662158 0.8278767 -0.05519419 -0.570549 0.8277665 -0.0547747 -0.6155207 0.8056756 -0.0547747 -0.6124663 0.8070631 -0.05520743 -0.5936101 0.7574445 -0.05519324 -0.5450793 0.7813495 -0.05519342 -0.5677095 0.8290565 -0.05519419 -0.5480129 0.7781584 -0.0547747 -0.5942356 0.7588214 -0.0547747 -0.5911812 0.7602089</float_array>
          <technique_common>
            <accessor source="#Cube_007-mesh-positions-array" count="68" stride="3">
              <param name="X" type="float"/>
              <param name="Y" type="float"/>
              <param name="Z" type="float"/>
            </accessor>
          </technique_common>
        </source>
        <source id="Cube_007-mesh-normals">
          <float_array id="Cube_007-mesh-normals-array" count="348">0.9861645 0.06887859 -0.1507825 -0.1029214 0.4114918 -0.9055837 -0.1029081 0.4114813 -0.9055899 0.1029556 -0.4113264 0.9056549 -0.8951902 0.2000012 0.3982889 -0.9861805 -0.06795239 0.151098 -0.1472721 -0.8005775 -0.5808499 -1.43199e-5 -0.9104606 -0.4135961 -2.78483e-5 -0.910456 -0.4136061 0.8941012 0.4256781 -0.1392169 0.08376479 0.6741554 -0.7338242 0.005126416 0.9507734 0.3098447 -0.005142331 0.8588426 0.5122138 -0.04650968 -0.07666677 0.9959715 0.2249514 0.8058555 -0.547717 -0.01084071 0.9488376 0.3155785 0.1721184 0.9657589 0.1941264 0.04651606 -0.07667064 0.9959709 0.8909673 0.2533022 0.3768494 0.0139113 0.8633602 0.5043963 -3.17092e-6 -0.1056379 0.9944047 0.1318723 0.8439931 0.51989 -0.102949 0.4114987 -0.9055774 0.986163 -0.06837743 0.1510202 -0.1029184 -0.4115665 0.90555 0.98618 -0.06820935 0.1509855 -0.322871 0.3914589 -0.8616927 -0.2249556 0.8057907 -0.5478106 -0.9861629 -0.06825184 0.1510778 0.1029186 -0.4113222 0.905661 0.1029086 -0.4113364 0.9056558 0.1028972 0.4111947 -0.9057213 -0.8942841 0.426101 -0.1367262 -0.08375722 0.6741471 -0.7338328 -0.3228709 0.3914529 -0.8616955 0.1029088 0.4114946 -0.9055839 0.3227802 0.3914657 -0.8617236 -0.9861645 0.06890451 -0.1507713 0.1029217 0.4114789 -0.9055896 -0.9861767 0.06884562 -0.1507177 0.3228711 -0.3914566 0.8616937 -9.11226e-5 0.3409712 0.9400738 3.45879e-5 -0.984321 -0.1763864 1.43196e-5 -0.9104493 -0.4136207 -0.2436836 -0.8977931 -0.3668598 -0.1029546 -0.4116751 0.9054965 0.2106572 -0.8293889 -0.5174338 0 -0.9104578 -0.413602 0.182008 -0.9511291 -0.2494524 0.3228709 -0.3914527 0.8616955 -0.102908 -0.4113225 0.9056621 -0.3227802 -0.3914658 0.8617237 0.2838519 -0.3965852 0.8730111 0.8481651 -0.2190976 0.482299 0.9911428 -0.05491662 0.1209146 -0.09247422 -0.9768742 -0.1927832 0 -0.9104583 -0.4136009 -1.8517e-5 -0.9104558 -0.4136067 0.1997553 -0.4052804 0.8921017 -0.9911383 -0.05493056 0.1209439 -0.2838983 -0.3965845 0.8729963 0.8724463 0.3355565 -0.3553018 0.2838624 0.3965909 -0.8730052 -0.1997409 0.4052804 -0.892105 -0.9666792 0.2277024 -0.1169747 0.117649 0.2385489 -0.9639778 -0.8724319 0.04685509 -0.4864844 0 -0.9104646 -0.4135873 -0.2465204 -0.8823679 -0.4008175 0 -0.910463 -0.4135904 0.2465198 -0.8823654 -0.4008233 0.9861767 0.06843054 -0.1509065 0.9861806 -0.06820511 0.1509831 0.9861804 0.06830388 -0.1509401 2.78482e-5 -0.9104559 -0.4136062 0.1510457 -0.8017624 -0.5782408 0.1472625 -0.8005892 -0.5808363 -0.1301594 -0.7957665 -0.5914509 -0.00920403 -0.4135842 0.9104194 0.00920403 -0.4135843 0.9104193 0.00920403 0.4135842 -0.9104194 0.08209133 0.591082 -0.8024232 1.8517e-5 -0.9104559 -0.4136064 -0.8481752 -0.2190952 0.4822822 0.08209133 0.5910816 -0.8024235 -0.00920403 -0.4135842 0.9104194 0.00920403 -0.4135836 0.9104197 -0.1301568 -0.7957648 -0.591454 0.2465199 -0.8823582 -0.4008393 0.2465192 -0.882357 -0.4008421 0 -0.9104466 -0.4136267 0 -0.9104521 -0.4136145 0.3228709 -0.3914529 0.8616955 -0.3227802 -0.3914653 0.8617238 0.9666933 -0.06171309 -0.248386 -0.3228709 0.3914529 -0.8616955 0.3227802 0.3914659 -0.8617235 -0.3228713 0.3914535 -0.8616951 0.1318888 0.844002 0.5198712 0.009772658 0.9998326 0.01547104 -0.2465098 -0.8823698 -0.4008198 -0.2414155 -0.9029724 -0.3554707 -0.2011096 0.563908 -0.8009761 0.3228706 -0.3914472 0.8616982 0.2465212 -0.8823614 -0.4008314 -0.1997683 -0.4052734 0.8921021 -0.98618 -0.06832367 0.1509339 -0.9861798 0.068843 -0.1506991 0.2465173 -0.8823647 -0.4008264 -0.2436895 -0.8669129 -0.4348307 0.00920403 0.4135843 -0.9104193 0.2465224 -0.8823429 -0.4008712 -0.246518 -0.8823478 -0.4008632 0.2436695 -0.8978077 -0.3668333 -2.83801e-6 -0.9843192 -0.176397 -0.1656518 -0.8068562 -0.5670472</float_array>
          <technique_common>
            <accessor source="#Cube_007-mesh-normals-array" count="116" stride="3">
              <param name="X" type="float"/>
              <param name="Y" type="float"/>
              <param name="Z" type="float"/>
            </accessor>
          </technique_common>
        </source>
        <source id="Cube_007-mesh-map-0">
          <float_array id="Cube_007-mesh-map-0-array" count="792">0.4165371 0.2650283 0.405 0.5134769 0.4049689 0.2650287 0.8664308 0.01823157 0.8403856 0.02332723 0.8508102 0.005057692 0.6672146 0.4698566 0.6559228 0.4712429 0.6655545 0.4610279 0.6552987 0.4345083 0.6472268 0.4262672 0.6564449 0.4254612 0.839388 0.03320866 0.8403856 0.02332723 0.8495594 0.03210264 0.6442076 0.1017826 0.6534516 0.03739207 0.6539505 0.1020703 0.8482808 0.426363 0.8397483 0.4351959 0.8386145 0.425544 0.839388 0.03320866 0.8493463 0.09781271 0.839259 0.09859788 0.6552987 0.4345083 0.6313892 0.4383663 0.6472268 0.4262672 0.6042916 0.2650048 0.6158912 0.5134504 0.604323 0.513453 0.6472268 0.4262672 0.6304723 0.3693801 0.6466229 0.3613703 0.2043547 0.2534175 0.215892 0.004969358 0.215923 0.2534175 0.6258878 0.02444905 0.6518957 0.02790212 0.6436038 0.03688561 0.8403856 0.02332723 0.6534516 0.03739207 0.6518957 0.02790212 0.0716679 0.5134548 0.005065858 0.2650022 0.07171636 0.2650066 0.01660025 0.2534408 0.00500065 0.004995882 0.01656919 0.004992604 0.8664306 0.3696106 0.8482808 0.426363 0.8484939 0.3606529 0.667559 0.8957133 0.6559228 0.8946852 0.6643769 0.8925506 0.8664306 0.4398865 0.8397483 0.4351959 0.8482808 0.426363 0.6518957 0.02790212 0.8508102 0.005057692 0.8403856 0.02332723 0.6564449 0.4254612 0.8397483 0.4351959 0.6552987 0.4345083 0.6534516 0.03739207 0.839259 0.09859788 0.6539505 0.1020703 0.01656919 0.004992604 0.2043547 0.2534175 0.01660025 0.2534408 0.8805213 0.4721819 0.8921576 0.4732101 0.8837032 0.4753447 0.5492239 0.004991471 0.6158259 0.2534441 0.5491754 0.2534396 0.6643769 0.8925506 0.6819407 0.8786676 0.667559 0.8957133 0.8808661 0.8980386 0.8921579 0.8966525 0.8825256 0.9068673 0.6640124 0.4732376 0.6833649 0.4856284 0.6810634 0.4879026 0.8808661 0.8980386 0.8670167 0.8799925 0.8840675 0.8946576 0.8805213 0.4721819 0.8683943 0.4915168 0.8661392 0.4892279 0.6643769 0.8925506 0.6559228 0.8241114 0.6643161 0.8226651 0.8837032 0.4753447 0.8921576 0.5437838 0.8837639 0.5452302 0.4165685 0.5134772 0.6042916 0.2650048 0.604323 0.513453 0.6552987 0.4345083 0.8506366 0.4532926 0.6453459 0.4503453 0.8808661 0.8980386 0.6660279 0.9042511 0.667559 0.8957133 0.8647155 0.8822667 0.6819407 0.8786676 0.8672463 0.8152466 0.6640124 0.4732376 0.6808337 0.5526486 0.6640732 0.5431231 0.6436038 0.03688561 0.6518957 0.02790212 0.6534516 0.03739207 0.8840675 0.8946576 0.8672463 0.8152466 0.8840067 0.8247721 0.8805213 0.4721819 0.6655545 0.4610279 0.8820528 0.4636442 0.6672146 0.4698566 0.8661392 0.4892279 0.6833649 0.4856284 0.8672463 0.8152466 0.8837639 0.5452302 0.8840067 0.8247721 0.6640732 0.5431231 0.6799153 0.8116324 0.6643161 0.8226651 0.8681647 0.5562628 0.6799153 0.8116324 0.6808337 0.5526486 0.8921578 0.8260787 0.8837639 0.5452302 0.8921576 0.5437838 0.6559228 0.5418166 0.6643161 0.8226651 0.6559228 0.8241114 0.2825584 0.004973769 0.5491754 0.2534396 0.2825735 0.2534219 0.667559 0.8957133 0.8647155 0.8822667 0.8808661 0.8980386 0.8493463 0.09781271 0.8664306 0.3696106 0.8484939 0.3606529 0.3383336 0.5134724 0.07171636 0.2650066 0.3383184 0.2650243 0.6268047 0.09343528 0.6466229 0.3613703 0.6304723 0.3693801 0.839259 0.09859788 0.8484939 0.3606529 0.8387433 0.3601548 0.6564449 0.4254612 0.6466229 0.3613703 0.655946 0.360783 0.8386145 0.425544 0.8484939 0.3606529 0.8482808 0.426363 0.4049689 0.2650287 0.3383336 0.5134724 0.3383184 0.2650243 0.8387433 0.3601548 0.6539505 0.1020703 0.839259 0.09859788 0.6640124 0.4732376 0.6559228 0.5418166 0.6559228 0.4712429 0.6808337 0.5526486 0.8661392 0.4892279 0.8681647 0.5562628 0.8837639 0.5452302 0.8683943 0.4915168 0.8837032 0.4753447 0.6436038 0.03688561 0.6268047 0.09343528 0.6258878 0.02444905 0.8495594 0.03210264 0.8664307 0.08850735 0.8493463 0.09781271 0.215923 0.2534175 0.2825584 0.004973769 0.2825735 0.2534219 0.8840675 0.8946576 0.8921578 0.8260787 0.8921579 0.8966525 0.6643161 0.8226651 0.6796857 0.8763784 0.6643769 0.8925506 0.6539505 0.1020703 0.6466229 0.3613703 0.6442076 0.1017826 0.655946 0.360783 0.8386145 0.425544 0.6564449 0.4254612 0.4165371 0.2650283 0.4165685 0.5134772 0.405 0.5134769 0.8664308 0.01823157 0.8495594 0.03210264 0.8403856 0.02332723 0.6672146 0.4698566 0.6640124 0.4732376 0.6559228 0.4712429 0.6442076 0.1017826 0.6436038 0.03688561 0.6534516 0.03739207 0.839388 0.03320866 0.8495594 0.03210264 0.8493463 0.09781271 0.6552987 0.4345083 0.6453459 0.4503453 0.6313892 0.4383663 0.6042916 0.2650048 0.6158598 0.2650018 0.6158912 0.5134504 0.6472268 0.4262672 0.6313892 0.4383663 0.6304723 0.3693801 0.2043547 0.2534175 0.2043233 0.004969358 0.215892 0.004969358 0.6258878 0.02444905 0.6408331 0.0114088 0.6518957 0.02790212 0.8403856 0.02332723 0.839388 0.03320866 0.6534516 0.03739207 0.0716679 0.5134548 0.005001485 0.5134504 0.005065858 0.2650022 0.01660025 0.2534408 0.005031943 0.253444 0.00500065 0.004995882 0.8664306 0.3696106 0.8664306 0.4398865 0.8482808 0.426363 0.667559 0.8957133 0.6660279 0.9042511 0.6559228 0.8946852 0.8664306 0.4398865 0.8506366 0.4532926 0.8397483 0.4351959 0.6518957 0.02790212 0.6408331 0.0114088 0.8508102 0.005057692 0.6564449 0.4254612 0.8386145 0.425544 0.8397483 0.4351959 0.6534516 0.03739207 0.839388 0.03320866 0.839259 0.09859788 0.01656919 0.004992604 0.2043233 0.004969358 0.2043547 0.2534175 0.8805213 0.4721819 0.8820528 0.4636442 0.8921576 0.4732101 0.5492239 0.004991471 0.6158903 0.004995882 0.6158259 0.2534441 0.6643769 0.8925506 0.6796857 0.8763784 0.6819407 0.8786676 0.8808661 0.8980386 0.8840675 0.8946576 0.8921579 0.8966525 0.6640124 0.4732376 0.6672146 0.4698566 0.6833649 0.4856284 0.8808661 0.8980386 0.8647155 0.8822667 0.8670167 0.8799925 0.8805213 0.4721819 0.8837032 0.4753447 0.8683943 0.4915168 0.6643769 0.8925506 0.6559228 0.8946852 0.6559228 0.8241114 0.8837032 0.4753447 0.8921576 0.4732101 0.8921576 0.5437838 0.4165685 0.5134772 0.4165371 0.2650283 0.6042916 0.2650048 0.6552987 0.4345083 0.8397483 0.4351959 0.8506366 0.4532926 0.8808661 0.8980386 0.8825256 0.9068673 0.6660279 0.9042511 0.6796857 0.8763784 0.6799153 0.8116324 0.6819407 0.8786676 0.6799153 0.8116324 0.8672463 0.8152466 0.6819407 0.8786676 0.8672463 0.8152466 0.8670167 0.8799925 0.8647155 0.8822667 0.6640124 0.4732376 0.6810634 0.4879026 0.6808337 0.5526486 0.8840675 0.8946576 0.8670167 0.8799925 0.8672463 0.8152466 0.8805213 0.4721819 0.6672146 0.4698566 0.6655545 0.4610279 0.6672146 0.4698566 0.8805213 0.4721819 0.8661392 0.4892279 0.8672463 0.8152466 0.8681647 0.5562628 0.8837639 0.5452302 0.6640732 0.5431231 0.6808337 0.5526486 0.6799153 0.8116324 0.8681647 0.5562628 0.8672463 0.8152466 0.6799153 0.8116324 0.8921578 0.8260787 0.8840067 0.8247721 0.8837639 0.5452302 0.6559228 0.5418166 0.6640732 0.5431231 0.6643161 0.8226651 0.2825584 0.004973769 0.5492239 0.004991471 0.5491754 0.2534396 0.667559 0.8957133 0.6819407 0.8786676 0.8647155 0.8822667 0.8493463 0.09781271 0.8664307 0.08850735 0.8664306 0.3696106 0.3383336 0.5134724 0.0716679 0.5134548 0.07171636 0.2650066 0.6268047 0.09343528 0.6442076 0.1017826 0.6466229 0.3613703 0.839259 0.09859788 0.8493463 0.09781271 0.8484939 0.3606529 0.6564449 0.4254612 0.6472268 0.4262672 0.6466229 0.3613703 0.8386145 0.425544 0.8387433 0.3601548 0.8484939 0.3606529 0.4049689 0.2650287 0.405 0.5134769 0.3383336 0.5134724 0.8387433 0.3601548 0.655946 0.360783 0.6539505 0.1020703 0.6640124 0.4732376 0.6640732 0.5431231 0.6559228 0.5418166 0.6808337 0.5526486 0.6810634 0.4879026 0.6833649 0.4856284 0.6833649 0.4856284 0.8661392 0.4892279 0.6808337 0.5526486 0.8661392 0.4892279 0.8683943 0.4915168 0.8681647 0.5562628 0.8837639 0.5452302 0.8681647 0.5562628 0.8683943 0.4915168 0.6436038 0.03688561 0.6442076 0.1017826 0.6268047 0.09343528 0.8495594 0.03210264 0.8664308 0.01823157 0.8664307 0.08850735 0.215923 0.2534175 0.215892 0.004969358 0.2825584 0.004973769 0.8840675 0.8946576 0.8840067 0.8247721 0.8921578 0.8260787 0.6643161 0.8226651 0.6799153 0.8116324 0.6796857 0.8763784 0.6539505 0.1020703 0.655946 0.360783 0.6466229 0.3613703 0.655946 0.360783 0.8387433 0.3601548 0.8386145 0.425544</float_array>
          <technique_common>
            <accessor source="#Cube_007-mesh-map-0-array" count="396" stride="2">
              <param name="S" type="float"/>
              <param name="T" type="float"/>
            </accessor>
          </technique_common>
        </source>
        <vertices id="Cube_007-mesh-vertices">
          <input semantic="POSITION" source="#Cube_007-mesh-positions"/>
        </vertices>
        <triangles material="bug_switchboard-material" count="132">
          <input semantic="VERTEX" source="#Cube_007-mesh-vertices" offset="0"/>
          <input semantic="NORMAL" source="#Cube_007-mesh-normals" offset="1"/>
          <input semantic="TEXCOORD" source="#Cube_007-mesh-map-0" offset="2" set="0"/>
          <p>15 0 0 30 1 1 14 2 2 17 3 3 6 4 4 16 5 5 23 6 6 30 7 7 31 8 8 4 9 9 5 10 10 3 11 11 8 12 12 6 4 13 7 13 14 56 14 15 0 15 16 63 16 17 10 17 18 11 18 19 9 19 20 8 12 21 64 20 22 58 21 23 4 9 24 14 22 25 5 10 26 18 23 27 35 24 28 34 25 29 5 10 30 47 26 31 50 27 32 16 28 33 32 29 34 17 30 35 12 31 36 2 32 37 1 33 38 6 4 39 0 15 40 2 32 41 62 34 42 12 35 43 65 36 44 13 37 45 29 38 46 28 39 47 53 40 48 10 17 49 46 41 50 20 42 51 29 43 52 21 44 53 19 45 54 11 18 55 10 17 56 2 32 57 16 5 58 6 4 59 3 11 60 11 18 61 4 9 62 0 15 63 58 21 64 63 16 65 28 39 66 16 28 67 13 37 68 26 46 69 35 47 70 27 48 71 51 49 72 19 50 73 53 51 74 21 52 75 36 53 76 20 54 77 25 55 78 32 56 79 33 57 80 22 58 81 39 59 82 38 60 83 25 61 84 40 62 85 24 63 86 26 64 87 43 65 88 42 66 89 21 44 90 62 67 91 66 68 92 27 48 93 51 69 94 54 70 95 31 71 96 18 23 97 34 25 98 4 9 99 18 72 100 15 73 101 25 55 102 28 74 103 20 42 104 41 75 105 36 76 106 61 77 107 22 58 108 49 78 109 48 79 110 1 33 111 2 32 112 0 15 113 24 63 114 61 80 115 60 81 116 26 46 117 31 8 118 34 82 119 23 83 120 42 66 121 39 59 122 61 80 123 54 84 124 60 81 125 48 79 126 67 85 127 66 86 128 55 87 129 67 88 130 49 89 131 57 90 132 54 70 133 51 69 134 44 91 135 66 68 136 62 67 137 57 92 138 53 51 139 59 93 140 20 54 141 41 94 142 25 61 143 64 20 144 53 40 145 46 41 146 44 95 147 65 36 148 47 96 149 65 97 150 50 27 151 47 26 152 58 21 153 46 41 154 52 98 155 3 11 156 50 27 157 45 99 158 9 19 159 46 41 160 10 17 161 14 2 162 44 95 163 47 96 164 52 98 165 63 16 166 58 21 167 22 100 168 44 91 169 30 7 170 49 89 171 42 101 172 55 87 173 54 84 174 43 65 175 27 102 176 1 33 177 65 97 178 12 31 179 7 13 180 59 103 181 64 20 182 17 30 183 57 92 184 59 93 185 24 104 186 57 90 187 32 56 188 66 86 189 37 105 190 21 52 191 63 16 192 50 27 193 56 14 194 45 99 195 9 19 196 3 11 197 15 0 198 31 71 199 30 1 200 17 3 201 7 13 202 6 4 203 23 6 204 22 100 205 30 7 206 56 14 207 1 33 208 0 15 209 8 12 210 7 13 211 64 20 212 4 9 213 15 73 214 14 22 215 18 23 216 19 50 217 35 24 218 5 10 219 14 22 220 47 26 221 16 28 222 33 106 223 32 29 224 12 31 225 13 107 226 2 32 227 6 4 228 8 12 229 0 15 230 62 34 231 29 38 232 12 35 233 13 37 234 12 35 235 29 38 236 53 40 237 19 45 238 10 17 239 20 42 240 28 74 241 29 43 242 19 45 243 18 72 244 11 18 245 2 32 246 13 107 247 16 5 248 3 11 249 9 19 250 11 18 251 0 15 252 8 12 253 58 21 254 28 39 255 33 106 256 16 28 257 26 46 258 34 82 259 35 47 260 51 49 261 35 24 262 19 50 263 21 52 264 37 105 265 36 53 266 25 55 267 24 104 268 32 56 269 22 58 270 23 83 271 39 59 272 25 61 273 41 94 274 40 62 275 26 64 276 27 102 277 43 65 278 21 44 279 29 43 280 62 67 281 27 48 282 35 47 283 51 69 284 31 71 285 15 0 286 18 23 287 4 9 288 11 18 289 18 72 290 25 55 291 33 57 292 28 74 293 37 108 294 67 88 295 36 76 296 67 88 297 61 77 298 36 76 299 61 77 300 40 109 301 41 75 302 22 58 303 38 60 304 49 78 305 24 63 306 40 62 307 61 80 308 26 46 309 23 6 310 31 8 311 23 83 312 26 64 313 42 66 314 61 80 315 55 110 316 54 84 317 48 79 318 49 78 319 67 85 320 55 87 321 61 77 322 67 88 323 57 90 324 60 111 325 54 70 326 44 91 327 48 112 328 66 68 329 57 92 330 51 49 331 53 51 332 20 54 333 36 53 334 41 94 335 64 20 336 59 103 337 53 40 338 44 95 339 62 34 340 65 36 341 65 97 342 56 14 343 50 27 344 58 21 345 64 20 346 46 41 347 3 11 348 5 10 349 50 27 350 9 19 351 52 98 352 46 41 353 14 2 354 30 1 355 44 95 356 52 98 357 45 99 358 63 16 359 22 100 360 48 112 361 44 91 362 49 89 363 38 113 364 39 114 365 39 114 366 42 101 367 49 89 368 42 101 369 43 115 370 55 87 371 54 84 372 55 110 373 43 65 374 1 33 375 56 14 376 65 97 377 7 13 378 17 3 379 59 103 380 17 30 381 32 29 382 57 92 383 24 104 384 60 111 385 57 90 386 66 86 387 67 85 388 37 105 389 63 16 390 45 99 391 50 27 392 45 99 393 52 98 394 9 19 395</p>
        </triangles>
      </mesh>
    </geometry>
    <geometry id="Cube_014-mesh" name="Cube.014">
      <mesh>
        <source id="Cube_014-mesh-positions">
          <float_array id="Cube_014-mesh-positions-array" count="132">-0.04028731 -0.550562 0.7934185 -0.04028749 -0.5506561 0.7915174 -0.04189223 -0.551356 0.7930578 0.04032272 -0.550562 0.7934185 0.04192763 -0.551356 0.7930578 0.04032289 -0.5506561 0.7915174 -0.04189223 -0.5670097 0.827516 -0.04028749 -0.5677095 0.8290565 -0.04028731 -0.5662158 0.8278767 0.04032272 -0.5662158 0.8278767 0.04032289 -0.5677095 0.8290565 0.04192763 -0.5670097 0.827516 -0.04028809 -0.5534957 0.7902274 -0.04189282 -0.5541955 0.7917678 0.04032349 -0.5534957 0.7902274 0.04192823 -0.5541955 0.7917678 -0.04189282 -0.5698493 0.8262261 -0.04028809 -0.570549 0.8277665 0.04192823 -0.5698493 0.8262261 0.04032349 -0.570549 0.8277665 -0.04039007 -0.5999111 0.7713146 -0.0399819 -0.5997183 0.7708904 0.0400173 -0.5997183 0.7708904 0.04042547 -0.5999111 0.7713146 -0.0399819 -0.6155207 0.8056756 -0.04039007 -0.615328 0.8052513 0.04042547 -0.615328 0.8052513 0.0400173 -0.6155207 0.8056756 -0.04190248 -0.5997927 0.7710539 -0.04029768 -0.5990929 0.7695134 0.04033315 -0.5990929 0.7695134 0.04193788 -0.5997927 0.7710539 -0.04029768 -0.6161462 0.8070525 -0.04190248 -0.6154465 0.8055121 0.04193788 -0.6154465 0.8055121 0.04033315 -0.6161462 0.8070525 -0.04039007 -0.5968567 0.7727022 -0.0399819 -0.596664 0.7722779 0.0400173 -0.596664 0.7722779 0.04042547 -0.5968567 0.7727022 -0.0399819 -0.6124663 0.8070631 -0.04039007 -0.6122736 0.8066388 0.04042547 -0.6122736 0.8066388 0.0400173 -0.6124663 0.8070631</float_array>
          <technique_common>
            <accessor source="#Cube_014-mesh-positions-array" count="44" stride="3">
              <param name="X" type="float"/>
              <param name="Y" type="float"/>
              <param name="Z" type="float"/>
            </accessor>
          </technique_common>
        </source>
        <source id="Cube_014-mesh-normals">
          <float_array id="Cube_014-mesh-normals-array" count="228">0.9991757 0.01696449 -0.03688132 0.02058023 0.4135927 -0.9102294 0.02058625 0.4138066 -0.9101322 -0.02055847 -0.4134418 0.9102984 -0.9410283 0.1993426 0.2733648 -0.9991785 -0.0166428 0.03695034 -0.2465351 -0.882377 -0.4007885 -3.16971e-5 -0.9104666 -0.4135828 -0.09016782 -0.7874585 -0.6097368 0.9410323 0.3370112 -0.02969563 0.1820683 0.6637976 -0.725413 0.1032571 0.9417516 0.3200657 -0.1032539 0.8606209 0.4986684 -0.1820203 -0.1096308 0.9771641 -0.1032984 0.9417384 0.3200912 -0.9410308 0.3370166 -0.02968007 0.1820265 -0.109656 0.9771602 0.9410279 0.1993376 0.2733699 0.1032473 0.8606229 0.4986667 0.02055543 0.4135947 -0.9102291 0.9991762 -0.01665753 0.037009 0.02057552 -0.4134592 0.9102901 0.9991779 -0.01659172 0.03698998 -0.02055913 0.4132528 -0.9103842 -0.1820634 0.6638048 -0.7254076 -0.9991761 -0.01661062 0.03703033 -0.02058619 -0.4134408 0.9102983 -0.02058714 -0.4132956 0.9103643 -0.02059429 0.4135909 -0.9102299 -0.9991757 0.01691776 -0.03690254 -0.02056926 0.4133973 -0.9103184 -0.9991771 0.01695156 -0.03684931 -0.225897 -0.9231767 -0.3109909 3.16972e-5 -0.9104662 -0.4135835 1.62804e-5 -0.9104421 -0.4136365 0.02054727 -0.4137181 0.9101732 0.9991771 0.01690459 -0.03687071 0.9991785 -0.01658427 0.03697717 0.9991777 0.01690095 -0.03685832 0.2100223 -0.9357251 -0.2833892 2.08425e-6 -0.9104534 -0.413612 0 -0.9104556 -0.4136068 0.02059501 -0.413441 0.910298 0.4198508 -0.3753778 0.8263273 0.9145271 -0.1673134 0.3683022 0.9991115 0.01744824 -0.0383625 0.2465184 -0.882355 -0.400847 -2.08426e-6 -0.9104533 -0.4136121 -0.1347562 -0.9677425 -0.2128741 0.02131259 -0.4135216 0.9102449 -0.9991122 0.01743805 -0.0383507 -0.4198131 -0.3753905 0.8263407 0.9289579 0.29144 -0.2282537 0.4198237 0.3753834 -0.8263385 -0.02133774 0.4135231 -0.9102436 -0.9846968 0.169688 0.03973042 -0.05389368 0.2526738 -0.9660495 -0.9289435 -0.01983237 -0.3696902 -1.62804e-5 -0.9104576 -0.4136024 0 -0.9104498 -0.4136198 2.32464e-5 -0.9843225 -0.1763783 0.2008784 -0.8232587 -0.5309359 0.1680178 -0.8077332 -0.5650991 0.09015244 -0.7874587 -0.6097388 0.2465111 -0.8823593 -0.4008423 -0.9145261 -0.1673099 0.3683063 -0.02132904 -0.4135246 0.9102431 -0.3446252 0.5361899 -0.7705414 0.9846907 -0.1415917 -0.1016666 -0.9991772 0.01695287 -0.0368455 -0.999178 -0.01673752 0.03692394 0.2259025 -0.9231756 -0.3109903 -0.1821219 -0.8136338 -0.5521157 0 -0.98432 -0.1763922 -0.2223454 -0.9264058 -0.3038667 -0.2258884 -0.8415382 -0.4907016</float_array>
          <technique_common>
            <accessor source="#Cube_014-mesh-normals-array" count="76" stride="3">
              <param name="X" type="float"/>
              <param name="Y" type="float"/>
              <param name="Z" type="float"/>
            </accessor>
          </technique_common>
        </source>
        <source id="Cube_014-mesh-map-0">
          <float_array id="Cube_014-mesh-map-0-array" count="504">0.4165371 0.2650283 0.405 0.5134769 0.4049689 0.2650287 0.8664308 0.01823157 0.8403856 0.02332723 0.8508102 0.005057692 0.6640124 0.4732376 0.6655545 0.4610279 0.6672146 0.4698566 0.6552987 0.4345083 0.6472268 0.4262672 0.6564449 0.4254612 0.839388 0.03320866 0.8403856 0.02332723 0.8495594 0.03210264 0.6472268 0.4262672 0.6534516 0.03739207 0.6564449 0.4254612 0.8403856 0.02332723 0.6534516 0.03739207 0.6518957 0.02790212 0.8482808 0.426363 0.8397483 0.4351959 0.8386145 0.425544 0.839388 0.03320866 0.8482808 0.426363 0.8386145 0.425544 0.6552987 0.4345083 0.6313892 0.4383663 0.6472268 0.4262672 0.6042916 0.2650048 0.6158912 0.5134504 0.604323 0.513453 0.6472268 0.4262672 0.6258878 0.02444905 0.6436038 0.03688561 0.6518957 0.02790212 0.8508102 0.005057692 0.8403856 0.02332723 0.2043547 0.2534175 0.215892 0.004969358 0.215923 0.2534175 0.6258878 0.02444905 0.6518957 0.02790212 0.6436038 0.03688561 0.6564449 0.4254612 0.8397483 0.4351959 0.6552987 0.4345083 0.405 0.5134769 0.005065858 0.2650022 0.4049689 0.2650287 0.01660025 0.2534408 0.00500065 0.004995882 0.01656919 0.004992604 0.8664308 0.01823157 0.8482808 0.426363 0.8495594 0.03210264 0.6643769 0.8925506 0.6660279 0.9042511 0.6559228 0.8946852 0.8664306 0.4398865 0.8397483 0.4351959 0.8482808 0.426363 0.6534516 0.03739207 0.8386145 0.425544 0.6564449 0.4254612 0.01656919 0.004992604 0.2043547 0.2534175 0.01660025 0.2534408 0.4165685 0.5134772 0.6042916 0.2650048 0.604323 0.513453 0.6552987 0.4345083 0.8506366 0.4532926 0.6453459 0.4503453 0.8837032 0.4753447 0.8820528 0.4636442 0.8921576 0.4732101 0.215892 0.004969358 0.6158259 0.2534441 0.215923 0.2534175 0.6643769 0.8925506 0.6819407 0.8786676 0.667559 0.8957133 0.8840675 0.8946576 0.8825256 0.9068673 0.8808661 0.8980386 0.6640124 0.4732376 0.6833649 0.4856284 0.6810634 0.4879026 0.8808661 0.8980386 0.8670167 0.8799925 0.8840675 0.8946576 0.8805213 0.4721819 0.8683943 0.4915168 0.8661392 0.4892279 0.6643769 0.8925506 0.6559228 0.4712429 0.6640124 0.4732376 0.8837032 0.4753447 0.8921579 0.8966525 0.8840675 0.8946576 0.8808661 0.8980386 0.6660279 0.9042511 0.667559 0.8957133 0.8805213 0.4721819 0.6655545 0.4610279 0.8820528 0.4636442 0.8647155 0.8822667 0.6819407 0.8786676 0.6796857 0.8763784 0.6672146 0.4698566 0.8661392 0.4892279 0.6833649 0.4856284 0.6640124 0.4732376 0.6796857 0.8763784 0.6643769 0.8925506 0.6436038 0.03688561 0.6518957 0.02790212 0.6534516 0.03739207 0.8840675 0.8946576 0.8683943 0.4915168 0.8837032 0.4753447 0.667559 0.8957133 0.8647155 0.8822667 0.8808661 0.8980386 0.4165371 0.2650283 0.4165685 0.5134772 0.405 0.5134769 0.8664308 0.01823157 0.8495594 0.03210264 0.8403856 0.02332723 0.6640124 0.4732376 0.6559228 0.4712429 0.6655545 0.4610279 0.6472268 0.4262672 0.6436038 0.03688561 0.6534516 0.03739207 0.8403856 0.02332723 0.839388 0.03320866 0.6534516 0.03739207 0.839388 0.03320866 0.8495594 0.03210264 0.8482808 0.426363 0.6552987 0.4345083 0.6453459 0.4503453 0.6313892 0.4383663 0.6042916 0.2650048 0.6158598 0.2650018 0.6158912 0.5134504 0.6472268 0.4262672 0.6313892 0.4383663 0.6258878 0.02444905 0.6518957 0.02790212 0.6408331 0.0114088 0.8508102 0.005057692 0.2043547 0.2534175 0.2043233 0.004969358 0.215892 0.004969358 0.6258878 0.02444905 0.6408331 0.0114088 0.6518957 0.02790212 0.6564449 0.4254612 0.8386145 0.425544 0.8397483 0.4351959 0.405 0.5134769 0.005001485 0.5134504 0.005065858 0.2650022 0.01660025 0.2534408 0.005031943 0.253444 0.00500065 0.004995882 0.8664308 0.01823157 0.8664306 0.4398865 0.8482808 0.426363 0.6643769 0.8925506 0.667559 0.8957133 0.6660279 0.9042511 0.8664306 0.4398865 0.8506366 0.4532926 0.8397483 0.4351959 0.6534516 0.03739207 0.839388 0.03320866 0.8386145 0.425544 0.01656919 0.004992604 0.2043233 0.004969358 0.2043547 0.2534175 0.4165685 0.5134772 0.4165371 0.2650283 0.6042916 0.2650048 0.6552987 0.4345083 0.8397483 0.4351959 0.8506366 0.4532926 0.8837032 0.4753447 0.8805213 0.4721819 0.8820528 0.4636442 0.215892 0.004969358 0.6158903 0.004995882 0.6158259 0.2534441 0.6643769 0.8925506 0.6796857 0.8763784 0.6819407 0.8786676 0.8840675 0.8946576 0.8921579 0.8966525 0.8825256 0.9068673 0.6640124 0.4732376 0.6672146 0.4698566 0.6833649 0.4856284 0.8808661 0.8980386 0.8647155 0.8822667 0.8670167 0.8799925 0.8805213 0.4721819 0.8837032 0.4753447 0.8683943 0.4915168 0.6643769 0.8925506 0.6559228 0.8946852 0.6559228 0.4712429 0.8837032 0.4753447 0.8921576 0.4732101 0.8921579 0.8966525 0.8808661 0.8980386 0.8825256 0.9068673 0.6660279 0.9042511 0.8805213 0.4721819 0.6672146 0.4698566 0.6655545 0.4610279 0.6796857 0.8763784 0.6810634 0.4879026 0.8683943 0.4915168 0.6810634 0.4879026 0.6833649 0.4856284 0.8683943 0.4915168 0.6833649 0.4856284 0.8661392 0.4892279 0.8683943 0.4915168 0.8683943 0.4915168 0.8670167 0.8799925 0.6796857 0.8763784 0.8670167 0.8799925 0.8647155 0.8822667 0.6796857 0.8763784 0.6672146 0.4698566 0.8805213 0.4721819 0.8661392 0.4892279 0.6640124 0.4732376 0.6810634 0.4879026 0.6796857 0.8763784 0.8840675 0.8946576 0.8670167 0.8799925 0.8683943 0.4915168 0.667559 0.8957133 0.6819407 0.8786676 0.8647155 0.8822667</float_array>
          <technique_common>
            <accessor source="#Cube_014-mesh-map-0-array" count="252" stride="2">
              <param name="S" type="float"/>
              <param name="T" type="float"/>
            </accessor>
          </technique_common>
        </source>
        <vertices id="Cube_014-mesh-vertices">
          <input semantic="POSITION" source="#Cube_014-mesh-positions"/>
        </vertices>
        <triangles material="bug_switchboard-material" count="84">
          <input semantic="VERTEX" source="#Cube_014-mesh-vertices" offset="0"/>
          <input semantic="NORMAL" source="#Cube_014-mesh-normals" offset="1"/>
          <input semantic="TEXCOORD" source="#Cube_014-mesh-map-0" offset="2" set="0"/>
          <p>15 0 0 30 1 1 14 2 2 17 3 3 6 4 4 16 5 5 22 6 6 31 7 7 23 8 8 4 9 9 5 10 10 3 11 11 8 12 12 6 4 13 7 13 14 5 10 15 0 14 16 3 11 17 6 4 18 0 14 19 2 15 20 10 16 21 11 17 22 9 18 23 8 12 24 10 16 25 9 18 26 4 9 27 14 19 28 5 10 29 18 20 30 35 21 31 34 22 32 5 10 33 12 23 34 1 24 35 2 15 36 16 5 37 6 4 38 16 25 39 32 26 40 17 27 41 12 23 42 2 15 43 1 24 44 3 11 45 11 17 46 4 9 47 30 1 48 12 28 49 14 2 50 13 29 51 29 30 52 28 31 53 17 3 54 10 16 55 7 13 56 21 32 57 28 33 58 29 34 59 19 35 60 11 17 61 10 16 62 0 14 63 9 18 64 3 11 65 28 31 66 16 25 67 13 29 68 31 36 69 18 20 70 34 22 71 4 9 72 18 37 73 15 38 74 27 39 75 34 40 76 35 41 77 32 26 78 19 42 79 17 27 80 21 43 81 36 44 82 20 45 83 24 46 84 33 47 85 25 48 86 22 49 87 39 50 88 38 51 89 25 52 90 40 53 91 24 54 92 26 55 93 43 56 94 42 57 95 21 32 96 30 58 97 22 6 98 27 39 99 32 59 100 24 46 101 25 48 102 28 33 103 20 60 104 26 61 105 31 7 106 34 40 107 41 62 108 36 63 109 37 64 110 23 65 111 42 57 112 39 50 113 22 49 114 37 66 115 21 43 116 1 24 117 2 15 118 0 14 119 24 54 120 43 56 121 27 67 122 20 45 123 41 68 124 25 52 125 15 0 126 31 36 127 30 1 128 17 3 129 7 13 130 6 4 131 22 6 132 30 58 133 31 7 134 5 10 135 1 24 136 0 14 137 6 4 138 8 12 139 0 14 140 8 12 141 7 13 142 10 16 143 4 9 144 15 38 145 14 19 146 18 20 147 19 42 148 35 21 149 5 10 150 14 19 151 12 23 152 2 15 153 13 69 154 16 5 155 16 25 156 33 70 157 32 26 158 12 23 159 13 69 160 2 15 161 3 11 162 9 18 163 11 17 164 30 1 165 29 30 166 12 28 167 13 29 168 12 28 169 29 30 170 17 3 171 19 35 172 10 16 173 21 32 174 20 60 175 28 33 176 19 35 177 18 37 178 11 17 179 0 14 180 8 12 181 9 18 182 28 31 183 33 70 184 16 25 185 31 36 186 15 0 187 18 20 188 4 9 189 11 17 190 18 37 191 27 39 192 26 61 193 34 40 194 32 26 195 35 21 196 19 42 197 21 43 198 37 66 199 36 44 200 24 46 201 32 59 202 33 47 203 22 49 204 23 65 205 39 50 206 25 52 207 41 68 208 40 53 209 26 55 210 27 67 211 43 56 212 21 32 213 29 34 214 30 58 215 27 39 216 35 41 217 32 59 218 25 48 219 33 47 220 28 33 221 26 61 222 23 8 223 31 7 224 37 64 225 38 71 226 43 72 227 38 71 228 39 73 229 43 72 230 39 73 231 42 74 232 43 72 233 43 72 234 40 75 235 37 64 236 40 75 237 41 62 238 37 64 239 23 65 240 26 55 241 42 57 242 22 49 243 38 51 244 37 66 245 24 54 246 40 53 247 43 56 248 20 45 249 36 44 250 41 68 251</p>
        </triangles>
      </mesh>
    </geometry>
    <geometry id="Cube_006-mesh" name="Cube.006">
      <mesh>
        <source id="Cube_006-mesh-positions">
          <float_array id="Cube_006-mesh-positions-array" count="168">-0.00750035 0.001284539 2.17501e-4 -0.006837904 0.002410471 5.92541e-5 0.007499575 0.001284539 2.17501e-4 0.006837129 0.002410471 5.92541e-5 -0.00750035 -0.002689719 7.76052e-4 0.007499575 -0.002689719 7.76052e-4 -0.007032275 0.005383193 0.01571571 -0.005871713 0.005504369 0.01616722 -0.007512986 0.005090594 0.01462578 -0.006366848 0.006606221 0.01491671 -0.005199074 0.006735742 0.0153684 -0.0068506 0.006293535 0.01382625 0.007006227 0.005383193 0.01571571 0.007486939 0.005090594 0.01462578 0.005845665 0.005504369 0.01616722 0.006340801 0.006606221 0.01491671 0.006824493 0.006293535 0.01382625 0.005173027 0.006735742 0.0153684 -0.007033944 -0.007181823 -0.01545315 -0.007512986 -0.006875395 -0.01437497 -0.005877435 -0.00730884 -0.01589971 0.007007896 -0.007181823 -0.01545315 0.005851328 -0.00730884 -0.01589971 0.007486939 -0.006875395 -0.01437497 0.005173027 0.00223869 -0.01662969 0.006824493 0.00223869 -0.01502543 0.006340801 0.00223869 -0.01615983 0.005845665 8.3491e-4 -0.01705813 0.007486939 8.62042e-4 -0.01546239 0.007006227 8.42855e-4 -0.01659077 -0.0068506 0.00223869 -0.01502543 -0.005199074 0.00223869 -0.01662969 -0.006366848 0.00223869 -0.01615983 -0.007512986 8.62045e-4 -0.01546239 -0.005871713 8.34912e-4 -0.01705813 -0.007032275 8.42858e-4 -0.01659077 0.007499575 -0.002799391 -4.60719e-6 0.007486939 -0.002646744 0.01571327 0.005851328 -0.002643167 0.0172984 -0.00750035 -0.002799391 -4.60737e-6 0.006837129 0.002300798 -7.21403e-4 0.007007837 -0.002644181 0.01683413 -0.005877435 -0.002643167 0.0172984 0.007499575 0.001174807 -5.63157e-4 -0.007513046 -0.002646744 0.01571327 -0.006837904 0.002300798 -7.21403e-4 -0.00750035 0.001174807 -5.63157e-4 -0.007033944 -0.002644181 0.01683413 -0.004980802 0.002300798 -7.21403e-4 -0.004980802 0.002410471 5.92541e-5 -0.005176484 0.006293535 0.01382625 -0.00517708 0.002244949 -0.01502615 0.005150437 0.002239584 -0.01502549 0.004954516 0.002300798 -7.21403e-4 0.004954516 0.002410471 5.92541e-5 0.005150318 0.006293535 0.01382625</float_array>
          <technique_common>
            <accessor source="#Cube_006-mesh-positions-array" count="56" stride="3">
              <param name="X" type="float"/>
              <param name="Y" type="float"/>
              <param name="Z" type="float"/>
            </accessor>
          </technique_common>
        </source>
        <source id="Cube_006-mesh-normals">
          <float_array id="Cube_006-mesh-normals-array" count="168">0.07380539 0.9971349 -0.01657563 0.0101847 0.9998424 -0.01454246 0.002855718 0.9967109 -0.0809893 -1 6.52455e-5 4.40242e-4 -0.9489016 0.2302786 -0.2157723 -0.9758637 -0.0304802 -0.2162433 0.08706378 0.996176 -0.007299542 0.9702633 0.2412315 -0.01991647 0.9487472 0.230248 -0.2164826 -0.9702591 0.241316 -0.01907557 -0.08707726 0.9961764 -0.00709778 0.2098526 0.3081841 0.9278925 0.6803861 0.101268 0.7258234 0.6847474 0.374509 0.6251912 -0.01020711 0.9650923 -0.261711 -0.235648 0.3116981 0.9204968 -0.002902805 0.9804095 -0.196949 0.002902567 0.9804137 -0.1969279 0.9487471 0.2809997 0.1446314 0.01019871 0.9650946 -0.2617028 0.9756152 0.03040397 0.2173724 1 5.86303e-5 4.43239e-4 0.9702684 0.2373589 -0.04732942 -0.6803857 0.1012681 0.7258238 -0.6847178 0.374487 0.6252369 -0.03556853 -0.1407132 -0.9894113 0.2010013 0.198441 -0.9592809 0.0355733 -0.1406117 -0.9894255 -0.1275739 0.1214858 -0.9843608 -0.9758636 0.03030538 0.2162685 -0.9489015 0.2808332 0.1439401 -0.08709973 0.9595505 -0.2677251 -0.01029884 0.9998436 -0.01437973 -0.684718 0.1876412 -0.7042387 0.684747 0.1876749 -0.7042015 0.6802672 -0.102761 -0.725725 0.9756152 -0.03068995 -0.217332 -0.6802675 -0.1027609 -0.7257247 0.06585627 0.9611628 -0.2680095 0.08709532 0.9595887 -0.267589 -0.0805307 0.9610215 -0.2644856 -0.9702643 0.2372069 -0.04816651 0.08056312 0.961043 -0.2643976 1 -6.53881e-5 -4.40045e-4 -1 -5.88542e-5 -4.42895e-4 -0.03556996 0.1375579 0.9898549 -0.05877345 0.9982143 -0.01067435 -0.05875509 0.962494 -0.2648649 0.05844414 0.9625288 -0.2648068 -0.06585645 0.9611313 -0.2681227 0.05842 0.998234 -0.01077759 -0.008542895 0.9972309 -0.07387679 -0.08058738 0.9966914 -0.01059144 0.08054143 0.9966925 -0.01082384 -0.00283426 0.9967164 -0.08092337 0.03557503 0.1374712 0.9898667</float_array>
          <technique_common>
            <accessor source="#Cube_006-mesh-normals-array" count="56" stride="3">
              <param name="X" type="float"/>
              <param name="Y" type="float"/>
              <param name="Z" type="float"/>
            </accessor>
          </technique_common>
        </source>
        <source id="Cube_006-mesh-map-0">
          <float_array id="Cube_006-mesh-map-0-array" count="564">0.5169118 0.6512954 0.5041157 0.639102 0.5166692 0.6340509 0.9320989 0.9373577 0.921401 0.8557035 0.96067 0.8604153 0.9125161 0.7730982 0.9094434 0.6954723 0.9208123 0.7731075 0.9109414 0.932217 0.9132206 0.85584 0.921401 0.8557035 0.9222015 0.469089 0.9621232 0.4790225 0.9224442 0.4749433 0.9131951 0.4051212 0.9212241 0.4100171 0.9131236 0.4125423 0.9212241 0.4100171 0.9143537 0.4667181 0.9131236 0.4125423 0.9217287 0.4806192 0.9144828 0.4738357 0.9224442 0.4749433 0.9224442 0.4749433 0.9605814 0.485458 0.9217287 0.4806192 0.9217287 0.4806192 0.9318308 0.5613316 0.9109451 0.5561323 0.962863 0.399926 0.9212241 0.4100171 0.9214816 0.4039515 0.9144828 0.4738357 0.9222015 0.469089 0.9224442 0.4749433 0.9631205 0.8473976 0.9213224 0.7848927 0.9634859 0.7815312 0.9218276 0.8439905 0.9134584 0.7874228 0.9213224 0.7848927 0.9612897 0.3932048 0.9214816 0.4039515 0.9207472 0.3980424 0.9207472 0.3980424 0.9131951 0.4051212 0.9123363 0.3979713 0.9139817 0.8488823 0.921401 0.8557035 0.9132206 0.85584 0.9139817 0.8488823 0.9218276 0.8439905 0.9220956 0.8499453 0.9208123 0.7731075 0.9134256 0.7801427 0.9125161 0.7730982 0.9213224 0.7848927 0.9134256 0.7801427 0.9215602 0.7789338 0.9213224 0.7848927 0.962527 0.7748713 0.9634859 0.7815312 0.9215602 0.7789338 0.9609497 0.7682168 0.962527 0.7748713 0.9220956 0.8499453 0.96067 0.8604153 0.921401 0.8557035 0.9218276 0.8439905 0.9621953 0.8539093 0.9220956 0.8499453 0.5169128 0.9673073 0.5041157 0.979502 0.4989159 0.9673073 0.9031376 0.9346521 0.9109414 0.932217 0.9099417 0.9363296 0.909933 0.5601944 0.9042429 0.5544549 0.9109451 0.5561323 0.9311408 0.6899381 0.9208123 0.7731075 0.9094434 0.6954723 0.9320989 0.9373577 0.9099417 0.9363296 0.9109414 0.932217 0.9315475 0.3139337 0.9207472 0.3980424 0.9095778 0.3194271 0.9095778 0.3194271 0.9123363 0.3979713 0.90266 0.3211319 0.9109451 0.5561323 0.9136636 0.4806848 0.9217287 0.4806192 0.9308049 0.5654209 0.9109451 0.5561323 0.9318308 0.5613316 0.9638133 0.4066517 0.9222015 0.469089 0.9212241 0.4100171 0.6258222 0.8050647 0.6457859 0.8135392 0.6258221 0.8135392 0.5169128 0.9673073 0.4987799 0.813539 0.5190179 0.813539 0.6457859 0.8135392 0.6279253 0.9673073 0.6258221 0.8135392 0.6258222 0.8050647 0.5190179 0.813539 0.5190179 0.8050647 0.6279322 0.6512885 0.6407222 0.639102 0.6459222 0.6512966 0.6407222 0.979502 0.6279253 0.9673073 0.645922 0.9673073 0.6457859 0.8050647 0.6279322 0.6512885 0.6459222 0.6512966 0.4987798 0.8050647 0.5169118 0.6512954 0.5190179 0.8050647 0.6279253 0.9673073 0.5190179 0.813539 0.6258221 0.8135392 0.5190179 0.8050647 0.4987799 0.813539 0.4987798 0.8050647 0.6258222 0.8050647 0.5169118 0.6512954 0.6279322 0.6512885 0.5169118 0.6512954 0.6281687 0.6340509 0.6279322 0.6512885 0.6281687 0.9845531 0.5169128 0.9673073 0.6279253 0.9673073 0.5169118 0.6512954 0.4989159 0.6512966 0.5041157 0.639102 0.9320989 0.9373577 0.9109414 0.932217 0.921401 0.8557035 0.9125161 0.7730982 0.9026148 0.6971938 0.9094434 0.6954723 0.9109414 0.932217 0.9041427 0.9305737 0.9132206 0.85584 0.9222015 0.469089 0.9630701 0.4725791 0.9621232 0.4790225 0.9131951 0.4051212 0.9214816 0.4039515 0.9212241 0.4100171 0.9212241 0.4100171 0.9222015 0.469089 0.9143537 0.4667181 0.9217287 0.4806192 0.9136636 0.4806848 0.9144828 0.4738357 0.9224442 0.4749433 0.9621232 0.4790225 0.9605814 0.485458 0.9217287 0.4806192 0.9605814 0.485458 0.9318308 0.5613316 0.962863 0.399926 0.9638133 0.4066517 0.9212241 0.4100171 0.9144828 0.4738357 0.9143537 0.4667181 0.9222015 0.469089 0.9631205 0.8473976 0.9218276 0.8439905 0.9213224 0.7848927 0.9218276 0.8439905 0.9137506 0.8416215 0.9134584 0.7874228 0.9612897 0.3932048 0.962863 0.399926 0.9214816 0.4039515 0.9207472 0.3980424 0.9214816 0.4039515 0.9131951 0.4051212 0.9139817 0.8488823 0.9220956 0.8499453 0.921401 0.8557035 0.9139817 0.8488823 0.9137506 0.8416215 0.9218276 0.8439905 0.9208123 0.7731075 0.9215602 0.7789338 0.9134256 0.7801427 0.9213224 0.7848927 0.9134584 0.7874228 0.9134256 0.7801427 0.9213224 0.7848927 0.9215602 0.7789338 0.962527 0.7748713 0.9215602 0.7789338 0.9208123 0.7731075 0.9609497 0.7682168 0.9220956 0.8499453 0.9621953 0.8539093 0.96067 0.8604153 0.9218276 0.8439905 0.9631205 0.8473976 0.9621953 0.8539093 0.5169128 0.9673073 0.5166692 0.9845531 0.5041157 0.979502 0.9031376 0.9346521 0.9041427 0.9305737 0.9109414 0.932217 0.909933 0.5601944 0.9032153 0.5584793 0.9042429 0.5544549 0.9311408 0.6899381 0.9609497 0.7682168 0.9208123 0.7731075 0.9320989 0.9373577 0.9310814 0.9415103 0.9099417 0.9363296 0.9315475 0.3139337 0.9612897 0.3932048 0.9207472 0.3980424 0.9095778 0.3194271 0.9207472 0.3980424 0.9123363 0.3979713 0.9109451 0.5561323 0.9042429 0.5544549 0.9136636 0.4806848 0.9308049 0.5654209 0.909933 0.5601944 0.9109451 0.5561323 0.9638133 0.4066517 0.9630701 0.4725791 0.9222015 0.469089 0.6258222 0.8050647 0.6457859 0.8050647 0.6457859 0.8135392 0.5169128 0.9673073 0.4989159 0.9673073 0.4987799 0.813539 0.6457859 0.8135392 0.645922 0.9673073 0.6279253 0.9673073 0.6258222 0.8050647 0.6258221 0.8135392 0.5190179 0.813539 0.6279322 0.6512885 0.6281687 0.6340509 0.6407222 0.639102 0.6407222 0.979502 0.6281687 0.9845531 0.6279253 0.9673073 0.6457859 0.8050647 0.6258222 0.8050647 0.6279322 0.6512885 0.4987798 0.8050647 0.4989159 0.6512966 0.5169118 0.6512954 0.6279253 0.9673073 0.5169128 0.9673073 0.5190179 0.813539 0.5190179 0.8050647 0.5190179 0.813539 0.4987799 0.813539 0.6258222 0.8050647 0.5190179 0.8050647 0.5169118 0.6512954 0.5169118 0.6512954 0.5166692 0.6340509 0.6281687 0.6340509 0.6281687 0.9845531 0.5166692 0.9845531 0.5169128 0.9673073</float_array>
          <technique_common>
            <accessor source="#Cube_006-mesh-map-0-array" count="282" stride="2">
              <param name="S" type="float"/>
              <param name="T" type="float"/>
            </accessor>
          </technique_common>
        </source>
        <vertices id="Cube_006-mesh-vertices">
          <input semantic="POSITION" source="#Cube_006-mesh-positions"/>
        </vertices>
        <triangles material="bug_switchboard-material" count="94">
          <input semantic="VERTEX" source="#Cube_006-mesh-vertices" offset="0"/>
          <input semantic="NORMAL" source="#Cube_006-mesh-normals" offset="1"/>
          <input semantic="TEXCOORD" source="#Cube_006-mesh-map-0" offset="2" set="0"/>
          <p>52 0 0 26 1 1 24 2 2 39 3 3 33 4 4 19 5 5 25 6 6 43 7 7 28 8 8 46 9 9 30 10 10 33 4 11 14 11 12 41 12 13 12 13 14 9 14 15 7 15 16 10 16 17 7 15 18 17 17 19 10 16 20 13 18 21 15 19 22 12 13 23 12 13 24 37 20 25 13 18 26 13 18 27 5 21 28 2 22 29 47 23 30 7 15 31 6 24 32 15 19 33 14 11 34 12 13 35 20 25 36 27 26 37 22 27 38 34 28 39 24 2 40 27 26 41 44 29 42 6 24 43 8 30 44 8 30 45 9 14 46 11 31 47 32 32 48 33 4 49 30 10 50 32 32 51 34 28 52 35 33 53 28 8 54 26 1 55 25 6 56 27 26 57 26 1 58 29 34 59 27 26 60 21 35 61 22 27 62 29 34 63 23 36 64 21 35 65 35 33 66 19 5 67 33 4 68 34 28 69 18 37 70 35 33 71 55 38 72 15 19 73 16 39 74 1 40 75 46 9 76 0 41 77 43 7 78 3 42 79 2 22 80 36 43 81 28 8 82 43 7 83 39 3 84 0 41 85 46 9 86 4 44 87 8 30 88 0 41 89 0 41 90 11 31 91 1 40 92 2 22 93 16 39 94 13 18 95 36 43 96 2 22 97 5 21 98 42 45 99 14 11 100 7 15 101 48 46 102 1 40 103 49 47 104 55 38 105 3 42 106 54 48 107 1 40 108 50 49 109 49 47 110 48 46 111 54 48 112 53 50 113 51 51 114 32 32 115 30 10 116 9 14 117 50 49 118 11 31 119 45 52 120 51 51 121 30 10 122 40 53 123 52 0 124 53 50 125 50 49 126 54 48 127 49 47 128 53 50 129 3 42 130 40 53 131 48 46 132 52 0 133 51 51 134 52 0 135 31 54 136 51 51 137 10 16 138 55 38 139 50 49 140 52 0 141 25 6 142 26 1 143 39 3 144 46 9 145 33 4 146 25 6 147 40 53 148 43 7 149 46 9 150 45 52 151 30 10 152 14 11 153 38 55 154 41 12 155 9 14 156 6 24 157 7 15 158 7 15 159 14 11 160 17 17 161 13 18 162 16 39 163 15 19 164 12 13 165 41 12 166 37 20 167 13 18 168 37 20 169 5 21 170 47 23 171 42 45 172 7 15 173 15 19 174 17 17 175 14 11 176 20 25 177 34 28 178 27 26 179 34 28 180 31 54 181 24 2 182 44 29 183 47 23 184 6 24 185 8 30 186 6 24 187 9 14 188 32 32 189 35 33 190 33 4 191 32 32 192 31 54 193 34 28 194 28 8 195 29 34 196 26 1 197 27 26 198 24 2 199 26 1 200 27 26 201 29 34 202 21 35 203 29 34 204 28 8 205 23 36 206 35 33 207 18 37 208 19 5 209 34 28 210 20 25 211 18 37 212 55 38 213 17 17 214 15 19 215 1 40 216 45 52 217 46 9 218 43 7 219 40 53 220 3 42 221 36 43 222 23 36 223 28 8 224 39 3 225 4 44 226 0 41 227 4 44 228 44 29 229 8 30 230 0 41 231 8 30 232 11 31 233 2 22 234 3 42 235 16 39 236 36 43 237 43 7 238 2 22 239 42 45 240 38 55 241 14 11 242 48 46 243 45 52 244 1 40 245 55 38 246 16 39 247 3 42 248 1 40 249 11 31 250 50 49 251 48 46 252 49 47 253 54 48 254 51 51 255 31 54 256 32 32 257 9 14 258 10 16 259 50 49 260 45 52 261 48 46 262 51 51 263 40 53 264 25 6 265 52 0 266 50 49 267 55 38 268 54 48 269 53 50 270 54 48 271 3 42 272 48 46 273 53 50 274 52 0 275 52 0 276 24 2 277 31 54 278 10 16 279 17 17 280 55 38 281</p>
        </triangles>
      </mesh>
    </geometry>
    <geometry id="Cube_003-mesh" name="Cube.003">
      <mesh>
        <source id="Cube_003-mesh-positions">
          <float_array id="Cube_003-mesh-positions-array" count="168">-0.00750035 0.001284539 2.17501e-4 -0.006837904 0.002410471 5.92541e-5 0.007499575 0.001284539 2.17501e-4 0.006837129 0.002410471 5.92541e-5 -0.00750035 -0.002689719 7.76052e-4 0.007499575 -0.002689719 7.76052e-4 -0.007032275 0.005383193 0.01571571 -0.005871713 0.005504369 0.01616722 -0.007512986 0.005090594 0.01462578 -0.006366848 0.006606221 0.01491671 -0.005199074 0.006735742 0.0153684 -0.0068506 0.006293535 0.01382625 0.007006227 0.005383193 0.01571571 0.007486939 0.005090594 0.01462578 0.005845665 0.005504369 0.01616722 0.006340801 0.006606221 0.01491671 0.006824493 0.006293535 0.01382625 0.005173027 0.006735742 0.0153684 -0.007033944 -0.007181823 -0.01545315 -0.007512986 -0.006875395 -0.01437497 -0.005877435 -0.00730884 -0.01589971 0.007007896 -0.007181823 -0.01545315 0.005851328 -0.00730884 -0.01589971 0.007486939 -0.006875395 -0.01437497 0.005173027 0.00223869 -0.01662969 0.006824493 0.00223869 -0.01502543 0.006340801 0.00223869 -0.01615983 0.005845665 8.3491e-4 -0.01705813 0.007486939 8.62042e-4 -0.01546239 0.007006227 8.42855e-4 -0.01659077 -0.0068506 0.00223869 -0.01502543 -0.005199074 0.00223869 -0.01662969 -0.006366848 0.00223869 -0.01615983 -0.007512986 8.62045e-4 -0.01546239 -0.005871713 8.34912e-4 -0.01705813 -0.007032275 8.42858e-4 -0.01659077 0.007499575 -0.002799391 -4.60719e-6 0.007486939 -0.002646744 0.01571327 0.005851328 -0.002643167 0.0172984 -0.00750035 -0.002799391 -4.60737e-6 0.006837129 0.002300798 -7.21403e-4 0.007007837 -0.002644181 0.01683413 -0.005877435 -0.002643167 0.0172984 0.007499575 0.001174807 -5.63157e-4 -0.007513046 -0.002646744 0.01571327 -0.006837904 0.002300798 -7.21403e-4 -0.00750035 0.001174807 -5.63157e-4 -0.007033944 -0.002644181 0.01683413 0.004954755 0.002300798 -7.21403e-4 0.004954755 0.002410471 5.92541e-5 -0.004980504 0.002300798 -7.21403e-4 -0.004980504 0.002410471 5.92541e-5 0.005151033 0.006299734 0.01382529 -0.00517708 0.006299734 0.01382529 -0.00517708 0.002244949 -0.01502615 0.005151033 0.002244949 -0.01502615</float_array>
          <technique_common>
            <accessor source="#Cube_003-mesh-positions-array" count="56" stride="3">
              <param name="X" type="float"/>
              <param name="Y" type="float"/>
              <param name="Z" type="float"/>
            </accessor>
          </technique_common>
        </source>
        <source id="Cube_003-mesh-normals">
          <float_array id="Cube_003-mesh-normals-array" count="168">0.008488059 0.997233 -0.07385402 0.01016533 0.9998432 -0.01450324 0.002893924 0.9967207 -0.08086836 -1 6.52455e-5 4.40242e-4 -0.9489016 0.2302786 -0.2157723 -0.9758637 -0.0304802 -0.2162433 0.08705067 0.9961767 -0.007360458 0.9702633 0.2412315 -0.01991647 0.9487472 0.230248 -0.2164826 -0.9702591 0.241316 -0.01907557 -0.0870772 0.9961764 -0.007097721 0.2098526 0.3081841 0.9278925 0.6803861 0.101268 0.7258234 0.6847474 0.374509 0.6251912 -0.01014012 0.9651147 -0.2616313 -0.235648 0.3116981 0.9204968 -0.002958416 0.9803966 -0.1970123 0.002837955 0.9804016 -0.1969892 0.9487471 0.2809997 0.1446314 0.01019459 0.9651014 -0.2616785 0.9756152 0.03040397 0.2173724 1 5.86303e-5 4.43239e-4 0.9702684 0.2373589 -0.04732942 -0.6803857 0.1012681 0.7258238 -0.6847178 0.374487 0.6252369 -0.03556853 -0.1407132 -0.9894113 0.2010013 0.198441 -0.9592809 0.0355733 -0.1406117 -0.9894255 -0.1275739 0.1214858 -0.9843608 -0.9758636 0.03030538 0.2162685 -0.9489015 0.2808332 0.1439401 -0.08707791 0.9595423 -0.2677614 -0.01021736 0.9998434 -0.01445472 -0.684718 0.1876412 -0.7042387 0.684747 0.1876749 -0.7042015 0.6802672 -0.102761 -0.725725 0.9756152 -0.03068995 -0.217332 -0.6802675 -0.1027609 -0.7257247 0.008447706 0.97896 -0.2038779 0.08705294 0.9596123 -0.2675186 -0.0805456 0.9610159 -0.264501 -0.9702643 0.2372069 -0.04816651 0.0805217 0.961045 -0.2644029 1 -6.53881e-5 -4.40045e-4 -1 -5.88542e-5 -4.42895e-4 -0.03556996 0.1375579 0.9898549 -0.05875724 0.998215 -0.01069569 -0.05872774 0.9624948 -0.2648677 0.0584709 0.9982312 -0.01075834 0.08049267 0.9966963 -0.01083844 -0.008582949 0.9972326 -0.07384818 -0.002990305 0.9967172 -0.08090776 -0.008583307 0.9789569 -0.203887 0.05846869 0.9625191 -0.2648367 -0.08058744 0.9966913 -0.01059043 0.03557503 0.1374712 0.9898667</float_array>
          <technique_common>
            <accessor source="#Cube_003-mesh-normals-array" count="56" stride="3">
              <param name="X" type="float"/>
              <param name="Y" type="float"/>
              <param name="Z" type="float"/>
            </accessor>
          </technique_common>
        </source>
        <source id="Cube_003-mesh-map-0">
          <float_array id="Cube_003-mesh-map-0-array" count="564">0.356907 0.6512876 0.3441171 0.6391011 0.3566705 0.63405 0.01020562 0.5550299 0.09185916 0.5443256 0.08715027 0.583595 0.1744638 0.5354343 0.2520893 0.5323556 0.174455 0.5437306 0.01534491 0.5338721 0.09172195 0.5361453 0.09185916 0.5443256 0.9746164 0.2183986 0.9346947 0.2084652 0.9743737 0.2125443 0.9836227 0.2823665 0.9755936 0.2774705 0.9836942 0.2749453 0.9755936 0.2774705 0.9824641 0.2207695 0.9836942 0.2749453 0.9750891 0.2068684 0.982335 0.213652 0.9743737 0.2125443 0.9743737 0.2125443 0.9362365 0.2020297 0.9750891 0.2068684 0.9750891 0.2068684 0.9649871 0.126156 0.9858728 0.1313554 0.9339549 0.2875616 0.9755936 0.2774705 0.9753363 0.2835361 0.982335 0.213652 0.9746164 0.2183986 0.9743737 0.2125443 0.1001682 0.5860446 0.1626698 0.5442416 0.1660347 0.5864048 0.1035721 0.5447514 0.1601392 0.5363777 0.1626698 0.5442416 0.9355282 0.2942829 0.9753363 0.2835361 0.9760706 0.2894453 0.9760706 0.2894453 0.9836227 0.2823665 0.9844815 0.2895163 0.09867966 0.5369058 0.09185916 0.5443256 0.09172195 0.5361453 0.09867966 0.5369058 0.1035721 0.5447514 0.09761726 0.5450198 0.174455 0.5437306 0.1674193 0.5363445 0.1744638 0.5354343 0.1626698 0.5442416 0.1674193 0.5363445 0.1686288 0.5444789 0.1626698 0.5442416 0.1726945 0.5854454 0.1660347 0.5864048 0.1686288 0.5444789 0.1793488 0.5838676 0.1726945 0.5854454 0.09761726 0.5450198 0.08715027 0.583595 0.09185916 0.5443256 0.1035721 0.5447514 0.09365653 0.5851199 0.09761726 0.5450198 0.356907 0.9673146 0.3441171 0.9795011 0.3389171 0.9673064 0.01290905 0.5260683 0.01534491 0.5338721 0.01123207 0.5328726 0.986885 0.1272933 0.992575 0.1330327 0.9858728 0.1313554 0.2576252 0.5540527 0.174455 0.5437306 0.2520893 0.5323556 0.01020562 0.5550299 0.01123207 0.5328726 0.01534491 0.5338721 0.9652702 0.3735539 0.9760706 0.2894453 0.98724 0.3680605 0.98724 0.3680605 0.9844815 0.2895163 0.9941579 0.3663557 0.9858728 0.1313554 0.9831543 0.2068029 0.9750891 0.2068684 0.966013 0.1220667 0.9858728 0.1313554 0.9649871 0.126156 0.9330044 0.2808359 0.9746164 0.2183986 0.9755936 0.2774705 0.46582 0.8050638 0.4857873 0.8135381 0.46582 0.8135381 0.3590167 0.8050638 0.3387812 0.8135381 0.3387812 0.8050638 0.4679332 0.6512876 0.3566705 0.63405 0.4681701 0.63405 0.4679332 0.9673144 0.3566706 0.9845521 0.356907 0.9673146 0.3590167 0.8050638 0.46582 0.8135381 0.3590167 0.8135381 0.4679332 0.6512876 0.4807236 0.6391011 0.4859235 0.6512956 0.4807236 0.979501 0.4679332 0.9673144 0.4859236 0.9673064 0.46582 0.8135381 0.356907 0.9673146 0.3590167 0.8135381 0.356907 0.9673146 0.3387812 0.8135381 0.3590167 0.8135381 0.4857873 0.8135381 0.4679332 0.9673144 0.46582 0.8135381 0.46582 0.8050638 0.356907 0.6512876 0.4679332 0.6512876 0.4857873 0.8050638 0.4679332 0.6512876 0.4859235 0.6512956 0.3387812 0.8050638 0.356907 0.6512876 0.3590167 0.8050638 0.356907 0.6512876 0.3389171 0.6512956 0.3441171 0.6391011 0.01020562 0.5550299 0.01534491 0.5338721 0.09185916 0.5443256 0.1744638 0.5354343 0.2503672 0.5255272 0.2520893 0.5323556 0.01534491 0.5338721 0.01698762 0.5270732 0.09172195 0.5361453 0.9746164 0.2183986 0.9337477 0.2149085 0.9346947 0.2084652 0.9836227 0.2823665 0.9753363 0.2835361 0.9755936 0.2774705 0.9755936 0.2774705 0.9746164 0.2183986 0.9824641 0.2207695 0.9750891 0.2068684 0.9831543 0.2068029 0.982335 0.213652 0.9743737 0.2125443 0.9346947 0.2084652 0.9362365 0.2020297 0.9750891 0.2068684 0.9362365 0.2020297 0.9649871 0.126156 0.9339549 0.2875616 0.9330044 0.2808359 0.9755936 0.2774705 0.982335 0.213652 0.9824641 0.2207695 0.9746164 0.2183986 0.1001682 0.5860446 0.1035721 0.5447514 0.1626698 0.5442416 0.1035721 0.5447514 0.1059406 0.5366743 0.1601392 0.5363777 0.9355282 0.2942829 0.9339549 0.2875616 0.9753363 0.2835361 0.9760706 0.2894453 0.9753363 0.2835361 0.9836227 0.2823665 0.09867966 0.5369058 0.09761726 0.5450198 0.09185916 0.5443256 0.09867966 0.5369058 0.1059406 0.5366743 0.1035721 0.5447514 0.174455 0.5437306 0.1686288 0.5444789 0.1674193 0.5363445 0.1626698 0.5442416 0.1601392 0.5363777 0.1674193 0.5363445 0.1626698 0.5442416 0.1686288 0.5444789 0.1726945 0.5854454 0.1686288 0.5444789 0.174455 0.5437306 0.1793488 0.5838676 0.09761726 0.5450198 0.09365653 0.5851199 0.08715027 0.583595 0.1035721 0.5447514 0.1001682 0.5860446 0.09365653 0.5851199 0.356907 0.9673146 0.3566706 0.9845521 0.3441171 0.9795011 0.01290905 0.5260683 0.01698762 0.5270732 0.01534491 0.5338721 0.986885 0.1272933 0.9936026 0.1290084 0.992575 0.1330327 0.2576252 0.5540527 0.1793488 0.5838676 0.174455 0.5437306 0.01020562 0.5550299 0.00605309 0.5540127 0.01123207 0.5328726 0.9652702 0.3735539 0.9355282 0.2942829 0.9760706 0.2894453 0.98724 0.3680605 0.9760706 0.2894453 0.9844815 0.2895163 0.9858728 0.1313554 0.992575 0.1330327 0.9831543 0.2068029 0.966013 0.1220667 0.986885 0.1272933 0.9858728 0.1313554 0.9330044 0.2808359 0.9337477 0.2149085 0.9746164 0.2183986 0.46582 0.8050638 0.4857873 0.8050638 0.4857873 0.8135381 0.3590167 0.8050638 0.3590167 0.8135381 0.3387812 0.8135381 0.4679332 0.6512876 0.356907 0.6512876 0.3566705 0.63405 0.4679332 0.9673144 0.4681701 0.9845521 0.3566706 0.9845521 0.3590167 0.8050638 0.46582 0.8050638 0.46582 0.8135381 0.4679332 0.6512876 0.4681701 0.63405 0.4807236 0.6391011 0.4807236 0.979501 0.4681701 0.9845521 0.4679332 0.9673144 0.46582 0.8135381 0.4679332 0.9673144 0.356907 0.9673146 0.356907 0.9673146 0.3389171 0.9673064 0.3387812 0.8135381 0.4857873 0.8135381 0.4859236 0.9673064 0.4679332 0.9673144 0.46582 0.8050638 0.3590167 0.8050638 0.356907 0.6512876 0.4857873 0.8050638 0.46582 0.8050638 0.4679332 0.6512876 0.3387812 0.8050638 0.3389171 0.6512956 0.356907 0.6512876</float_array>
          <technique_common>
            <accessor source="#Cube_003-mesh-map-0-array" count="282" stride="2">
              <param name="S" type="float"/>
              <param name="T" type="float"/>
            </accessor>
          </technique_common>
        </source>
        <vertices id="Cube_003-mesh-vertices">
          <input semantic="POSITION" source="#Cube_003-mesh-positions"/>
        </vertices>
        <triangles material="bug_switchboard-material" count="94">
          <input semantic="VERTEX" source="#Cube_003-mesh-vertices" offset="0"/>
          <input semantic="NORMAL" source="#Cube_003-mesh-normals" offset="1"/>
          <input semantic="TEXCOORD" source="#Cube_003-mesh-map-0" offset="2" set="0"/>
          <p>55 0 0 26 1 1 24 2 2 39 3 3 33 4 4 19 5 5 25 6 6 43 7 7 28 8 8 46 9 9 30 10 10 33 4 11 14 11 12 41 12 13 12 13 14 9 14 15 7 15 16 10 16 17 7 15 18 17 17 19 10 16 20 13 18 21 15 19 22 12 13 23 12 13 24 37 20 25 13 18 26 13 18 27 5 21 28 2 22 29 47 23 30 7 15 31 6 24 32 15 19 33 14 11 34 12 13 35 20 25 36 27 26 37 22 27 38 34 28 39 24 2 40 27 26 41 44 29 42 6 24 43 8 30 44 8 30 45 9 14 46 11 31 47 32 32 48 33 4 49 30 10 50 32 32 51 34 28 52 35 33 53 28 8 54 26 1 55 25 6 56 27 26 57 26 1 58 29 34 59 27 26 60 21 35 61 22 27 62 29 34 63 23 36 64 21 35 65 35 33 66 19 5 67 33 4 68 34 28 69 18 37 70 35 33 71 52 38 72 15 19 73 16 39 74 1 40 75 46 9 76 0 41 77 43 7 78 3 42 79 2 22 80 36 43 81 28 8 82 43 7 83 39 3 84 0 41 85 46 9 86 4 44 87 8 30 88 0 41 89 0 41 90 11 31 91 1 40 92 2 22 93 16 39 94 13 18 95 36 43 96 2 22 97 5 21 98 42 45 99 14 11 100 7 15 101 50 46 102 1 40 103 51 47 104 48 48 105 3 42 106 40 49 107 54 50 108 24 2 109 31 51 110 53 52 111 17 17 112 52 38 113 48 48 114 51 47 115 49 53 116 54 50 117 32 32 118 30 10 119 9 14 120 53 52 121 11 31 122 51 47 123 52 38 124 49 53 125 52 38 126 3 42 127 49 53 128 1 40 129 53 52 130 51 47 131 50 46 132 55 0 133 54 50 134 45 54 135 54 50 136 30 10 137 40 49 138 55 0 139 48 48 140 55 0 141 25 6 142 26 1 143 39 3 144 46 9 145 33 4 146 25 6 147 40 49 148 43 7 149 46 9 150 45 54 151 30 10 152 14 11 153 38 55 154 41 12 155 9 14 156 6 24 157 7 15 158 7 15 159 14 11 160 17 17 161 13 18 162 16 39 163 15 19 164 12 13 165 41 12 166 37 20 167 13 18 168 37 20 169 5 21 170 47 23 171 42 45 172 7 15 173 15 19 174 17 17 175 14 11 176 20 25 177 34 28 178 27 26 179 34 28 180 31 51 181 24 2 182 44 29 183 47 23 184 6 24 185 8 30 186 6 24 187 9 14 188 32 32 189 35 33 190 33 4 191 32 32 192 31 51 193 34 28 194 28 8 195 29 34 196 26 1 197 27 26 198 24 2 199 26 1 200 27 26 201 29 34 202 21 35 203 29 34 204 28 8 205 23 36 206 35 33 207 18 37 208 19 5 209 34 28 210 20 25 211 18 37 212 52 38 213 17 17 214 15 19 215 1 40 216 45 54 217 46 9 218 43 7 219 40 49 220 3 42 221 36 43 222 23 36 223 28 8 224 39 3 225 4 44 226 0 41 227 4 44 228 44 29 229 8 30 230 0 41 231 8 30 232 11 31 233 2 22 234 3 42 235 16 39 236 36 43 237 43 7 238 2 22 239 42 45 240 38 55 241 14 11 242 50 46 243 45 54 244 1 40 245 48 48 246 49 53 247 3 42 248 54 50 249 55 0 250 24 2 251 53 52 252 10 16 253 17 17 254 48 48 255 50 46 256 51 47 257 54 50 258 31 51 259 32 32 260 9 14 261 10 16 262 53 52 263 51 47 264 53 52 265 52 38 266 52 38 267 16 39 268 3 42 269 1 40 270 11 31 271 53 52 272 50 46 273 48 48 274 55 0 275 45 54 276 50 46 277 54 50 278 40 49 279 25 6 280 55 0 281</p>
        </triangles>
      </mesh>
    </geometry>
    <geometry id="Cube_002-mesh" name="Cube.002">
      <mesh>
        <source id="Cube_002-mesh-positions">
          <float_array id="Cube_002-mesh-positions-array" count="168">-0.00750035 0.001284539 2.17501e-4 -0.006837904 0.002410471 5.92541e-5 0.007499575 0.001284539 2.17501e-4 0.006837129 0.002410471 5.92541e-5 -0.00750035 -0.002689719 7.76052e-4 0.007499575 -0.002689719 7.76052e-4 -0.007032275 0.005383193 0.01571571 -0.005871713 0.005504369 0.01616722 -0.007512986 0.005090594 0.01462578 -0.006366848 0.006606221 0.01491671 -0.005199074 0.006735742 0.0153684 -0.0068506 0.006293535 0.01382625 0.007006227 0.005383193 0.01571571 0.007486939 0.005090594 0.01462578 0.005845665 0.005504369 0.01616722 0.006340801 0.006606221 0.01491671 0.006824493 0.006293535 0.01382625 0.005173027 0.006735742 0.0153684 -0.007033944 -0.007181823 -0.01545315 -0.007512986 -0.006875395 -0.01437497 -0.005877435 -0.00730884 -0.01589971 0.007007896 -0.007181823 -0.01545315 0.005851328 -0.00730884 -0.01589971 0.007486939 -0.006875395 -0.01437497 0.005173027 0.00223869 -0.01662969 0.006824493 0.00223869 -0.01502543 0.006340801 0.00223869 -0.01615983 0.005845665 8.3491e-4 -0.01705813 0.007486939 8.62042e-4 -0.01546239 0.007006227 8.42855e-4 -0.01659077 -0.0068506 0.00223869 -0.01502543 -0.005199074 0.00223869 -0.01662969 -0.006366848 0.00223869 -0.01615983 -0.007512986 8.62045e-4 -0.01546239 -0.005871713 8.34912e-4 -0.01705813 -0.007032275 8.42858e-4 -0.01659077 0.007499575 -0.002799391 -4.60719e-6 0.007486939 -0.002646744 0.01571327 0.005851328 -0.002643167 0.0172984 -0.00750035 -0.002799391 -4.60737e-6 0.006837129 0.002300798 -7.21403e-4 0.007007837 -0.002644181 0.01683413 -0.005877435 -0.002643167 0.0172984 0.007499575 0.001174807 -5.63157e-4 -0.007513046 -0.002646744 0.01571327 -0.006837904 0.002300798 -7.21403e-4 -0.00750035 0.001174807 -5.63157e-4 -0.007033944 -0.002644181 0.01683413 0.004954755 0.002300798 -7.21403e-4 0.004954755 0.002410471 5.92541e-5 -0.004980504 0.002300798 -7.21403e-4 -0.004980504 0.002410471 5.92541e-5 -0.00517708 0.002244949 -0.01502615 0.005151033 0.002244949 -0.01502615 0.005151033 0.006299734 0.01382529 -0.00517708 0.006299734 0.01382529</float_array>
          <technique_common>
            <accessor source="#Cube_002-mesh-positions-array" count="56" stride="3">
              <param name="X" type="float"/>
              <param name="Y" type="float"/>
              <param name="Z" type="float"/>
            </accessor>
          </technique_common>
        </source>
        <source id="Cube_002-mesh-normals">
          <float_array id="Cube_002-mesh-normals-array" count="168">0.008488059 0.997233 -0.07385402 0.01016533 0.9998432 -0.01450324 0.002893924 0.9967207 -0.08086836 -1 6.52455e-5 4.40242e-4 -0.9489016 0.2302786 -0.2157723 -0.9758637 -0.0304802 -0.2162433 0.08705067 0.9961767 -0.007360458 0.9702633 0.2412315 -0.01991647 0.9487472 0.230248 -0.2164826 -0.9702591 0.241316 -0.01907557 -0.0870772 0.9961764 -0.007097721 0.2098526 0.3081841 0.9278925 0.6803861 0.101268 0.7258234 0.6847474 0.374509 0.6251912 -0.01014012 0.9651147 -0.2616313 -0.235648 0.3116981 0.9204968 -0.002958416 0.9803966 -0.1970123 0.002837955 0.9804016 -0.1969892 0.9487471 0.2809997 0.1446314 0.01019459 0.9651014 -0.2616785 0.9756152 0.03040397 0.2173724 1 5.86303e-5 4.43239e-4 0.9702684 0.2373589 -0.04732942 -0.6803857 0.1012681 0.7258238 -0.6847178 0.374487 0.6252369 -0.03556853 -0.1407132 -0.9894113 0.2010013 0.198441 -0.9592809 0.0355733 -0.1406117 -0.9894255 -0.1275739 0.1214858 -0.9843608 -0.9758636 0.03030538 0.2162685 -0.9489015 0.2808332 0.1439401 -0.08707791 0.9595423 -0.2677614 -0.01021736 0.9998434 -0.01445472 -0.684718 0.1876412 -0.7042387 0.684747 0.1876749 -0.7042015 0.6802672 -0.102761 -0.725725 0.9756152 -0.03068995 -0.217332 -0.6802675 -0.1027609 -0.7257247 0.008447706 0.97896 -0.2038779 0.08705294 0.9596123 -0.2675186 -0.0805456 0.9610159 -0.264501 -0.9702643 0.2372069 -0.04816651 0.0805217 0.961045 -0.2644029 1 -6.53881e-5 -4.40045e-4 -1 -5.88542e-5 -4.42895e-4 -0.03556996 0.1375579 0.9898549 -0.05875724 0.998215 -0.01069569 -0.05872774 0.9624948 -0.2648677 0.0584709 0.9982312 -0.01075834 0.08049267 0.9966963 -0.01083844 -0.008582949 0.9972326 -0.07384818 -0.002990305 0.9967172 -0.08090776 -0.008583307 0.9789569 -0.203887 0.05846869 0.9625191 -0.2648367 -0.08058744 0.9966913 -0.01059043 0.03557503 0.1374712 0.9898667</float_array>
          <technique_common>
            <accessor source="#Cube_002-mesh-normals-array" count="56" stride="3">
              <param name="X" type="float"/>
              <param name="Y" type="float"/>
              <param name="Z" type="float"/>
            </accessor>
          </technique_common>
        </source>
        <source id="Cube_002-mesh-map-0">
          <float_array id="Cube_002-mesh-map-0-array" count="564">0.1969069 0.6512876 0.184117 0.6391011 0.1966704 0.63405 0.2730756 0.5550276 0.3547291 0.5443243 0.3500199 0.5835937 0.4373339 0.5354341 0.5149596 0.5323563 0.4373252 0.5437304 0.278215 0.5338697 0.354592 0.536144 0.3547291 0.5443243 0.9749298 0.5963982 0.9350077 0.5864661 0.9746869 0.5905439 0.9839383 0.6603658 0.9759091 0.6554701 0.9840096 0.6529446 0.9759091 0.6554701 0.9827777 0.5987688 0.9840096 0.6529446 0.9754021 0.584868 0.9826484 0.5916513 0.9746869 0.5905439 0.9746869 0.5905439 0.9365494 0.5800306 0.9754021 0.584868 0.9754021 0.584868 0.9652975 0.5041559 0.9861832 0.5093546 0.9342706 0.6655626 0.9759091 0.6554701 0.9756519 0.6615356 0.9826484 0.5916513 0.9749298 0.5963982 0.9746869 0.5905439 0.3630377 0.5860434 0.4255399 0.5442412 0.4289041 0.5864045 0.3664422 0.5447503 0.4230093 0.5363774 0.4255399 0.5442412 0.9358442 0.6722838 0.9756519 0.6615356 0.9763865 0.6674448 0.9763865 0.6674448 0.9839383 0.6603658 0.9847974 0.6675156 0.3615499 0.5369046 0.3547291 0.5443243 0.354592 0.536144 0.3615499 0.5369046 0.3664422 0.5447503 0.3604874 0.5450186 0.4373252 0.5437304 0.4302894 0.5363442 0.4373339 0.5354341 0.4255399 0.5442412 0.4302894 0.5363442 0.4314988 0.5444785 0.4255399 0.5442412 0.435564 0.5854451 0.4289041 0.5864045 0.4314988 0.5444785 0.4422184 0.5838674 0.435564 0.5854451 0.3604874 0.5450186 0.3500199 0.5835937 0.3547291 0.5443243 0.3664422 0.5447503 0.356526 0.5851186 0.3604874 0.5450186 0.1969069 0.9673144 0.184117 0.9795011 0.1789171 0.9673064 0.2757794 0.5260661 0.278215 0.5338697 0.2741024 0.5328703 0.9871952 0.5052925 0.9928855 0.5110317 0.9861832 0.5093546 0.5204952 0.5540535 0.4373252 0.5437304 0.5149596 0.5323563 0.2730756 0.5550276 0.2741024 0.5328703 0.278215 0.5338697 0.965589 0.7515538 0.9763865 0.6674448 0.9875585 0.7460597 0.9875585 0.7460597 0.9847974 0.6675156 0.9944763 0.7443547 0.9861832 0.5093546 0.9834672 0.5848022 0.9754021 0.584868 0.9663231 0.5000666 0.9861832 0.5093546 0.9652975 0.5041559 0.9333201 0.6588369 0.9749298 0.5963982 0.9759091 0.6554701 0.30582 0.8050638 0.3257873 0.8135381 0.3058199 0.8135381 0.1990166 0.8050638 0.1787812 0.8135381 0.1787811 0.8050638 0.3079332 0.6512876 0.1966704 0.63405 0.3081701 0.63405 0.3079332 0.9673144 0.1966705 0.9845521 0.1969069 0.9673144 0.1990166 0.8050638 0.3058199 0.8135381 0.1990166 0.8135381 0.3079332 0.6512876 0.3207235 0.6391011 0.3259235 0.6512957 0.3207236 0.979501 0.3079332 0.9673144 0.3259235 0.9673064 0.30582 0.8050638 0.1969069 0.6512876 0.3079332 0.6512876 0.3257873 0.8050638 0.3079332 0.6512876 0.3259235 0.6512957 0.1787811 0.8050638 0.1969069 0.6512876 0.1990166 0.8050638 0.3058199 0.8135381 0.1969069 0.9673144 0.1990166 0.8135381 0.1969069 0.9673144 0.1787812 0.8135381 0.1990166 0.8135381 0.3257873 0.8135381 0.3079332 0.9673144 0.3058199 0.8135381 0.1969069 0.6512876 0.178917 0.6512956 0.184117 0.6391011 0.2730756 0.5550276 0.278215 0.5338697 0.3547291 0.5443243 0.4373339 0.5354341 0.5132376 0.525528 0.5149596 0.5323563 0.278215 0.5338697 0.2798579 0.5270709 0.354592 0.536144 0.9749298 0.5963982 0.934061 0.5929095 0.9350077 0.5864661 0.9839383 0.6603658 0.9756519 0.6615356 0.9759091 0.6554701 0.9759091 0.6554701 0.9749298 0.5963982 0.9827777 0.5987688 0.9754021 0.584868 0.9834672 0.5848022 0.9826484 0.5916513 0.9746869 0.5905439 0.9350077 0.5864661 0.9365494 0.5800306 0.9754021 0.584868 0.9365494 0.5800306 0.9652975 0.5041559 0.9342706 0.6655626 0.9333201 0.6588369 0.9759091 0.6554701 0.9826484 0.5916513 0.9827777 0.5987688 0.9749298 0.5963982 0.3630377 0.5860434 0.3664422 0.5447503 0.4255399 0.5442412 0.3664422 0.5447503 0.3688107 0.5366731 0.4230093 0.5363774 0.9358442 0.6722838 0.9342706 0.6655626 0.9756519 0.6615356 0.9763865 0.6674448 0.9756519 0.6615356 0.9839383 0.6603658 0.3615499 0.5369046 0.3604874 0.5450186 0.3547291 0.5443243 0.3615499 0.5369046 0.3688107 0.5366731 0.3664422 0.5447503 0.4373252 0.5437304 0.4314988 0.5444785 0.4302894 0.5363442 0.4255399 0.5442412 0.4230093 0.5363774 0.4302894 0.5363442 0.4255399 0.5442412 0.4314988 0.5444785 0.435564 0.5854451 0.4314988 0.5444785 0.4373252 0.5437304 0.4422184 0.5838674 0.3604874 0.5450186 0.356526 0.5851186 0.3500199 0.5835937 0.3664422 0.5447503 0.3630377 0.5860434 0.356526 0.5851186 0.1969069 0.9673144 0.1966705 0.9845521 0.184117 0.9795011 0.2757794 0.5260661 0.2798579 0.5270709 0.278215 0.5338697 0.9871952 0.5052925 0.9939129 0.5070074 0.9928855 0.5110317 0.5204952 0.5540535 0.4422184 0.5838674 0.4373252 0.5437304 0.2730756 0.5550276 0.2689229 0.5540103 0.2741024 0.5328703 0.965589 0.7515538 0.9358442 0.6722838 0.9763865 0.6674448 0.9875585 0.7460597 0.9763865 0.6674448 0.9847974 0.6675156 0.9861832 0.5093546 0.9928855 0.5110317 0.9834672 0.5848022 0.9663231 0.5000666 0.9871952 0.5052925 0.9861832 0.5093546 0.9333201 0.6588369 0.934061 0.5929095 0.9749298 0.5963982 0.30582 0.8050638 0.3257873 0.8050638 0.3257873 0.8135381 0.1990166 0.8050638 0.1990166 0.8135381 0.1787812 0.8135381 0.3079332 0.6512876 0.1969069 0.6512876 0.1966704 0.63405 0.3079332 0.9673144 0.3081701 0.9845521 0.1966705 0.9845521 0.1990166 0.8050638 0.30582 0.8050638 0.3058199 0.8135381 0.3079332 0.6512876 0.3081701 0.63405 0.3207235 0.6391011 0.3207236 0.979501 0.3081701 0.9845521 0.3079332 0.9673144 0.30582 0.8050638 0.1990166 0.8050638 0.1969069 0.6512876 0.3257873 0.8050638 0.30582 0.8050638 0.3079332 0.6512876 0.1787811 0.8050638 0.178917 0.6512956 0.1969069 0.6512876 0.3058199 0.8135381 0.3079332 0.9673144 0.1969069 0.9673144 0.1969069 0.9673144 0.1789171 0.9673064 0.1787812 0.8135381 0.3257873 0.8135381 0.3259235 0.9673064 0.3079332 0.9673144</float_array>
          <technique_common>
            <accessor source="#Cube_002-mesh-map-0-array" count="282" stride="2">
              <param name="S" type="float"/>
              <param name="T" type="float"/>
            </accessor>
          </technique_common>
        </source>
        <vertices id="Cube_002-mesh-vertices">
          <input semantic="POSITION" source="#Cube_002-mesh-positions"/>
        </vertices>
        <triangles material="bug_switchboard-material" count="94">
          <input semantic="VERTEX" source="#Cube_002-mesh-vertices" offset="0"/>
          <input semantic="NORMAL" source="#Cube_002-mesh-normals" offset="1"/>
          <input semantic="TEXCOORD" source="#Cube_002-mesh-map-0" offset="2" set="0"/>
          <p>53 0 0 26 1 1 24 2 2 39 3 3 33 4 4 19 5 5 25 6 6 43 7 7 28 8 8 46 9 9 30 10 10 33 4 11 14 11 12 41 12 13 12 13 14 9 14 15 7 15 16 10 16 17 7 15 18 17 17 19 10 16 20 13 18 21 15 19 22 12 13 23 12 13 24 37 20 25 13 18 26 13 18 27 5 21 28 2 22 29 47 23 30 7 15 31 6 24 32 15 19 33 14 11 34 12 13 35 20 25 36 27 26 37 22 27 38 34 28 39 24 2 40 27 26 41 44 29 42 6 24 43 8 30 44 8 30 45 9 14 46 11 31 47 32 32 48 33 4 49 30 10 50 32 32 51 34 28 52 35 33 53 28 8 54 26 1 55 25 6 56 27 26 57 26 1 58 29 34 59 27 26 60 21 35 61 22 27 62 29 34 63 23 36 64 21 35 65 35 33 66 19 5 67 33 4 68 34 28 69 18 37 70 35 33 71 54 38 72 15 19 73 16 39 74 1 40 75 46 9 76 0 41 77 43 7 78 3 42 79 2 22 80 36 43 81 28 8 82 43 7 83 39 3 84 0 41 85 46 9 86 4 44 87 8 30 88 0 41 89 0 41 90 11 31 91 1 40 92 2 22 93 16 39 94 13 18 95 36 43 96 2 22 97 5 21 98 42 45 99 14 11 100 7 15 101 50 46 102 1 40 103 51 47 104 48 48 105 3 42 106 40 49 107 52 50 108 24 2 109 31 51 110 55 52 111 17 17 112 54 38 113 48 48 114 51 47 115 49 53 116 52 50 117 32 32 118 30 10 119 9 14 120 55 52 121 11 31 122 50 46 123 53 0 124 52 50 125 45 54 126 52 50 127 30 10 128 40 49 129 53 0 130 48 48 131 51 47 132 54 38 133 49 53 134 54 38 135 3 42 136 49 53 137 1 40 138 55 52 139 51 47 140 53 0 141 25 6 142 26 1 143 39 3 144 46 9 145 33 4 146 25 6 147 40 49 148 43 7 149 46 9 150 45 54 151 30 10 152 14 11 153 38 55 154 41 12 155 9 14 156 6 24 157 7 15 158 7 15 159 14 11 160 17 17 161 13 18 162 16 39 163 15 19 164 12 13 165 41 12 166 37 20 167 13 18 168 37 20 169 5 21 170 47 23 171 42 45 172 7 15 173 15 19 174 17 17 175 14 11 176 20 25 177 34 28 178 27 26 179 34 28 180 31 51 181 24 2 182 44 29 183 47 23 184 6 24 185 8 30 186 6 24 187 9 14 188 32 32 189 35 33 190 33 4 191 32 32 192 31 51 193 34 28 194 28 8 195 29 34 196 26 1 197 27 26 198 24 2 199 26 1 200 27 26 201 29 34 202 21 35 203 29 34 204 28 8 205 23 36 206 35 33 207 18 37 208 19 5 209 34 28 210 20 25 211 18 37 212 54 38 213 17 17 214 15 19 215 1 40 216 45 54 217 46 9 218 43 7 219 40 49 220 3 42 221 36 43 222 23 36 223 28 8 224 39 3 225 4 44 226 0 41 227 4 44 228 44 29 229 8 30 230 0 41 231 8 30 232 11 31 233 2 22 234 3 42 235 16 39 236 36 43 237 43 7 238 2 22 239 42 45 240 38 55 241 14 11 242 50 46 243 45 54 244 1 40 245 48 48 246 49 53 247 3 42 248 52 50 249 53 0 250 24 2 251 55 52 252 10 16 253 17 17 254 48 48 255 50 46 256 51 47 257 52 50 258 31 51 259 32 32 260 9 14 261 10 16 262 55 52 263 50 46 264 48 48 265 53 0 266 45 54 267 50 46 268 52 50 269 40 49 270 25 6 271 53 0 272 51 47 273 55 52 274 54 38 275 54 38 276 16 39 277 3 42 278 1 40 279 11 31 280 55 52 281</p>
        </triangles>
      </mesh>
    </geometry>
    <geometry id="Cube_005-mesh" name="Cube.005">
      <mesh>
        <source id="Cube_005-mesh-positions">
          <float_array id="Cube_005-mesh-positions-array" count="168">-0.00750035 0.001284539 2.17501e-4 -0.006837904 0.002410471 5.92541e-5 0.007499575 0.001284539 2.17501e-4 0.006837129 0.002410471 5.92541e-5 -0.00750035 -0.002689719 7.76052e-4 0.007499575 -0.002689719 7.76052e-4 -0.007032275 0.005383193 0.01571571 -0.005871713 0.005504369 0.01616722 -0.007512986 0.005090594 0.01462578 -0.006366848 0.006606221 0.01491671 -0.005199074 0.006735742 0.0153684 -0.0068506 0.006293535 0.01382625 0.007006227 0.005383193 0.01571571 0.007486939 0.005090594 0.01462578 0.005845665 0.005504369 0.01616722 0.006340801 0.006606221 0.01491671 0.006824493 0.006293535 0.01382625 0.005173027 0.006735742 0.0153684 -0.007033944 -0.007181823 -0.01545315 -0.007512986 -0.006875395 -0.01437497 -0.005877435 -0.00730884 -0.01589971 0.007007896 -0.007181823 -0.01545315 0.005851328 -0.00730884 -0.01589971 0.007486939 -0.006875395 -0.01437497 0.005173027 0.00223869 -0.01662969 0.006824493 0.00223869 -0.01502543 0.006340801 0.00223869 -0.01615983 0.005845665 8.3491e-4 -0.01705813 0.007486939 8.62042e-4 -0.01546239 0.007006227 8.42855e-4 -0.01659077 -0.0068506 0.00223869 -0.01502543 -0.005199074 0.00223869 -0.01662969 -0.006366848 0.00223869 -0.01615983 -0.007512986 8.62045e-4 -0.01546239 -0.005871713 8.34912e-4 -0.01705813 -0.007032275 8.42858e-4 -0.01659077 0.007499575 -0.002799391 -4.60719e-6 0.007486939 -0.002646744 0.01571327 0.005851328 -0.002643167 0.0172984 -0.00750035 -0.002799391 -4.60737e-6 0.006837129 0.002300798 -7.21403e-4 0.007007837 -0.002644181 0.01683413 -0.005877435 -0.002643167 0.0172984 0.007499575 0.001174807 -5.63157e-4 -0.007513046 -0.002646744 0.01571327 -0.006837904 0.002300798 -7.21403e-4 -0.00750035 0.001174807 -5.63157e-4 -0.007033944 -0.002644181 0.01683413 -0.005176424 0.00223869 -0.01502543 -0.004980802 0.002300798 -7.21403e-4 -0.004980742 0.002410471 5.92541e-5 -0.005176424 0.006293535 0.01382625 0.005150377 0.00223869 -0.01502543 0.004954695 0.002300798 -7.21403e-4 0.004954695 0.002410471 5.92541e-5 0.005150377 0.006293535 0.01382625</float_array>
          <technique_common>
            <accessor source="#Cube_005-mesh-positions-array" count="56" stride="3">
              <param name="X" type="float"/>
              <param name="Y" type="float"/>
              <param name="Z" type="float"/>
            </accessor>
          </technique_common>
        </source>
        <source id="Cube_005-mesh-normals">
          <float_array id="Cube_005-mesh-normals-array" count="168">0.06585639 0.9978024 -0.00730586 0.01015746 0.9998435 -0.01448959 0.002832293 0.9967141 -0.08095085 -1 6.52455e-5 4.40242e-4 -0.9489016 0.2302786 -0.2157723 -0.9758637 -0.0304802 -0.2162433 0.08708566 0.9961739 -0.007324635 0.9702633 0.2412315 -0.01991647 0.9487472 0.230248 -0.2164826 -0.9702591 0.241316 -0.01907557 -0.08711761 0.9961732 -0.00704348 0.2098526 0.3081841 0.9278925 0.6803861 0.101268 0.7258234 0.6847474 0.374509 0.6251912 -0.01020711 0.9650923 -0.2617114 -0.235648 0.3116981 0.9204968 -0.002902805 0.9804095 -0.196949 0.002902507 0.9804137 -0.1969279 0.9487471 0.2809997 0.1446314 0.01019871 0.9650947 -0.2617027 0.9756152 0.03040397 0.2173724 1 5.86303e-5 4.43239e-4 0.9702684 0.2373589 -0.04732942 -0.6803857 0.1012681 0.7258238 -0.6847178 0.374487 0.6252369 -0.03556853 -0.1407132 -0.9894113 0.2010013 0.198441 -0.9592809 0.0355733 -0.1406117 -0.9894255 -0.1275739 0.1214858 -0.9843608 -0.9758636 0.03030538 0.2162685 -0.9489015 0.2808332 0.1439401 -0.08709967 0.9595504 -0.2677251 -0.01013636 0.9998434 -0.0145086 -0.684718 0.1876412 -0.7042387 0.684747 0.1876749 -0.7042015 0.6802672 -0.102761 -0.725725 0.9756152 -0.03068995 -0.217332 -0.6802675 -0.1027609 -0.7257247 0.06585317 0.9611631 -0.2680093 0.08709532 0.9595888 -0.267589 -0.08056443 0.96102 -0.2644808 -0.9702643 0.2372069 -0.04816651 0.08056336 0.961043 -0.2643976 1 -6.53881e-5 -4.40045e-4 -1 -5.88542e-5 -4.42895e-4 -0.03556996 0.1375579 0.9898549 -0.080599 0.9966906 -0.01056754 -0.05876326 0.962491 -0.2648733 -0.05878633 0.9982139 -0.01064622 0.05842119 0.9625369 -0.2647824 0.08052867 0.9966933 -0.01084947 0.0584315 0.9982332 -0.01078402 -0.06585907 0.961131 -0.2681227 -0.0658611 0.9978035 -0.007125616 -0.00293219 0.9967168 -0.08091396 0.03557503 0.1374712 0.9898667</float_array>
          <technique_common>
            <accessor source="#Cube_005-mesh-normals-array" count="56" stride="3">
              <param name="X" type="float"/>
              <param name="Y" type="float"/>
              <param name="Z" type="float"/>
            </accessor>
          </technique_common>
        </source>
        <source id="Cube_005-mesh-map-0">
          <float_array id="Cube_005-mesh-map-0-array" count="564">0.03691345 0.6512957 0.02411657 0.6391011 0.03666996 0.63405 0.9038426 0.9483873 0.8221881 0.9590841 0.8269006 0.9198151 0.7395827 0.9679677 0.6619568 0.9710392 0.7395921 0.9596714 0.8987014 0.9695448 0.8223245 0.9672645 0.8221881 0.9590841 0.8964773 0.1610856 0.9363999 0.1710153 0.8967205 0.1669399 0.887465 0.09711861 0.8954945 0.1020138 0.8873942 0.1045398 0.8954945 0.1020138 0.8886293 0.1587155 0.8873942 0.1045398 0.8960057 0.1726159 0.888759 0.165833 0.8967205 0.1669399 0.8967205 0.1669399 0.9348587 0.177451 0.8960057 0.1726159 0.8960057 0.1726159 0.9061152 0.2533273 0.8852291 0.24813 0.9371323 0.09191888 0.8954945 0.1020138 0.8957513 0.09594827 0.888759 0.165833 0.8964773 0.1610856 0.8967205 0.1669399 0.8138828 0.9173643 0.7513774 0.9591614 0.7480164 0.916998 0.8104752 0.9586572 0.7539073 0.9670256 0.7513774 0.9591614 0.9355584 0.08519768 0.8957513 0.09594827 0.8950163 0.09003913 0.8950163 0.09003913 0.887465 0.09711861 0.8866055 0.08996886 0.8153669 0.9665032 0.8221881 0.9590841 0.8223245 0.9672645 0.8153669 0.9665032 0.8104752 0.9586572 0.81643 0.9583894 0.7395921 0.9596714 0.7466272 0.9670582 0.7395827 0.9679677 0.7513774 0.9591614 0.7466272 0.9670582 0.7454184 0.9589237 0.7513774 0.9591614 0.7413566 0.9179568 0.7480164 0.916998 0.7454184 0.9589237 0.7347022 0.9195339 0.7413566 0.9179568 0.81643 0.9583894 0.8269006 0.9198151 0.8221881 0.9590841 0.8104752 0.9586572 0.8203945 0.9182896 0.81643 0.9583894 0.03691321 0.9673064 0.02411651 0.9795011 0.01891672 0.9673064 0.9011365 0.9773487 0.8987014 0.9695448 0.9028141 0.9705445 0.8842173 0.2521921 0.8785266 0.2464532 0.8852291 0.24813 0.656423 0.9493416 0.7395921 0.9596714 0.6619568 0.9710392 0.9038426 0.9483873 0.9028141 0.9705445 0.8987014 0.9695448 0.9058088 0.00592947 0.8950163 0.09003913 0.8838396 0.01142489 0.8838396 0.01142489 0.8866055 0.08996886 0.8769219 0.0131303 0.8852291 0.24813 0.8879405 0.1726822 0.8960057 0.1726159 0.9050897 0.2574167 0.8852291 0.24813 0.9061152 0.2533273 0.9380834 0.09864443 0.8964773 0.1610856 0.8954945 0.1020138 0.1657868 0.8050639 0.1458224 0.8135383 0.1458226 0.8050639 0.03691321 0.9673064 0.01878064 0.8135383 0.03901678 0.8135383 0.01878064 0.8050639 0.03691345 0.6512957 0.0390169 0.8050639 0.1657868 0.8135383 0.1479259 0.9673064 0.1458224 0.8135383 0.1458226 0.8050639 0.03901678 0.8135383 0.0390169 0.8050639 0.1657868 0.8050639 0.1479261 0.6512959 0.1659228 0.6512959 0.1479261 0.6512959 0.160723 0.6391012 0.1659228 0.6512959 0.160723 0.9795011 0.1479259 0.9673064 0.1659228 0.9673064 0.1458224 0.8135383 0.03691321 0.9673064 0.03901678 0.8135383 0.0390169 0.8050639 0.01878064 0.8135383 0.01878064 0.8050639 0.0390169 0.8050639 0.1479261 0.6512959 0.1458226 0.8050639 0.03691345 0.6512957 0.1481696 0.6340501 0.1479261 0.6512959 0.1481695 0.9845522 0.03691321 0.9673064 0.1479259 0.9673064 0.03691345 0.6512957 0.01891672 0.6512957 0.02411657 0.6391011 0.9038426 0.9483873 0.8987014 0.9695448 0.8221881 0.9590841 0.7395827 0.9679677 0.6636783 0.9778677 0.6619568 0.9710392 0.8987014 0.9695448 0.8970581 0.9763435 0.8223245 0.9672645 0.8964773 0.1610856 0.9373463 0.1645719 0.9363999 0.1710153 0.887465 0.09711861 0.8957513 0.09594827 0.8954945 0.1020138 0.8954945 0.1020138 0.8964773 0.1610856 0.8886293 0.1587155 0.8960057 0.1726159 0.8879405 0.1726822 0.888759 0.165833 0.8967205 0.1669399 0.9363999 0.1710153 0.9348587 0.177451 0.8960057 0.1726159 0.9348587 0.177451 0.9061152 0.2533273 0.9371323 0.09191888 0.9380834 0.09864443 0.8954945 0.1020138 0.888759 0.165833 0.8886293 0.1587155 0.8964773 0.1610856 0.8138828 0.9173643 0.8104752 0.9586572 0.7513774 0.9591614 0.8104752 0.9586572 0.8081059 0.9667341 0.7539073 0.9670256 0.9355584 0.08519768 0.9371323 0.09191888 0.8957513 0.09594827 0.8950163 0.09003913 0.8957513 0.09594827 0.887465 0.09711861 0.8153669 0.9665032 0.81643 0.9583894 0.8221881 0.9590841 0.8153669 0.9665032 0.8081059 0.9667341 0.8104752 0.9586572 0.7395921 0.9596714 0.7454184 0.9589237 0.7466272 0.9670582 0.7513774 0.9591614 0.7539073 0.9670256 0.7466272 0.9670582 0.7513774 0.9591614 0.7454184 0.9589237 0.7413566 0.9179568 0.7454184 0.9589237 0.7395921 0.9596714 0.7347022 0.9195339 0.81643 0.9583894 0.8203945 0.9182896 0.8269006 0.9198151 0.8104752 0.9586572 0.8138828 0.9173643 0.8203945 0.9182896 0.03691321 0.9673064 0.03666996 0.9845522 0.02411651 0.9795011 0.9011365 0.9773487 0.8970581 0.9763435 0.8987014 0.9695448 0.8842173 0.2521921 0.8774994 0.2504776 0.8785266 0.2464532 0.656423 0.9493416 0.7347022 0.9195339 0.7395921 0.9596714 0.9038426 0.9483873 0.907995 0.9494049 0.9028141 0.9705445 0.9058088 0.00592947 0.9355584 0.08519768 0.8950163 0.09003913 0.8838396 0.01142489 0.8950163 0.09003913 0.8866055 0.08996886 0.8852291 0.24813 0.8785266 0.2464532 0.8879405 0.1726822 0.9050897 0.2574167 0.8842173 0.2521921 0.8852291 0.24813 0.9380834 0.09864443 0.9373463 0.1645719 0.8964773 0.1610856 0.1657868 0.8050639 0.1657868 0.8135383 0.1458224 0.8135383 0.03691321 0.9673064 0.01891672 0.9673064 0.01878064 0.8135383 0.01878064 0.8050639 0.01891672 0.6512957 0.03691345 0.6512957 0.1657868 0.8135383 0.1659228 0.9673064 0.1479259 0.9673064 0.1458226 0.8050639 0.1458224 0.8135383 0.03901678 0.8135383 0.1657868 0.8050639 0.1458226 0.8050639 0.1479261 0.6512959 0.1479261 0.6512959 0.1481696 0.6340501 0.160723 0.6391012 0.160723 0.9795011 0.1481695 0.9845522 0.1479259 0.9673064 0.1458224 0.8135383 0.1479259 0.9673064 0.03691321 0.9673064 0.0390169 0.8050639 0.03901678 0.8135383 0.01878064 0.8135383 0.0390169 0.8050639 0.03691345 0.6512957 0.1479261 0.6512959 0.03691345 0.6512957 0.03666996 0.63405 0.1481696 0.6340501 0.1481695 0.9845522 0.03666996 0.9845522 0.03691321 0.9673064</float_array>
          <technique_common>
            <accessor source="#Cube_005-mesh-map-0-array" count="282" stride="2">
              <param name="S" type="float"/>
              <param name="T" type="float"/>
            </accessor>
          </technique_common>
        </source>
        <vertices id="Cube_005-mesh-vertices">
          <input semantic="POSITION" source="#Cube_005-mesh-positions"/>
        </vertices>
        <triangles material="bug_switchboard-material" count="94">
          <input semantic="VERTEX" source="#Cube_005-mesh-vertices" offset="0"/>
          <input semantic="NORMAL" source="#Cube_005-mesh-normals" offset="1"/>
          <input semantic="TEXCOORD" source="#Cube_005-mesh-map-0" offset="2" set="0"/>
          <p>52 0 0 26 1 1 24 2 2 39 3 3 33 4 4 19 5 5 25 6 6 43 7 7 28 8 8 46 9 9 30 10 10 33 4 11 14 11 12 41 12 13 12 13 14 9 14 15 7 15 16 10 16 17 7 15 18 17 17 19 10 16 20 13 18 21 15 19 22 12 13 23 12 13 24 37 20 25 13 18 26 13 18 27 5 21 28 2 22 29 47 23 30 7 15 31 6 24 32 15 19 33 14 11 34 12 13 35 20 25 36 27 26 37 22 27 38 34 28 39 24 2 40 27 26 41 44 29 42 6 24 43 8 30 44 8 30 45 9 14 46 11 31 47 32 32 48 33 4 49 30 10 50 32 32 51 34 28 52 35 33 53 28 8 54 26 1 55 25 6 56 27 26 57 26 1 58 29 34 59 27 26 60 21 35 61 22 27 62 29 34 63 23 36 64 21 35 65 35 33 66 19 5 67 33 4 68 34 28 69 18 37 70 35 33 71 55 38 72 15 19 73 16 39 74 1 40 75 46 9 76 0 41 77 43 7 78 3 42 79 2 22 80 36 43 81 28 8 82 43 7 83 39 3 84 0 41 85 46 9 86 4 44 87 8 30 88 0 41 89 0 41 90 11 31 91 1 40 92 2 22 93 16 39 94 13 18 95 36 43 96 2 22 97 5 21 98 42 45 99 14 11 100 7 15 101 45 46 102 50 47 103 49 48 104 55 38 105 3 42 106 54 49 107 40 50 108 52 0 109 53 51 110 1 40 111 51 52 112 50 47 113 49 48 114 54 49 115 53 51 116 45 46 117 48 53 118 30 10 119 48 53 120 32 32 121 30 10 122 9 14 123 51 52 124 11 31 125 50 47 126 55 38 127 54 49 128 53 51 129 3 42 130 40 50 131 53 51 132 48 53 133 49 48 134 52 0 135 31 54 136 48 53 137 10 16 138 55 38 139 51 52 140 52 0 141 25 6 142 26 1 143 39 3 144 46 9 145 33 4 146 25 6 147 40 50 148 43 7 149 46 9 150 45 46 151 30 10 152 14 11 153 38 55 154 41 12 155 9 14 156 6 24 157 7 15 158 7 15 159 14 11 160 17 17 161 13 18 162 16 39 163 15 19 164 12 13 165 41 12 166 37 20 167 13 18 168 37 20 169 5 21 170 47 23 171 42 45 172 7 15 173 15 19 174 17 17 175 14 11 176 20 25 177 34 28 178 27 26 179 34 28 180 31 54 181 24 2 182 44 29 183 47 23 184 6 24 185 8 30 186 6 24 187 9 14 188 32 32 189 35 33 190 33 4 191 32 32 192 31 54 193 34 28 194 28 8 195 29 34 196 26 1 197 27 26 198 24 2 199 26 1 200 27 26 201 29 34 202 21 35 203 29 34 204 28 8 205 23 36 206 35 33 207 18 37 208 19 5 209 34 28 210 20 25 211 18 37 212 55 38 213 17 17 214 15 19 215 1 40 216 45 46 217 46 9 218 43 7 219 40 50 220 3 42 221 36 43 222 23 36 223 28 8 224 39 3 225 4 44 226 0 41 227 4 44 228 44 29 229 8 30 230 0 41 231 8 30 232 11 31 233 2 22 234 3 42 235 16 39 236 36 43 237 43 7 238 2 22 239 42 45 240 38 55 241 14 11 242 45 46 243 1 40 244 50 47 245 55 38 246 16 39 247 3 42 248 40 50 249 25 6 250 52 0 251 1 40 252 11 31 253 51 52 254 49 48 255 50 47 256 54 49 257 45 46 258 49 48 259 48 53 260 48 53 261 31 54 262 32 32 263 9 14 264 10 16 265 51 52 266 50 47 267 51 52 268 55 38 269 53 51 270 54 49 271 3 42 272 53 51 273 52 0 274 48 53 275 52 0 276 24 2 277 31 54 278 10 16 279 17 17 280 55 38 281</p>
        </triangles>
      </mesh>
    </geometry>
  </library_geometries>
  <library_visual_scenes>
    <visual_scene id="Scene" name="Scene">
      <node id="bug_switchboard2" name="bug_switchboard2" type="NODE">
        <matrix sid="transform">1 0 0 0 0 1 0 0 0 0 1 0 0 0 0 1</matrix>
        <instance_geometry url="#Cube_007-mesh" name="bug_switchboard2">
          <bind_material>
            <technique_common>
              <instance_material symbol="bug_switchboard-material" target="#bug_switchboard-material">
                <bind_vertex_input semantic="UVMap" input_semantic="TEXCOORD" input_set="0"/>
              </instance_material>
            </technique_common>
          </bind_material>
        </instance_geometry>
      </node>
      <node id="bug_switchboard" name="bug_switchboard" type="NODE">
        <matrix sid="transform">1 0 0 0 0 1 0 0 0 0 1 0 0 0 0 1</matrix>
        <instance_geometry url="#Cube_014-mesh" name="bug_switchboard">
          <bind_material>
            <technique_common>
              <instance_material symbol="bug_switchboard-material" target="#bug_switchboard-material">
                <bind_vertex_input semantic="UVMap" input_semantic="TEXCOORD" input_set="0"/>
              </instance_material>
            </technique_common>
          </bind_material>
        </instance_geometry>
      </node>
      <node id="bug_switchboard_underglow" name="bug_switchboard_underglow" type="NODE">
        <matrix sid="transform">1 0 0 0 0 0.9104564 -0.413605 -0.5579926 0 0.413605 0.9104564 0.8108276 0 0 0 1</matrix>
        <instance_geometry url="#Cube_006-mesh" name="bug_switchboard_underglow">
          <bind_material>
            <technique_common>
              <instance_material symbol="bug_switchboard-material" target="#bug_switchboard-material">
                <bind_vertex_input semantic="UVMap" input_semantic="TEXCOORD" input_set="0"/>
              </instance_material>
            </technique_common>
          </bind_material>
        </instance_geometry>
      </node>
      <node id="bug_switchboard_extlight" name="bug_switchboard_extlight" type="NODE">
        <matrix sid="transform">1 0 0 0 0 0.9104564 -0.413605 -0.5579926 0 0.413605 0.9104564 0.8108276 0 0 0 1</matrix>
        <instance_geometry url="#Cube_003-mesh" name="bug_switchboard_extlight">
          <bind_material>
            <technique_common>
              <instance_material symbol="bug_switchboard-material" target="#bug_switchboard-material">
                <bind_vertex_input semantic="UVMap" input_semantic="TEXCOORD" input_set="0"/>
              </instance_material>
            </technique_common>
          </bind_material>
        </instance_geometry>
      </node>
      <node id="bug_switchboard_siren" name="bug_switchboard_siren" type="NODE">
        <matrix sid="transform">1 0 0 0 0 0.9104564 -0.413605 -0.557993 0 0.413605 0.9104564 0.810828 0 0 0 1</matrix>
        <instance_geometry url="#Cube_002-mesh" name="bug_switchboard_siren">
          <bind_material>
            <technique_common>
              <instance_material symbol="bug_switchboard-material" target="#bug_switchboard-material">
                <bind_vertex_input semantic="UVMap" input_semantic="TEXCOORD" input_set="0"/>
              </instance_material>
            </technique_common>
          </bind_material>
        </instance_geometry>
      </node>
      <node id="bug_switchboard_beacon" name="bug_switchboard_beacon" type="NODE">
        <matrix sid="transform">1 0 0 0 0 0.9104564 -0.413605 -0.557993 0 0.413605 0.9104564 0.810828 0 0 0 1</matrix>
        <instance_geometry url="#Cube_005-mesh" name="bug_switchboard_beacon">
          <bind_material>
            <technique_common>
              <instance_material symbol="bug_switchboard-material" target="#bug_switchboard-material">
                <bind_vertex_input semantic="UVMap" input_semantic="TEXCOORD" input_set="0"/>
              </instance_material>
            </technique_common>
          </bind_material>
        </instance_geometry>
      </node>
    </visual_scene>
  </library_visual_scenes>
  <scene>
    <instance_visual_scene url="#Scene"/>
  </scene>
</COLLADA>