<?xml version="1.0" encoding="utf-8"?>
<COLLADA xmlns="http://www.collada.org/2005/11/COLLADASchema" version="1.4.1" xmlns:xsi="http://www.w3.org/2001/XMLSchema-instance">
  <asset>
    <contributor>
      <author>Blender User</author>
      <authoring_tool>Blender 3.1.0 commit date:2022-03-08, commit time:18:16, hash:c77597cd0e15</authoring_tool>
    </contributor>
    <created>2022-12-16T17:34:36</created>
    <modified>2022-12-16T17:34:36</modified>
    <unit name="meter" meter="1"/>
    <up_axis>Z_UP</up_axis>
  </asset>
  <library_effects>
    <effect id="suctionmount-effect">
      <profile_COMMON>
        <technique sid="common">
          <lambert>
            <emission>
              <color sid="emission">0 0 0 1</color>
            </emission>
            <diffuse>
              <color sid="diffuse">0.8 0.8 0.8 1</color>
            </diffuse>
            <index_of_refraction>
              <float sid="ior">1.45</float>
            </index_of_refraction>
          </lambert>
        </technique>
      </profile_COMMON>
    </effect>
    <effect id="gps-effect">
      <profile_COMMON>
        <technique sid="common">
          <lambert>
            <emission>
              <color sid="emission">0 0 0 1</color>
            </emission>
            <diffuse>
              <color sid="diffuse">0.8 0.8 0.8 1</color>
            </diffuse>
            <index_of_refraction>
              <float sid="ior">1.45</float>
            </index_of_refraction>
          </lambert>
        </technique>
      </profile_COMMON>
    </effect>
    <effect id="screen_gps-effect">
      <profile_COMMON>
        <technique sid="common">
          <lambert>
            <emission>
              <color sid="emission">0 0 0 1</color>
            </emission>
            <diffuse>
              <color sid="diffuse">0 0 0 1</color>
            </diffuse>
            <index_of_refraction>
              <float sid="ior">1.45</float>
            </index_of_refraction>
          </lambert>
        </technique>
      </profile_COMMON>
    </effect>
  </library_effects>
  <library_images/>
  <library_materials>
    <material id="suctionmount-material" name="suctionmount">
      <instance_effect url="#suctionmount-effect"/>
    </material>
    <material id="gps-material" name="gps">
      <instance_effect url="#gps-effect"/>
    </material>
    <material id="screen_gps-material" name="screen_gps">
      <instance_effect url="#screen_gps-effect"/>
    </material>
  </library_materials>
  <library_geometries>
    <geometry id="suctionmount_alt-mesh" name="suctionmount_alt">
      <mesh>
        <source id="suctionmount_alt-mesh-positions">
          <float_array id="suctionmount_alt-mesh-positions-array" count="432">0.6000032 -6.9888 1.749392 0.5196185 -7.157893 1.482571 0.3000032 -7.279479 1.288655 3.19512e-6 -7.323531 1.217992 -0.2999968 -7.279478 1.288656 -0.519612 -7.157893 1.482571 -0.5999969 -6.9888 1.749392 -0.5196122 -6.815863 2.018157 -0.299997 -6.686442 2.215877 2.93583e-6 -6.638401 2.288399 0.3000029 -6.686432 2.215875 0.5196182 -6.815852 2.018157 0.5552787 -5.357674 0.7288275 0.4808859 -5.480451 0.4654092 0.2776409 -5.562953 0.2774108 3.18047e-6 -5.596366 0.2040752 -0.2776347 -5.56299 0.2766878 -0.4808796 -5.480472 0.4649928 -0.5552725 -5.357684 0.7286186 -0.4808797 -5.229325 0.9970523 -0.2776347 -5.13068 1.202391 2.94265e-6 -5.091356 1.286512 0.2776407 -5.13068 1.202386 0.4808858 -5.229324 0.9970539 0.6000031 -3.597105 0.1291563 0.5196184 -3.662291 -0.1680992 0.3000032 -3.708241 -0.3856268 3.19714e-6 -3.724678 -0.4652293 -0.2999968 -3.708208 -0.3852092 -0.5196121 -3.662193 -0.1668461 -0.5999969 -3.597026 0.1301543 -0.5196122 -3.529172 0.4265189 -0.299997 -3.477731 0.6442604 2.94103e-6 -3.458546 0.7239701 0.3000029 -3.477731 0.6442604 0.5196182 -3.529173 0.4265199 0.6000032 -1.922441 0.002702057 0.5196185 -1.918983 -0.2971302 0.3000033 -1.914772 -0.5162776 3.21869e-6 -1.912875 -0.5964171 -0.2999968 -1.914772 -0.5162776 -0.519612 -1.918983 -0.2971302 -0.5999968 -1.922441 0.002701342 -0.5196121 -1.923245 0.3030607 -0.299997 -1.922144 0.5232623 2.96196e-6 -1.921386 0.6039286 0.3000029 -1.922144 0.5232625 0.5196183 -1.923243 0.3030609 2.705014 -8.13625 2.467766 2.612843 -8.484149 1.860214 2.342611 -8.808338 1.294066 1.912734 -9.086721 0.8079026 1.352508 -9.300338 0.4348575 0.7001115 -9.434619 0.2003505 3.44675e-6 -9.480415 0.1203635 -0.7001045 -9.434619 0.2003505 -1.352501 -9.300338 0.434857 -1.912727 -9.086721 0.8079015 -2.342604 -8.808338 1.294066 -2.612836 -8.48415 1.860213 -2.705007 -8.13625 2.467765 -2.612836 -7.788351 3.075317 -2.342605 -7.464172 3.641468 -1.912729 -7.185781 4.127629 -1.352503 -6.972174 4.500677 -0.700106 -6.837892 4.735182 1.98494e-6 -6.792086 4.815168 0.70011 -6.837892 4.735183 1.352507 -6.972174 4.500678 1.912733 -7.185781 4.12763 2.34261 -7.464172 3.64147 2.612842 -7.78836 3.075322 2.705014 -7.722613 2.230909 2.612843 -8.070513 1.623357 2.342611 -8.394692 1.057207 1.912735 -8.673085 0.5710451 1.352508 -8.886691 0.1979975 0.7001115 -9.020975 -0.03650844 3.44675e-6 -9.066779 -0.116494 -0.7001045 -9.020975 -0.03650844 -1.352501 -8.886691 0.1979975 -1.912727 -8.673085 0.5710443 -2.342604 -8.394692 1.057206 -2.612836 -8.070514 1.623356 -2.705007 -7.722613 2.230908 -2.612836 -7.374715 2.83846 -2.342605 -7.050528 3.404608 -1.912729 -6.772144 3.890772 -1.352503 -6.558527 4.263816 -0.700106 -6.424245 4.498323 1.98494e-6 -6.378449 4.578311 0.70011 -6.424245 4.498324 1.352507 -6.558527 4.263817 1.912733 -6.772144 3.890774 2.34261 -7.050527 3.40461 2.612842 -7.374714 2.838462 1.34503 -7.256769 1.964154 1.16483 -7.590942 1.380548 0.6725165 -7.835589 0.9533198 3.35935e-6 -7.925127 0.7969418 -0.67251 -7.835589 0.9533198 -1.164824 -7.590942 1.380547 -1.345023 -7.256769 1.964154 -1.164825 -6.922583 2.54776 -0.6725106 -6.677935 2.974986 2.60296e-6 -6.588398 3.131366 0.672516 -6.677935 2.974987 1.16483 -6.922582 2.54776 1.03407 -6.927989 1.775891 0.8955317 -7.184908 1.327209 0.5170368 -7.372992 0.9987532 3.30413e-6 -7.441834 0.8785297 -0.5170302 -7.372992 0.9987528 -0.8955252 -7.184908 1.327209 -1.034064 -6.92799 1.77589 -0.8955256 -6.671061 2.22457 -0.5170308 -6.482986 2.553029 2.71768e-6 -6.414143 2.673252 0.5170363 -6.482986 2.553028 0.8955314 -6.671061 2.224571 2.083798 -7.418741 2.056905 2.012794 -7.686742 1.588879 1.804622 -7.936473 1.152748 1.473468 -8.150932 0.7782353 1.041901 -8.315487 0.4908608 0.5393291 -8.418933 0.3102099 3.41665e-6 -8.454216 0.2485928 -0.5393221 -8.418933 0.3102099 -1.041894 -8.315487 0.4908608 -1.473462 -8.150932 0.7782347 -1.804615 -7.936473 1.152747 -2.012788 -7.686742 1.588878 -2.083791 -7.418741 2.056904 -2.012788 -7.150739 2.52493 -1.804616 -6.901008 2.961061 -1.473463 -6.68655 3.335573 -1.041895 -6.521993 3.622946 -0.5393232 -6.418548 3.8036 2.27535e-6 -6.383265 3.865217 0.539328 -6.418548 3.803601 1.0419 -6.521993 3.622949 1.473468 -6.686549 3.335575 1.804622 -6.901008 2.961063 2.012794 -7.150739 2.524931</float_array>
          <technique_common>
            <accessor source="#suctionmount_alt-mesh-positions-array" count="144" stride="3">
              <param name="X" type="float"/>
              <param name="Y" type="float"/>
              <param name="Z" type="float"/>
            </accessor>
          </technique_common>
        </source>
        <source id="suctionmount_alt-mesh-normals">
          <float_array id="suctionmount_alt-mesh-normals-array" count="498">0.9997247 0.01810902 -0.01492363 0.8730353 -0.2368567 -0.4262727 0.8616136 -0.2166857 -0.4589875 0.9997741 -0.008874237 -0.01931571 0.5123683 -0.4315512 -0.7424569 0.5031597 -0.366124 -0.7828049 -3.77527e-4 -0.5057672 -0.8626699 0.001234591 -0.4234082 -0.9059383 -0.5113049 -0.432546 -0.7426111 -0.5022367 -0.3667205 -0.7831184 -0.8734789 -0.2376295 -0.4249317 -0.8619031 -0.2161545 -0.4586942 -0.9997211 0.01835757 -0.01486665 -0.9997865 -0.008954465 -0.0186215 -0.8799372 0.2711987 0.3900792 -0.8904613 0.1979257 0.4097614 -0.5278357 0.4666237 0.7096843 -0.5566545 0.3647337 0.7463948 0.001870632 0.5459166 0.8378375 -5.54405e-4 0.4375013 0.8992176 0.5268902 0.4701937 0.7080287 0.5564424 0.35925 0.7492071 0.8794885 0.2723818 0.3902668 0.8906626 0.1956816 0.410401 0.859731 -0.1122524 -0.498259 0.9997192 -0.0153107 -0.01809108 0.4950596 -0.182136 -0.8495543 -9.22172e-5 -0.2070425 -0.9783319 -0.4965695 -0.1814914 -0.8488107 -0.8601481 -0.1119056 -0.4976168 -0.9997414 -0.01487612 -0.01720064 -0.8780324 0.08571976 0.4708623 -0.5168896 0.1659094 0.839821 -0.001553177 0.2005352 0.9796853 0.5171254 0.1695159 0.8389552 0.8787545 0.08709394 0.4692605 0.8585587 -0.03801214 -0.5113044 0.9999022 -9.02715e-4 -0.01396358 0.4913429 -0.06364554 -0.8686378 1.30364e-4 -0.07241278 -0.9973748 -0.4913011 -0.06317675 -0.8686956 -0.8586486 -0.03763663 -0.5111812 -0.9999039 -8.8085e-4 -0.01384103 -0.8712874 0.03752392 0.4893366 -0.5053641 0.0666213 0.8603307 -9.53533e-5 0.07772141 0.9969751 0.5052555 0.06705319 0.8603609 0.8713421 0.03788548 0.4892113 0.7092349 -0.68356 0.1724289 0.8436359 0.3102989 -0.4381703 0.8733942 0.422629 -0.242007 0.7342752 -0.5891065 0.3373329 0.6358765 -0.7715628 0.01875764 0.7563801 0.2056307 -0.6209712 0.5191978 -0.8471225 -0.1132131 0.6175854 0.1157385 -0.7779416 0.3671233 -0.9051123 -0.2144579 0.4366955 0.04677629 -0.8983926 0.1900382 -0.941557 -0.2781296 0.2260499 0.00341624 -0.9741098 1.13809e-6 -0.9539796 -0.299872 1.15606e-6 -0.0113759 -0.9999353 -0.1900389 -0.9415575 -0.2781274 -0.2260505 0.003416538 -0.9741096 -0.3671256 -0.9051118 -0.214456 -0.4366974 0.04677653 -0.8983916 -0.5191961 -0.8471238 -0.1132122 -0.6175827 0.1157387 -0.7779437 -0.6358774 -0.7715621 0.01875865 -0.7563799 0.2056311 -0.6209713 -0.7092311 -0.6835629 0.1724324 -0.8436362 0.3102971 -0.4381708 -0.7342582 -0.5891209 0.3373447 -0.8733943 0.4226288 -0.242007 -0.7092373 -0.4946898 0.5022595 -0.8436337 0.534959 -0.04584068 -0.6358613 -0.4067258 0.6559379 -0.7563795 0.6396349 0.1369575 -0.5191985 -0.3311249 0.7879018 -0.6175839 0.7295171 0.2939302 -0.3671256 -0.2731629 0.8891575 -0.4366977 0.7984892 0.4143791 -0.1900398 -0.2366985 0.9528163 -0.2260491 0.8418467 0.4900978 5.21187e-7 -0.2242379 0.9745345 -5.91639e-7 0.8566324 0.5159274 0.190038 -0.2367004 0.9528161 0.2260487 0.8418459 0.4900997 0.3671262 -0.2731649 0.8891566 0.4366978 0.7984892 0.4143792 0.5191975 -0.3311263 0.787902 0.617583 0.7295168 0.2939329 0.6358708 -0.4067057 0.6559412 0.7563798 0.6396345 0.1369579 0.70923 -0.4946969 0.5022629 0.8436326 0.5349606 -0.04583966 0.4175422 0.6404833 -0.6445462 0.2410699 0.5527836 -0.7976939 -7.98383e-7 0.5206921 -0.8537446 -0.2410683 0.5527822 -0.7976955 -0.417542 0.6404841 -0.6445454 -0.4821537 0.7602657 -0.4353434 -0.4175464 0.8800634 -0.2261496 -0.241066 0.9677595 -0.07299816 -2.54826e-6 0.9998565 -0.01694679 0.2410716 0.9677579 -0.07300144 0.4175456 0.8800652 -0.2261437 0.4821518 0.7602671 -0.4353432 0.366124 0.7542971 -0.5449672 0.3807104 0.8024465 -0.459499 0.329706 0.7078559 -0.6246872 0.2680175 0.6698592 -0.6924272 0.1903537 0.6386129 -0.7456133 0.09810167 0.621113 -0.777557 5.10618e-7 0.6132639 -0.7898781 -0.09810209 0.6211131 -0.7775568 -0.1903545 0.6386126 -0.7456133 -0.2680175 0.669858 -0.6924283 -0.3297068 0.7078559 -0.6246867 -0.3661242 0.7542967 -0.5449676 -0.3807096 0.8024471 -0.4594984 -0.3661182 0.8517939 -0.3747062 -0.3297037 0.8970397 -0.2943049 -0.2680251 0.9362255 -0.2272543 -0.1903579 0.9662837 -0.1733779 -0.09810012 0.9849767 -0.1421179 -1.25459e-6 0.9916297 -0.1291146 0.09810101 0.9849764 -0.1421191 0.1903585 0.9662837 -0.1733767 0.2680228 0.9362266 -0.2272526 0.3297056 0.8970379 -0.2943081 0.3661186 0.8517943 -0.3747048 0.4240757 0.6349707 -0.6457338 0.4896783 0.7566363 -0.4332629 0.2448388 0.5459058 -0.8012745 -3.87888e-7 0.5133048 -0.8582065 -0.2448376 0.5459056 -0.801275 -0.424075 0.6349717 -0.6457332 -0.4896779 0.7566368 -0.4332626 -0.4240793 0.8782973 -0.220796 -0.2448372 0.9673658 -0.06525558 -1.06178e-6 0.9999654 -0.008323371 0.2448386 0.9673653 -0.06525737 0.4240772 0.8782986 -0.2207944 -3.14052e-5 -0.8678034 0.4969079 -9.23687e-6 -0.8678168 0.4968844 -2.30915e-7 -0.8677741 0.496959 -7.29629e-7 -0.8678019 0.4969105 1.01605e-5 -0.8678151 0.4968872 6.46584e-5 -0.8678174 0.4968832 -5.35058e-6 -0.8677967 0.4969195 -1.10841e-5 -0.8677958 0.4969211 1.75499e-5 -0.8677924 0.496927 1.17956e-5 -0.867796 0.4969206 -4.8912e-6 -0.8677977 0.4969177 1.39128e-5 -0.8677799 0.4969488 0 -0.8678331 0.496856 0 -0.8677958 0.496921 -1.43168e-5 -0.8677806 0.4969477 -1.84735e-5 -0.8677924 0.496927 4.25617e-6 -0.8678002 0.4969136 -8.27741e-7 -0.867797 0.4969188 -2.32018e-7 -0.8677986 0.4969161 2.85947e-6 -0.8677969 0.4969191 -1.45925e-5 -0.8677988 0.4969158 6.09625e-5 -0.8677986 0.4969162</float_array>
          <technique_common>
            <accessor source="#suctionmount_alt-mesh-normals-array" count="166" stride="3">
              <param name="X" type="float"/>
              <param name="Y" type="float"/>
              <param name="Z" type="float"/>
            </accessor>
          </technique_common>
        </source>
        <source id="suctionmount_alt-mesh-map-0">
          <float_array id="suctionmount_alt-mesh-map-0-array" count="1560">0.08094394 0.9919508 0.05732715 0.9919508 0.05732715 0.8904028 0.05732715 0.8904028 0.08094394 0.8904028 0.08094394 0.9919508 0.05732715 0.9919508 0.03371053 0.9919508 0.03371053 0.8904028 0.03371053 0.8904028 0.05732715 0.8904028 0.05732715 0.9919508 0.03371053 0.9919508 0.01009374 0.9919508 0.01009374 0.8904028 0.01009374 0.8904028 0.03371053 0.8904028 0.03371053 0.9919508 0.2934947 0.9919508 0.2698779 0.9919508 0.2698779 0.8904028 0.2698779 0.8904028 0.2934947 0.8904028 0.2934947 0.9919508 0.2698779 0.9919508 0.2462612 0.9919508 0.2462612 0.8904028 0.2462612 0.8904028 0.2698779 0.8904028 0.2698779 0.9919508 0.2462612 0.9919508 0.2226444 0.9919508 0.2226444 0.8904028 0.2226444 0.8904028 0.2462612 0.8904028 0.2462612 0.9919508 0.2226444 0.9919508 0.1990275 0.9919508 0.1990275 0.8904028 0.1990275 0.8904028 0.2226444 0.8904028 0.2226444 0.9919508 0.1990275 0.9919508 0.175411 0.9919508 0.175411 0.8904028 0.175411 0.8904028 0.1990275 0.8904028 0.1990275 0.9919508 0.175411 0.9919508 0.1517941 0.9919508 0.1517941 0.8904028 0.1517941 0.8904028 0.175411 0.8904028 0.175411 0.9919508 0.1517941 0.9919508 0.1281774 0.9919508 0.1281774 0.8904028 0.1281774 0.8904028 0.1517941 0.8904028 0.1517941 0.9919508 0.1281774 0.9919508 0.1045608 0.9919508 0.1045608 0.8904028 0.1045608 0.8904028 0.1281774 0.8904028 0.1281774 0.9919508 0.1045608 0.9919508 0.08094394 0.9919508 0.08094394 0.8904028 0.08094394 0.8904028 0.1045608 0.8904028 0.1045608 0.9919508 0.08094394 0.8904028 0.05732715 0.8904028 0.05732715 0.7888533 0.05732715 0.7888533 0.08094394 0.7888533 0.08094394 0.8904028 0.05732715 0.8904028 0.03371053 0.8904028 0.03371053 0.7888533 0.03371053 0.7888533 0.05732715 0.7888533 0.05732715 0.8904028 0.03371053 0.8904028 0.01009374 0.8904028 0.01009374 0.7888533 0.01009374 0.7888533 0.03371053 0.7888533 0.03371053 0.8904028 0.2934947 0.8904028 0.2698779 0.8904028 0.2698779 0.7888533 0.2698779 0.7888533 0.2934947 0.7888533 0.2934947 0.8904028 0.2698779 0.8904028 0.2462612 0.8904028 0.2462612 0.7888533 0.2462612 0.7888533 0.2698779 0.7888533 0.2698779 0.8904028 0.2462612 0.8904028 0.2226444 0.8904028 0.2226444 0.7888533 0.2226444 0.7888533 0.2462612 0.7888533 0.2462612 0.8904028 0.2226444 0.8904028 0.1990275 0.8904028 0.1990275 0.7888533 0.1990275 0.7888533 0.2226444 0.7888533 0.2226444 0.8904028 0.1990275 0.8904028 0.175411 0.8904028 0.175411 0.7888533 0.175411 0.7888533 0.1990275 0.7888533 0.1990275 0.8904028 0.175411 0.8904028 0.1517941 0.8904028 0.1517941 0.7888533 0.1517941 0.7888533 0.175411 0.7888533 0.175411 0.8904028 0.1517941 0.8904028 0.1281774 0.8904028 0.1281774 0.7888533 0.1281774 0.7888533 0.1517941 0.7888533 0.1517941 0.8904028 0.1281774 0.8904028 0.1045608 0.8904028 0.1045608 0.7888533 0.1045608 0.7888533 0.1281774 0.7888533 0.1281774 0.8904028 0.1045608 0.8904028 0.08094394 0.8904028 0.08094394 0.7888533 0.08094394 0.7888533 0.1045608 0.7888533 0.1045608 0.8904028 0.08094394 0.7888533 0.05732715 0.7888533 0.05732715 0.6873053 0.05732715 0.6873053 0.08094394 0.6873053 0.08094394 0.7888533 0.05732715 0.7888533 0.03371053 0.7888533 0.03371053 0.6873053 0.03371053 0.6873053 0.05732715 0.6873053 0.05732715 0.7888533 0.03371053 0.7888533 0.01009374 0.7888533 0.01009374 0.6873053 0.01009374 0.6873053 0.03371053 0.6873053 0.03371053 0.7888533 0.2934947 0.7888533 0.2698779 0.7888533 0.2698779 0.6873053 0.2698779 0.6873053 0.2934947 0.6873053 0.2934947 0.7888533 0.2698779 0.7888533 0.2462612 0.7888533 0.2462612 0.6873053 0.2462612 0.6873053 0.2698779 0.6873053 0.2698779 0.7888533 0.2462612 0.7888533 0.2226444 0.7888533 0.2226444 0.6873053 0.2226444 0.6873053 0.2462612 0.6873053 0.2462612 0.7888533 0.2226444 0.7888533 0.1990275 0.7888533 0.1990275 0.6873053 0.1990275 0.6873053 0.2226444 0.6873053 0.2226444 0.7888533 0.1990275 0.7888533 0.175411 0.7888533 0.175411 0.6873053 0.175411 0.6873053 0.1990275 0.6873053 0.1990275 0.7888533 0.175411 0.7888533 0.1517941 0.7888533 0.1517941 0.6873053 0.1517941 0.6873053 0.175411 0.6873053 0.175411 0.7888533 0.1517941 0.7888533 0.1281774 0.7888533 0.1281774 0.6873053 0.1281774 0.6873053 0.1517941 0.6873053 0.1517941 0.7888533 0.1281774 0.7888533 0.1045608 0.7888533 0.1045608 0.6873053 0.1045608 0.6873053 0.1281774 0.6873053 0.1281774 0.7888533 0.1045608 0.7888533 0.08094394 0.7888533 0.08094394 0.6873053 0.08094394 0.6873053 0.1045608 0.6873053 0.1045608 0.7888533 0.6790907 0.01458138 0.6790907 0.04628509 0.6320372 0.04628509 0.6320372 0.04628509 0.6320372 0.01458138 0.6790907 0.01458138 0.7261931 0.01458138 0.7261931 0.04628509 0.6790907 0.04628509 0.6790907 0.04628509 0.6790907 0.01458138 0.7261931 0.01458138 0.7732956 0.01458138 0.7732956 0.04628509 0.7261931 0.04628509 0.7261931 0.04628509 0.7261931 0.01458138 0.7732956 0.01458138 0.8203984 0.01458138 0.8203984 0.04628509 0.7732956 0.04628509 0.7732956 0.04628509 0.7732956 0.01458138 0.8203984 0.01458138 0.8675009 0.01458138 0.8675009 0.04628503 0.8203984 0.04628509 0.8203984 0.04628509 0.8203984 0.01458138 0.8675009 0.01458138 0.9146034 0.01458132 0.9146034 0.04628509 0.8675009 0.04628503 0.8675009 0.04628503 0.8675009 0.01458138 0.9146034 0.01458132 0.8674979 0.01458138 0.8674979 0.04628509 0.9146004 0.04628509 0.9146004 0.04628509 0.9146004 0.01458132 0.8674979 0.01458138 0.8203955 0.01458138 0.8203955 0.04628515 0.8674979 0.04628509 0.8674979 0.04628509 0.8674979 0.01458138 0.8203955 0.01458138 0.7732929 0.01458138 0.7732929 0.04628509 0.8203955 0.04628515 0.8203955 0.04628515 0.8203955 0.01458138 0.7732929 0.01458138 0.7261901 0.01458138 0.7261901 0.04628509 0.7732929 0.04628509 0.7732929 0.04628509 0.7732929 0.01458138 0.7261901 0.01458138 0.6790877 0.01458138 0.6790875 0.04628503 0.7261901 0.04628509 0.7261901 0.04628509 0.7261901 0.01458138 0.6790877 0.01458138 0.6319849 0.01458138 0.6319849 0.04628509 0.6790875 0.04628503 0.6790875 0.04628503 0.6790877 0.01458138 0.6319849 0.01458138 0.5848823 0.01458144 0.5848823 0.04628509 0.6319849 0.04628509 0.6319849 0.04628509 0.6319849 0.01458138 0.5848823 0.01458144 0.5377798 0.01458144 0.5377798 0.04628509 0.5848823 0.04628509 0.5848823 0.04628509 0.5848823 0.01458144 0.5377798 0.01458144 0.4906773 0.01458138 0.4906773 0.04628515 0.5377798 0.04628509 0.5377798 0.04628509 0.5377798 0.01458144 0.4906773 0.01458138 0.4435748 0.01458138 0.4435748 0.04628509 0.4906773 0.04628515 0.4906773 0.04628515 0.4906773 0.01458138 0.4435748 0.01458138 0.3964723 0.01458138 0.3964723 0.04628509 0.4435748 0.04628509 0.4435748 0.04628509 0.4435748 0.01458138 0.3964723 0.01458138 0.3493698 0.01458138 0.3493698 0.04628503 0.3964723 0.04628509 0.3964723 0.04628509 0.3964723 0.01458138 0.3493698 0.01458138 0.3965736 0.01458138 0.3965736 0.04628509 0.349471 0.04628503 0.349471 0.04628503 0.349471 0.01458138 0.3965736 0.01458138 0.4436759 0.01458138 0.4436759 0.04628509 0.3965736 0.04628509 0.3965736 0.04628509 0.3965736 0.01458138 0.4436759 0.01458138 0.4907785 0.01458132 0.4907785 0.04628509 0.4436759 0.04628509 0.4436759 0.04628509 0.4436759 0.01458138 0.4907785 0.01458132 0.5378808 0.01458138 0.5378808 0.04628509 0.4907785 0.04628509 0.4907785 0.04628509 0.4907785 0.01458132 0.5378808 0.01458138 0.5849832 0.01458138 0.5849832 0.04628509 0.5378808 0.04628509 0.5378808 0.04628509 0.5378808 0.01458138 0.5849832 0.01458138 0.6320372 0.01458138 0.6320372 0.04628509 0.5849832 0.04628509 0.5849832 0.04628509 0.5849832 0.01458138 0.6320372 0.01458138 0.1351636 0.1579276 0.157885 0.1352138 0.1889212 0.1269014 0.1889212 0.1269014 0.219956 0.1352178 0.2426742 0.1579357 0.2426742 0.1579357 0.2509868 0.1889713 0.2426709 0.2200083 0.1889212 0.1269014 0.2426742 0.1579357 0.2426709 0.2200083 0.2426709 0.2200083 0.2199607 0.2427247 0.18891 0.2510127 0.18891 0.2510127 0.1578616 0.2427166 0.1351557 0.2199974 0.2426709 0.2200083 0.18891 0.2510127 0.1351557 0.2199974 0.1889212 0.1269014 0.2426709 0.2200083 0.1351557 0.2199974 0.1351636 0.1579276 0.1889212 0.1269014 0.1351557 0.2199974 0.1268457 0.1889604 0.1351636 0.1579276 0.1351557 0.2199974 0.01532888 0.1424348 0.0578171 0.1538256 0.05351501 0.1889523 0.05351501 0.1889523 0.009271919 0.1889496 0.01532888 0.1424348 0.03333979 0.09912335 0.07165622 0.1212549 0.0578171 0.1538256 0.0578171 0.1538256 0.01532888 0.1424348 0.03333979 0.09912335 0.06182736 0.06186985 0.09294408 0.09299224 0.07165622 0.1212549 0.07165622 0.1212549 0.03333979 0.09912335 0.06182736 0.06186985 0.09911489 0.0334199 0.1212226 0.07172006 0.09294408 0.09299224 0.09294408 0.09299224 0.06182736 0.06186985 0.09911489 0.0334199 0.1424183 0.01539713 0.1537961 0.05788058 0.1212226 0.07172006 0.1212226 0.07172006 0.09911489 0.0334199 0.1424183 0.01539713 0.18892 0.009340703 0.18892 0.05358195 0.1537961 0.05788058 0.1537961 0.05788058 0.1424183 0.01539713 0.18892 0.009340703 0.2354215 0.01539856 0.2240442 0.05788189 0.18892 0.05358195 0.18892 0.05358195 0.18892 0.009340703 0.2354215 0.01539856 0.2787248 0.03342264 0.2566171 0.07172268 0.2240442 0.05788189 0.2240442 0.05788189 0.2354215 0.01539856 0.2787248 0.03342264 0.3160122 0.06187391 0.2848955 0.09299641 0.2566171 0.07172268 0.2566171 0.07172268 0.2787248 0.03342264 0.3160122 0.06187391 0.3444985 0.09913152 0.3061815 0.1212617 0.2848955 0.09299641 0.2848955 0.09299641 0.3160122 0.06187391 0.3444985 0.09913152 0.3625056 0.1424484 0.3200177 0.1538365 0.3061815 0.1212617 0.3061815 0.1212617 0.3444985 0.09913152 0.3625056 0.1424484 0.3685569 0.1889659 0.3243151 0.1889659 0.3200177 0.1538365 0.3200177 0.1538365 0.3625056 0.1424484 0.3685569 0.1889659 0.3625 0.235482 0.3200144 0.2240965 0.3243151 0.1889659 0.3243151 0.1889659 0.3685569 0.1889659 0.3625 0.235482 0.3444845 0.278796 0.306173 0.2566727 0.3200144 0.2240965 0.3200144 0.2240965 0.3625 0.235482 0.3444845 0.278796 0.3159776 0.3160523 0.2848872 0.2849502 0.306173 0.2566727 0.306173 0.2566727 0.3444845 0.278796 0.3159776 0.3160523 0.2787091 0.3445484 0.256596 0.3062374 0.2848872 0.2849502 0.2848872 0.2849502 0.3159776 0.3160523 0.2787091 0.3445484 0.2353914 0.3625576 0.2239873 0.3200525 0.256596 0.3062374 0.256596 0.3062374 0.2787091 0.3445484 0.2353914 0.3625576 0.1888959 0.3685841 0.1888982 0.3243443 0.2239873 0.3200525 0.2239873 0.3200525 0.2353914 0.3625576 0.1888959 0.3685841 0.1424016 0.3625454 0.1538116 0.320043 0.1888982 0.3243443 0.1888982 0.3243443 0.1888959 0.3685841 0.1424016 0.3625454 0.09909009 0.3445267 0.1212087 0.3062198 0.1538116 0.320043 0.1538116 0.320043 0.1424016 0.3625454 0.09909009 0.3445267 0.06182992 0.316028 0.09292417 0.2849272 0.1212087 0.3062198 0.1212087 0.3062198 0.09909009 0.3445267 0.06182992 0.316028 0.03333097 0.2787717 0.07164537 0.256651 0.09292417 0.2849272 0.09292417 0.2849272 0.06182992 0.316028 0.03333097 0.2787717 0.01532226 0.2354616 0.0578103 0.2240789 0.07164537 0.256651 0.07164537 0.256651 0.03333097 0.2787717 0.01532226 0.2354616 0.009271919 0.1889496 0.05351501 0.1889523 0.0578103 0.2240789 0.0578103 0.2240789 0.01532226 0.2354616 0.009271919 0.1889496 0.1120189 0.1445645 0.1351636 0.1579276 0.1268457 0.1889604 0.1268457 0.1889604 0.1001205 0.1889563 0.1120189 0.1445645 0.1445227 0.1120752 0.157885 0.1352138 0.1351636 0.1579276 0.1351636 0.1579276 0.1120189 0.1445645 0.1445227 0.1120752 0.1889207 0.1001835 0.1889212 0.1269014 0.157885 0.1352138 0.157885 0.1352138 0.1445227 0.1120752 0.1889207 0.1001835 0.2333181 0.1120779 0.219956 0.1352178 0.1889212 0.1269014 0.1889212 0.1269014 0.1889207 0.1001835 0.2333181 0.1120779 0.2658188 0.1445713 0.2426742 0.1579357 0.219956 0.1352178 0.219956 0.1352178 0.2333181 0.1120779 0.2658188 0.1445713 0.2777108 0.1889685 0.2509868 0.1889713 0.2426742 0.1579357 0.2426742 0.1579357 0.2658188 0.1445713 0.2777108 0.1889685 0.2658167 0.2333699 0.2426709 0.2200083 0.2509868 0.1889713 0.2509868 0.1889713 0.2777108 0.1889685 0.2658167 0.2333699 0.2333403 0.2658837 0.2199607 0.2427247 0.2426709 0.2200083 0.2426709 0.2200083 0.2658167 0.2333699 0.2333403 0.2658837 0.1889032 0.2776912 0.18891 0.2510127 0.2199607 0.2427247 0.2199607 0.2427247 0.2333403 0.2658837 0.1889032 0.2776912 0.1444728 0.2658701 0.1578616 0.2427166 0.18891 0.2510127 0.18891 0.2510127 0.1889032 0.2776912 0.1444728 0.2658701 0.1120062 0.2333536 0.1351557 0.2199974 0.1578616 0.2427166 0.1578616 0.2427166 0.1444728 0.2658701 0.1120062 0.2333536 0.1001205 0.1889563 0.1268457 0.1889604 0.1351557 0.2199974 0.1351557 0.2199974 0.1120062 0.2333536 0.1001205 0.1889563 0.0578171 0.1538256 0.1001205 0.1889563 0.05351501 0.1889523 0.09294408 0.09299224 0.1120189 0.1445645 0.07165622 0.1212549 0.1537961 0.05788058 0.1445227 0.1120752 0.1212226 0.07172006 0.2240442 0.05788189 0.1889207 0.1001835 0.18892 0.05358195 0.2848955 0.09299641 0.2333181 0.1120779 0.2566171 0.07172268 0.3200177 0.1538365 0.2658188 0.1445713 0.3061815 0.1212617 0.3200144 0.2240965 0.2777108 0.1889685 0.3243151 0.1889659 0.2848872 0.2849502 0.2658167 0.2333699 0.306173 0.2566727 0.2239873 0.3200525 0.2333403 0.2658837 0.256596 0.3062374 0.1538116 0.320043 0.1889032 0.2776912 0.1888982 0.3243443 0.09292417 0.2849272 0.1444728 0.2658701 0.1212087 0.3062198 0.0578103 0.2240789 0.1120062 0.2333536 0.07164537 0.256651 0.9782166 0.2276102 0.9654663 0.2583918 0.9451838 0.2848231 0.9451838 0.2848231 0.9187508 0.3051063 0.8879689 0.3178571 0.8879689 0.3178571 0.8549364 0.3222055 0.8219035 0.3178571 0.9451838 0.2848231 0.8879689 0.3178571 0.8219035 0.3178571 0.8219035 0.3178571 0.7911216 0.3051063 0.764689 0.2848231 0.764689 0.2848231 0.7444062 0.2583918 0.7316561 0.2276102 0.8219035 0.3178571 0.764689 0.2848231 0.7316561 0.2276102 0.7316561 0.2276102 0.7273072 0.1945762 0.7316561 0.161544 0.7316561 0.161544 0.7444062 0.1307623 0.764689 0.1043292 0.7316561 0.2276102 0.7316561 0.161544 0.764689 0.1043292 0.8219035 0.3178571 0.7316561 0.2276102 0.764689 0.1043292 0.764689 0.1043292 0.7911218 0.084046 0.8219035 0.07129704 0.8219035 0.07129704 0.8549364 0.06694674 0.8879693 0.07129704 0.764689 0.1043292 0.8219035 0.07129704 0.8879693 0.07129704 0.8879693 0.07129704 0.9187508 0.084046 0.9451838 0.1043292 0.9451838 0.1043292 0.9654665 0.1307623 0.9782166 0.161544 0.8879693 0.07129704 0.9451838 0.1043292 0.9782166 0.161544 0.764689 0.1043292 0.8879693 0.07129704 0.9782166 0.161544 0.8219035 0.3178571 0.764689 0.1043292 0.9782166 0.161544 0.9451838 0.2848231 0.8219035 0.3178571 0.9782166 0.161544 0.9782166 0.2276102 0.9451838 0.2848231 0.9782166 0.161544 0.9825655 0.1945762 0.9782166 0.2276102 0.9782166 0.161544 0.0578171 0.1538256 0.07165622 0.1212549 0.1120189 0.1445645 0.0578171 0.1538256 0.1120189 0.1445645 0.1001205 0.1889563 0.09294408 0.09299224 0.1212226 0.07172006 0.1445227 0.1120752 0.09294408 0.09299224 0.1445227 0.1120752 0.1120189 0.1445645 0.1537961 0.05788058 0.18892 0.05358195 0.1889207 0.1001835 0.1537961 0.05788058 0.1889207 0.1001835 0.1445227 0.1120752 0.2240442 0.05788189 0.2566171 0.07172268 0.2333181 0.1120779 0.2240442 0.05788189 0.2333181 0.1120779 0.1889207 0.1001835 0.2848955 0.09299641 0.3061815 0.1212617 0.2658188 0.1445713 0.2848955 0.09299641 0.2658188 0.1445713 0.2333181 0.1120779 0.3200177 0.1538365 0.3243151 0.1889659 0.2777108 0.1889685 0.3200177 0.1538365 0.2777108 0.1889685 0.2658188 0.1445713 0.3200144 0.2240965 0.306173 0.2566727 0.2658167 0.2333699 0.3200144 0.2240965 0.2658167 0.2333699 0.2777108 0.1889685 0.2848872 0.2849502 0.256596 0.3062374 0.2333403 0.2658837 0.2848872 0.2849502 0.2333403 0.2658837 0.2658167 0.2333699 0.2239873 0.3200525 0.1888982 0.3243443 0.1889032 0.2776912 0.2239873 0.3200525 0.1889032 0.2776912 0.2333403 0.2658837 0.1538116 0.320043 0.1212087 0.3062198 0.1444728 0.2658701 0.1538116 0.320043 0.1444728 0.2658701 0.1889032 0.2776912 0.09292417 0.2849272 0.07164537 0.256651 0.1120062 0.2333536 0.09292417 0.2849272 0.1120062 0.2333536 0.1444728 0.2658701 0.0578103 0.2240789 0.05351501 0.1889523 0.1001205 0.1889563 0.0578103 0.2240789 0.1001205 0.1889563 0.1120062 0.2333536</float_array>
          <technique_common>
            <accessor source="#suctionmount_alt-mesh-map-0-array" count="780" stride="2">
              <param name="S" type="float"/>
              <param name="T" type="float"/>
            </accessor>
          </technique_common>
        </source>
        <vertices id="suctionmount_alt-mesh-vertices">
          <input semantic="POSITION" source="#suctionmount_alt-mesh-positions"/>
        </vertices>
        <triangles material="suctionmount-material" count="260">
          <input semantic="VERTEX" source="#suctionmount_alt-mesh-vertices" offset="0"/>
          <input semantic="NORMAL" source="#suctionmount_alt-mesh-normals" offset="1"/>
          <input semantic="TEXCOORD" source="#suctionmount_alt-mesh-map-0" offset="2" set="0"/>
          <p>0 0 0 1 1 1 13 2 2 13 2 3 12 3 4 0 0 5 1 1 6 2 4 7 14 5 8 14 5 9 13 2 10 1 1 11 2 4 12 3 6 13 15 7 14 15 7 15 14 5 16 2 4 17 3 6 18 4 8 19 16 9 20 16 9 21 15 7 22 3 6 23 4 8 24 5 10 25 17 11 26 17 11 27 16 9 28 4 8 29 5 10 30 6 12 31 18 13 32 18 13 33 17 11 34 5 10 35 6 12 36 7 14 37 19 15 38 19 15 39 18 13 40 6 12 41 7 14 42 8 16 43 20 17 44 20 17 45 19 15 46 7 14 47 8 16 48 9 18 49 21 19 50 21 19 51 20 17 52 8 16 53 9 18 54 10 20 55 22 21 56 22 21 57 21 19 58 9 18 59 10 20 60 11 22 61 23 23 62 23 23 63 22 21 64 10 20 65 11 22 66 0 0 67 12 3 68 12 3 69 23 23 70 11 22 71 12 3 72 13 2 73 25 24 74 25 24 75 24 25 76 12 3 77 13 2 78 14 5 79 26 26 80 26 26 81 25 24 82 13 2 83 14 5 84 15 7 85 27 27 86 27 27 87 26 26 88 14 5 89 15 7 90 16 9 91 28 28 92 28 28 93 27 27 94 15 7 95 16 9 96 17 11 97 29 29 98 29 29 99 28 28 100 16 9 101 17 11 102 18 13 103 30 30 104 30 30 105 29 29 106 17 11 107 18 13 108 19 15 109 31 31 110 31 31 111 30 30 112 18 13 113 19 15 114 20 17 115 32 32 116 32 32 117 31 31 118 19 15 119 20 17 120 21 19 121 33 33 122 33 33 123 32 32 124 20 17 125 21 19 126 22 21 127 34 34 128 34 34 129 33 33 130 21 19 131 22 21 132 23 23 133 35 35 134 35 35 135 34 34 136 22 21 137 23 23 138 12 3 139 24 25 140 24 25 141 35 35 142 23 23 143 24 25 144 25 24 145 37 36 146 37 36 147 36 37 148 24 25 149 25 24 150 26 26 151 38 38 152 38 38 153 37 36 154 25 24 155 26 26 156 27 27 157 39 39 158 39 39 159 38 38 160 26 26 161 27 27 162 28 28 163 40 40 164 40 40 165 39 39 166 27 27 167 28 28 168 29 29 169 41 41 170 41 41 171 40 40 172 28 28 173 29 29 174 30 30 175 42 42 176 42 42 177 41 41 178 29 29 179 30 30 180 31 31 181 43 43 182 43 43 183 42 42 184 30 30 185 31 31 186 32 32 187 44 44 188 44 44 189 43 43 190 31 31 191 32 32 192 33 33 193 45 45 194 45 45 195 44 44 196 32 32 197 33 33 198 34 34 199 46 46 200 46 46 201 45 45 202 33 33 203 34 34 204 35 35 205 47 47 206 47 47 207 46 46 208 34 34 209 35 35 210 24 25 211 36 37 212 36 37 213 47 47 214 35 35 215 49 48 216 73 49 217 72 50 218 72 50 219 48 51 220 49 48 221 50 52 222 74 53 223 73 49 224 73 49 225 49 48 226 50 52 227 51 54 228 75 55 229 74 53 230 74 53 231 50 52 232 51 54 233 52 56 234 76 57 235 75 55 236 75 55 237 51 54 238 52 56 239 53 58 240 77 59 241 76 57 242 76 57 243 52 56 244 53 58 245 54 60 246 78 61 247 77 59 248 77 59 249 53 58 250 54 60 251 55 62 252 79 63 253 78 61 254 78 61 255 54 60 256 55 62 257 56 64 258 80 65 259 79 63 260 79 63 261 55 62 262 56 64 263 57 66 264 81 67 265 80 65 266 80 65 267 56 64 268 57 66 269 58 68 270 82 69 271 81 67 272 81 67 273 57 66 274 58 68 275 59 70 276 83 71 277 82 69 278 82 69 279 58 68 280 59 70 281 60 72 282 84 73 283 83 71 284 83 71 285 59 70 286 60 72 287 61 74 288 85 75 289 84 73 290 84 73 291 60 72 292 61 74 293 62 76 294 86 77 295 85 75 296 85 75 297 61 74 298 62 76 299 63 78 300 87 79 301 86 77 302 86 77 303 62 76 304 63 78 305 64 80 306 88 81 307 87 79 308 87 79 309 63 78 310 64 80 311 65 82 312 89 83 313 88 81 314 88 81 315 64 80 316 65 82 317 66 84 318 90 85 319 89 83 320 89 83 321 65 82 322 66 84 323 67 86 324 91 87 325 90 85 326 90 85 327 66 84 328 67 86 329 68 88 330 92 89 331 91 87 332 91 87 333 67 86 334 68 88 335 69 90 336 93 91 337 92 89 338 92 89 339 68 88 340 69 90 341 70 92 342 94 93 343 93 91 344 93 91 345 69 90 346 70 92 347 71 94 348 95 95 349 94 93 350 94 93 351 70 92 352 71 94 353 48 51 354 72 50 355 95 95 356 95 95 357 71 94 358 48 51 359 109 96 360 110 97 361 111 98 362 111 98 363 112 99 364 113 100 365 113 100 366 114 101 367 115 102 368 111 98 369 113 100 370 115 102 371 115 102 372 116 103 373 117 104 374 117 104 375 118 105 376 119 106 377 115 102 378 117 104 379 119 106 380 111 98 381 115 102 382 119 106 383 109 96 384 111 98 385 119 106 386 108 107 387 109 96 388 119 106 389 73 49 390 121 108 391 120 109 392 120 109 393 72 50 394 73 49 395 74 53 396 122 110 397 121 108 398 121 108 399 73 49 400 74 53 401 75 55 402 123 111 403 122 110 404 122 110 405 74 53 406 75 55 407 76 57 408 124 112 409 123 111 410 123 111 411 75 55 412 76 57 413 77 59 414 125 113 415 124 112 416 124 112 417 76 57 418 77 59 419 78 61 420 126 114 421 125 113 422 125 113 423 77 59 424 78 61 425 79 63 426 127 115 427 126 114 428 126 114 429 78 61 430 79 63 431 80 65 432 128 116 433 127 115 434 127 115 435 79 63 436 80 65 437 81 67 438 129 117 439 128 116 440 128 116 441 80 65 442 81 67 443 82 69 444 130 118 445 129 117 446 129 117 447 81 67 448 82 69 449 83 71 450 131 119 451 130 118 452 130 118 453 82 69 454 83 71 455 84 73 456 132 120 457 131 119 458 131 119 459 83 71 460 84 73 461 85 75 462 133 121 463 132 120 464 132 120 465 84 73 466 85 75 467 86 77 468 134 122 469 133 121 470 133 121 471 85 75 472 86 77 473 87 79 474 135 123 475 134 122 476 134 122 477 86 77 478 87 79 479 88 81 480 136 124 481 135 123 482 135 123 483 87 79 484 88 81 485 89 83 486 137 125 487 136 124 488 136 124 489 88 81 490 89 83 491 90 85 492 138 126 493 137 125 494 137 125 495 89 83 496 90 85 497 91 87 498 139 127 499 138 126 500 138 126 501 90 85 502 91 87 503 92 89 504 140 128 505 139 127 506 139 127 507 91 87 508 92 89 509 93 91 510 141 129 511 140 128 512 140 128 513 92 89 514 93 91 515 94 93 516 142 130 517 141 129 518 141 129 519 93 91 520 94 93 521 95 95 522 143 131 523 142 130 524 142 130 525 94 93 526 95 95 527 72 50 528 120 109 529 143 131 530 143 131 531 95 95 532 72 50 533 97 132 534 109 96 535 108 107 536 108 107 537 96 133 538 97 132 539 98 134 540 110 97 541 109 96 542 109 96 543 97 132 544 98 134 545 99 135 546 111 98 547 110 97 548 110 97 549 98 134 550 99 135 551 100 136 552 112 99 553 111 98 554 111 98 555 99 135 556 100 136 557 101 137 558 113 100 559 112 99 560 112 99 561 100 136 562 101 137 563 102 138 564 114 101 565 113 100 566 113 100 567 101 137 568 102 138 569 103 139 570 115 102 571 114 101 572 114 101 573 102 138 574 103 139 575 104 140 576 116 103 577 115 102 578 115 102 579 103 139 580 104 140 581 105 141 582 117 104 583 116 103 584 116 103 585 104 140 586 105 141 587 106 142 588 118 105 589 117 104 590 117 104 591 105 141 592 106 142 593 107 143 594 119 106 595 118 105 596 118 105 597 106 142 598 107 143 599 96 133 600 108 107 601 119 106 602 119 106 603 107 143 604 96 133 605 121 108 606 96 133 607 120 109 608 123 111 609 97 132 610 122 110 611 125 113 612 98 134 613 124 112 614 127 115 615 99 135 616 126 114 617 129 117 618 100 136 619 128 116 620 131 119 621 101 137 622 130 118 623 133 121 624 102 138 625 132 120 626 135 123 627 103 139 628 134 122 629 137 125 630 104 140 631 136 124 632 139 127 633 105 141 634 138 126 635 141 129 636 106 142 637 140 128 638 143 131 639 107 143 640 142 130 641 71 144 642 70 144 643 69 144 644 69 145 645 68 145 646 67 145 647 67 146 648 66 146 649 65 146 650 69 147 651 67 147 652 65 147 653 65 148 654 64 148 655 63 148 656 63 149 657 62 149 658 61 149 659 65 150 660 63 150 661 61 150 662 61 151 663 60 151 664 59 151 665 59 152 666 58 152 667 57 152 668 61 153 669 59 153 670 57 153 671 65 154 672 61 154 673 57 154 674 57 155 675 56 155 676 55 155 677 55 156 678 54 156 679 53 156 680 57 157 681 55 157 682 53 157 683 53 158 684 52 158 685 51 158 686 51 159 687 50 159 688 49 159 689 53 160 690 51 160 691 49 160 692 57 161 693 53 161 694 49 161 695 65 162 696 57 162 697 49 162 698 69 163 699 65 163 700 49 163 701 71 164 702 69 164 703 49 164 704 48 165 705 71 165 706 49 165 707 121 108 708 122 110 709 97 132 710 121 108 711 97 132 712 96 133 713 123 111 714 124 112 715 98 134 716 123 111 717 98 134 718 97 132 719 125 113 720 126 114 721 99 135 722 125 113 723 99 135 724 98 134 725 127 115 726 128 116 727 100 136 728 127 115 729 100 136 730 99 135 731 129 117 732 130 118 733 101 137 734 129 117 735 101 137 736 100 136 737 131 119 738 132 120 739 102 138 740 131 119 741 102 138 742 101 137 743 133 121 744 134 122 745 103 139 746 133 121 747 103 139 748 102 138 749 135 123 750 136 124 751 104 140 752 135 123 753 104 140 754 103 139 755 137 125 756 138 126 757 105 141 758 137 125 759 105 141 760 104 140 761 139 127 762 140 128 763 106 142 764 139 127 765 106 142 766 105 141 767 141 129 768 142 130 769 107 143 770 141 129 771 107 143 772 106 142 773 143 131 774 120 109 775 96 133 776 143 131 777 96 133 778 107 143 779</p>
        </triangles>
      </mesh>
    </geometry>
    <geometry id="gpsholder-mesh" name="gpsholder">
      <mesh>
        <source id="gpsholder-mesh-positions">
          <float_array id="gpsholder-mesh-positions-array" count="156">-0.9134495 -1.40378 0.02999877 -0.7910705 -1.40378 -0.426726 -0.4567247 -1.40378 -0.7610717 0 -1.40378 -0.8834508 0.4567248 -1.40378 -0.7610717 0.7910705 -1.40378 -0.426726 0.9134496 -1.40378 0.0299986 0.7910706 -1.40378 0.4867234 0.4567251 -1.40378 0.8210691 3.91626e-7 -1.40378 0.9434484 -0.4567243 -1.40378 0.8210695 -0.7910702 -1.40378 0.4867241 -0.747183 -2.767838 0.02999883 -0.6470795 -2.767838 -0.3435925 -0.3735916 -2.767839 -0.6170804 -2.38608e-7 -2.767839 -0.7171839 0.3735911 -2.767839 -0.6170804 0.6470789 -2.767839 -0.3435925 0.7471824 -2.767839 0.02999871 0.647079 -2.767839 0.4035901 0.3735913 -2.767839 0.6770779 0 -2.767838 0.7771816 -0.3735912 -2.767838 0.6770782 -0.6470793 -2.767838 0.4035907 -0.6470792 -1.553958 -0.3435924 -0.7471827 -1.553958 0.02999877 -0.3735914 -1.553958 -0.6170806 0 -1.553958 -0.7171841 0.3735914 -1.553958 -0.6170806 0.6470792 -1.553958 -0.3435924 0.7471827 -1.553958 0.02999866 0.6470793 -1.553958 0.4035898 0.3735915 -1.553958 0.6770778 3.22184e-7 -1.553958 0.7771816 -0.373591 -1.553958 0.6770781 -0.647079 -1.553958 0.4035904 1.965173 -1.401741 -4.629996 -1.965175 -1.401741 4.629998 -1.965174 -1.268368 -4.474271 -1.965174 -1.268368 4.474271 1.965175 -1.268368 4.474271 1.965175 -1.268368 -4.474271 1.965173 -1.401741 4.629998 -1.965175 -1.401741 -4.629996 -1.965174 -0.1266023 4.629996 1.965175 -0.1266026 4.629996 1.965175 -0.1266026 4.474271 -1.965174 -0.1266023 4.474271 1.965175 -0.1266026 -4.629996 -1.965174 -0.1266023 -4.629996 -1.965174 -0.1266023 -4.474271 1.965175 -0.1266026 -4.474271</float_array>
          <technique_common>
            <accessor source="#gpsholder-mesh-positions-array" count="52" stride="3">
              <param name="X" type="float"/>
              <param name="Y" type="float"/>
              <param name="Z" type="float"/>
            </accessor>
          </technique_common>
        </source>
        <source id="gpsholder-mesh-normals">
          <float_array id="gpsholder-mesh-normals-array" count="201">-0.6557238 -0.6532251 -0.3785808 -0.7571628 -0.6532264 3.70909e-7 -0.9013166 -0.4331609 2.35442e-7 -0.7805633 -0.4331612 -0.4506579 -0.3785814 -0.6532272 -0.6557213 -0.4506583 -0.4331608 -0.7805631 0 -0.653227 -0.7571622 0 -0.4331612 -0.9013166 0.378581 -0.653227 -0.6557218 0.4506586 -0.433161 -0.780563 0.6557217 -0.6532268 -0.3785816 0.780563 -0.4331613 -0.4506581 0.7571624 -0.6532269 0 0.9013165 -0.4331613 -1.30245e-7 0.6557216 -0.6532265 0.378582 0.780563 -0.4331614 0.450658 0.3785808 -0.653227 0.6557217 0.4506587 -0.4331613 0.7805628 -4.47074e-7 -0.6532254 0.7571635 3.45649e-7 -0.4331611 0.9013166 -0.3785813 -0.6532267 0.6557219 -0.450658 -0.433161 0.7805633 -0.6557216 -0.6532265 0.3785821 -0.7805628 -0.4331613 0.4506586 -0.6702901 -0.7420993 1.81342e-7 -0.580488 -0.7420995 -0.3351449 -0.335145 -0.7420988 -0.5804889 0 -0.7420993 -0.67029 0.3351453 -0.7420989 -0.5804885 0.5804878 -0.7420996 -0.3351451 0.6702899 -0.7420994 0 0.5804877 -0.7420997 0.3351448 0.3351452 -0.7420995 0.5804877 2.6377e-7 -0.7420994 0.6702899 -0.3351445 -0.7420995 0.5804882 -0.5804877 -0.7420997 0.335145 0 -1 0 0 -1 -7.969e-7 0 -1 1.5938e-6 -1.27636e-6 -1 3.1876e-6 0 -1 7.96898e-7 -1.27636e-6 -1 0 -8.50907e-7 -1 3.28749e-7 0 -1 9.86247e-7 -4.76344e-6 -1 0 0 1 0 -1 9.03937e-6 0 -1 7.33576e-6 0 1 -1.7879e-5 0 1 -1.27893e-5 0 0 1 0 0 1 0 0 1 0 0 1.86975e-6 1 0 1.86975e-6 1 1 -1.56504e-6 0 1 0 1.30135e-5 -2.12516e-7 0 -1 0 0 -1 -1 0 0 -1 5.36107e-7 -6.16892e-6 -1 6.00338e-7 0 -1 0 6.88962e-6 -2.12516e-7 0 1 0 0 1 1 0 0 1 -1.50085e-6 -1.16526e-5</float_array>
          <technique_common>
            <accessor source="#gpsholder-mesh-normals-array" count="67" stride="3">
              <param name="X" type="float"/>
              <param name="Y" type="float"/>
              <param name="Z" type="float"/>
            </accessor>
          </technique_common>
        </source>
        <source id="gpsholder-mesh-map-0">
          <float_array id="gpsholder-mesh-map-0-array" count="516">0.6617717 0.067173 0.6336272 0.067173 0.6336272 0.1386043 0.6336272 0.1386043 0.6617717 0.1386043 0.6617717 0.067173 0.6899162 0.067173 0.6617717 0.067173 0.6617717 0.1386043 0.6617717 0.1386043 0.6899162 0.1386043 0.6899162 0.067173 0.7180607 0.067173 0.6899162 0.067173 0.6899162 0.1386043 0.6899162 0.1386043 0.7180607 0.1386043 0.7180607 0.067173 0.4085461 0.067173 0.3804018 0.067173 0.3804018 0.1386043 0.3804018 0.1386043 0.4085461 0.1386043 0.4085461 0.067173 0.4366906 0.067173 0.4085461 0.067173 0.4085461 0.1386043 0.4085461 0.1386043 0.4366908 0.1386043 0.4366906 0.067173 0.4648351 0.067173 0.4366906 0.067173 0.4366908 0.1386043 0.4366908 0.1386043 0.4648351 0.1386043 0.4648351 0.067173 0.4929796 0.067173 0.4648351 0.067173 0.4648351 0.1386043 0.4648351 0.1386043 0.4929796 0.1386043 0.4929796 0.067173 0.5211242 0.067173 0.4929796 0.067173 0.4929796 0.1386043 0.4929796 0.1386043 0.5211242 0.1386043 0.5211242 0.067173 0.5492311 0.067173 0.5211242 0.067173 0.5211242 0.1386043 0.5211242 0.1386043 0.5492311 0.1386043 0.5492311 0.067173 0.5773384 0.067173 0.5492311 0.067173 0.5492311 0.1386043 0.5492311 0.1386043 0.5773384 0.1386043 0.5773384 0.067173 0.6054826 0.067173 0.5773384 0.067173 0.5773384 0.1386043 0.5773384 0.1386043 0.6054826 0.1386043 0.6054826 0.067173 0.6336272 0.1386043 0.6336272 0.067173 0.6054826 0.067173 0.6054826 0.067173 0.6054826 0.1386043 0.6336272 0.1386043 0.6336272 0.1516322 0.6617717 0.1516322 0.6617717 0.1386043 0.6617717 0.1386043 0.6336272 0.1386043 0.6336272 0.1516322 0.6617717 0.1516322 0.6899162 0.1516322 0.6899162 0.1386043 0.6899162 0.1386043 0.6617717 0.1386043 0.6617717 0.1516322 0.6899162 0.1516322 0.7180607 0.1516322 0.7180607 0.1386043 0.7180607 0.1386043 0.6899162 0.1386043 0.6899162 0.1516322 0.3804018 0.1516322 0.4085461 0.1516322 0.4085461 0.1386043 0.4085461 0.1386043 0.3804018 0.1386043 0.3804018 0.1516322 0.4085461 0.1516322 0.4366906 0.1516322 0.4366908 0.1386043 0.4366908 0.1386043 0.4085461 0.1386043 0.4085461 0.1516322 0.4366906 0.1516322 0.4648351 0.1516322 0.4648351 0.1386043 0.4648351 0.1386043 0.4366908 0.1386043 0.4366906 0.1516322 0.4648351 0.1516322 0.4929796 0.1516322 0.4929796 0.1386043 0.4929796 0.1386043 0.4648351 0.1386043 0.4648351 0.1516322 0.4929796 0.1516322 0.5211242 0.1516322 0.5211242 0.1386043 0.5211242 0.1386043 0.4929796 0.1386043 0.4929796 0.1516322 0.5211242 0.1516322 0.5492311 0.1516322 0.5492311 0.1386043 0.5492311 0.1386043 0.5211242 0.1386043 0.5211242 0.1516322 0.5492311 0.1516322 0.5773384 0.1516322 0.5773384 0.1386043 0.5773384 0.1386043 0.5492311 0.1386043 0.5492311 0.1516322 0.5773384 0.1516322 0.6054826 0.1516322 0.6054826 0.1386043 0.6054826 0.1386043 0.5773384 0.1386043 0.5773384 0.1516322 0.6054826 0.1516322 0.6336272 0.1516322 0.6336272 0.1386043 0.6336272 0.1386043 0.6054826 0.1386043 0.6054826 0.1516322 0.4331664 0.1853718 0.4539862 0.1797942 0.4748062 0.1853718 0.4748062 0.1853718 0.4900472 0.2006133 0.4956259 0.2214341 0.4956259 0.2214341 0.4900472 0.2422533 0.4748062 0.2574948 0.4748062 0.1853718 0.4956259 0.2214341 0.4748062 0.2574948 0.4748062 0.2574948 0.4539862 0.2630741 0.4331664 0.2574948 0.4331664 0.2574948 0.4179251 0.2422533 0.4123464 0.2214341 0.4748062 0.2574948 0.4331664 0.2574948 0.4123464 0.2214341 0.4748062 0.1853718 0.4748062 0.2574948 0.4123464 0.2214341 0.4331664 0.1853718 0.4748062 0.1853718 0.4123464 0.2214341 0.4179251 0.2006133 0.4331664 0.1853718 0.4123464 0.2214341 0.9948677 0.9012166 0.7054777 0.9012166 0.7054777 0.4334903 0.7054777 0.4334903 0.9948677 0.4334903 0.9948677 0.9012166 0.4045514 0.3873301 0.6939414 0.3873301 0.6939414 0.8969826 0.6939414 0.8969826 0.4045514 0.8969826 0.4045514 0.3873301 0.3857718 0.886183 0.3857718 0.3977198 0.3948568 0.3871133 0.3948568 0.3871133 0.3948568 0.896791 0.3857718 0.886183 0.3857718 0.3977198 0.3857718 0.886183 0.3948568 0.896791 0.3948568 0.896791 0.3948568 0.3871133 0.3857718 0.3977198 0.9948677 0.3372107 0.9948677 0.3478189 0.7054777 0.3478189 0.7054777 0.3478189 0.7054777 0.3372107 0.9948677 0.3372107 0.7054777 0.9938905 0.7054777 0.9831085 0.9948677 0.9831085 0.9948677 0.9831085 0.9948677 0.9938905 0.7054777 0.9938905 0.6939414 0.9936907 0.4045514 0.9936907 0.4045514 0.9068328 0.4045514 0.9068328 0.6939414 0.9068328 0.6939414 0.9936907 0.3079995 0.886183 0.3079995 0.896791 0.3948568 0.896791 0.3948568 0.896791 0.3857718 0.886183 0.3079995 0.886183 0.7054777 0.3601308 0.9948677 0.3601308 0.9948677 0.4166091 0.9948677 0.4166091 0.7054777 0.4166091 0.7054777 0.3601308 0.3079995 0.896791 0.3079995 0.886183 0.3857718 0.886183 0.3857718 0.886183 0.3948568 0.896791 0.3079995 0.896791 0.4045514 0.2894178 0.6939414 0.2894178 0.6939414 0.3762743 0.6939414 0.3762743 0.4045514 0.3762743 0.4045514 0.2894178 0.3079995 0.3977198 0.3079995 0.3871133 0.3948568 0.3871133 0.3948568 0.3871133 0.3857718 0.3977198 0.3079995 0.3977198 0.9948677 0.974179 0.7054777 0.974179 0.7054777 0.9132407 0.7054777 0.9132407 0.9948677 0.9132407 0.9948677 0.974179 0.3079995 0.3871133 0.3079995 0.3977198 0.3857718 0.3977198 0.3857718 0.3977198 0.3948568 0.3871133 0.3079995 0.3871133</float_array>
          <technique_common>
            <accessor source="#gpsholder-mesh-map-0-array" count="258" stride="2">
              <param name="S" type="float"/>
              <param name="T" type="float"/>
            </accessor>
          </technique_common>
        </source>
        <vertices id="gpsholder-mesh-vertices">
          <input semantic="POSITION" source="#gpsholder-mesh-positions"/>
        </vertices>
        <triangles material="suctionmount-material" count="86">
          <input semantic="VERTEX" source="#gpsholder-mesh-vertices" offset="0"/>
          <input semantic="NORMAL" source="#gpsholder-mesh-normals" offset="1"/>
          <input semantic="TEXCOORD" source="#gpsholder-mesh-map-0" offset="2" set="0"/>
          <p>13 0 0 12 1 1 25 2 2 25 2 3 24 3 4 13 0 5 14 4 6 13 0 7 24 3 8 24 3 9 26 5 10 14 4 11 15 6 12 14 4 13 26 5 14 26 5 15 27 7 16 15 6 17 16 8 18 15 6 19 27 7 20 27 7 21 28 9 22 16 8 23 17 10 24 16 8 25 28 9 26 28 9 27 29 11 28 17 10 29 18 12 30 17 10 31 29 11 32 29 11 33 30 13 34 18 12 35 19 14 36 18 12 37 30 13 38 30 13 39 31 15 40 19 14 41 20 16 42 19 14 43 31 15 44 31 15 45 32 17 46 20 16 47 21 18 48 20 16 49 32 17 50 32 17 51 33 19 52 21 18 53 22 20 54 21 18 55 33 19 56 33 19 57 34 21 58 22 20 59 23 22 60 22 20 61 34 21 62 34 21 63 35 23 64 23 22 65 25 2 66 12 1 67 23 22 68 23 22 69 35 23 70 25 2 71 0 24 72 1 25 73 24 3 74 24 3 75 25 2 76 0 24 77 1 25 78 2 26 79 26 5 80 26 5 81 24 3 82 1 25 83 2 26 84 3 27 85 27 7 86 27 7 87 26 5 88 2 26 89 3 27 90 4 28 91 28 9 92 28 9 93 27 7 94 3 27 95 4 28 96 5 29 97 29 11 98 29 11 99 28 9 100 4 28 101 5 29 102 6 30 103 30 13 104 30 13 105 29 11 106 5 29 107 6 30 108 7 31 109 31 15 110 31 15 111 30 13 112 6 30 113 7 31 114 8 32 115 32 17 116 32 17 117 31 15 118 7 31 119 8 32 120 9 33 121 33 19 122 33 19 123 32 17 124 8 32 125 9 33 126 10 34 127 34 21 128 34 21 129 33 19 130 9 33 131 10 34 132 11 35 133 35 23 134 35 23 135 34 21 136 10 34 137 11 35 138 0 24 139 25 2 140 25 2 141 35 23 142 11 35 143 14 36 144 15 36 145 16 36 146 16 37 147 17 37 148 18 37 149 18 38 150 19 38 151 20 38 152 16 36 153 18 36 154 20 36 155 20 39 156 21 39 157 22 39 158 22 40 159 23 40 160 12 40 161 20 41 162 22 41 163 12 41 164 16 42 165 20 42 166 12 42 167 14 43 168 16 43 169 12 43 170 13 44 171 14 44 172 12 44 173 41 45 174 38 45 175 39 45 176 39 45 177 40 45 178 41 45 179 43 36 180 36 36 181 42 36 182 42 36 183 37 36 184 43 36 185 39 46 186 38 46 187 43 46 188 43 47 189 37 47 190 39 47 191 41 48 192 40 48 193 42 48 194 42 49 195 36 49 196 41 49 197 45 50 198 46 50 199 47 50 200 47 51 201 44 51 202 45 51 203 49 52 204 50 52 205 51 52 206 51 51 207 48 51 208 49 51 209 45 53 210 44 53 211 37 53 212 37 54 213 42 54 214 45 54 215 46 55 216 45 55 217 42 55 218 42 56 219 40 56 220 46 56 221 47 57 222 46 57 223 40 57 224 40 58 225 39 58 226 47 58 227 44 59 228 47 59 229 39 59 230 39 60 231 37 60 232 44 60 233 49 58 234 48 58 235 36 58 236 36 58 237 43 58 238 49 58 239 50 61 240 49 61 241 43 61 242 43 62 243 38 62 244 50 62 245 51 63 246 50 63 247 38 63 248 38 64 249 41 64 250 51 64 251 48 65 252 51 65 253 41 65 254 41 66 255 36 66 256 48 66 257</p>
        </triangles>
      </mesh>
    </geometry>
    <geometry id="gps-mesh" name="gps">
      <mesh>
        <source id="gps-mesh-positions">
          <float_array id="gps-mesh-positions-array" count="492">-5.234676 0.37643 -3.511534 -5.234676 0.2599254 -3.511534 5.234694 0.376429 3.511146 5.234694 0.2599244 3.511146 -5.234694 0.3764304 3.511146 -5.234694 0.2599257 3.511146 5.234676 0.3764287 -3.511534 5.234676 0.259924 -3.511534 -4.986298 0.3764305 3.768779 -4.986298 0.2599258 3.768779 4.986279 0.3764285 -3.76075 4.986279 0.2599238 -3.76075 4.986298 0.376429 3.768779 4.986298 0.2599243 3.768779 -4.986279 0.37643 -3.76075 -4.986279 0.2599254 -3.76075 -5.198568 0.3764305 3.636553 -5.198568 0.2599258 3.636553 5.198568 0.376429 3.636553 5.104618 0.2599243 3.732374 5.199545 0.3764285 -3.628868 5.199545 0.2599239 -3.628868 -5.199545 0.37643 -3.628868 -5.104599 0.2599254 -3.724339 -5.487586 0.3651474 -3.733176 5.487586 0.3651463 3.732896 -5.487586 0.3651477 3.732896 5.487586 0.3651459 -3.733176 -5.241875 0.3651478 3.990419 5.241875 0.3651457 -3.982286 5.241875 0.3651462 3.990419 -5.241875 0.3651474 -3.982286 -5.445095 0.3651478 3.857067 5.356819 0.3651462 3.947689 5.446027 0.3651458 -3.849257 -5.35682 0.3651474 -3.939553 -5.811636 0.2491486 -3.943039 5.811636 0.2491475 3.942476 -5.811636 0.2491491 3.942476 5.811636 0.2491471 -3.943039 -5.551416 0.2491492 4.214467 5.551416 0.2491469 -4.206144 5.551416 0.2491474 4.214467 -5.551416 0.2491486 -4.206144 -5.765353 0.2491491 4.077361 5.677001 0.2491474 4.167907 5.766286 0.2491469 -4.069366 -5.677001 0.2491486 -4.159585 -6.255535 -0.1999233 -4.184371 6.255535 -0.1999247 4.183484 -6.255535 -0.199923 4.183484 6.255535 -0.199925 -4.184371 -5.97544 -0.1999228 4.472111 5.97544 -0.1999252 -4.463571 5.97544 -0.1999246 4.472111 -5.97544 -0.1999233 -4.463571 -6.204273 -0.1999228 4.330767 6.115518 -0.1999246 4.420909 6.205214 -0.1999253 -4.322567 -6.115518 -0.1999233 -4.412372 6.255535 -0.7565968 4.183484 6.255535 -0.7565972 -4.184371 -5.97544 -0.756595 4.472111 5.97544 -0.7565974 -4.463571 5.97544 -0.7565967 4.472111 6.115518 -0.7565968 4.420909 6.205214 -0.7565974 -4.322567 -6.115518 -0.7565956 -4.412372 -4.79375 -5.28424e-5 -2.688947 -4.79375 -5.25413e-5 3.232751 4.70375 -5.39708e-5 3.322751 -5 0.2552309 3.435528 5 0.255229 -2.891724 4.91 0.2552294 3.525528 -4.91 0.2552305 -2.981724 4.70375 -5.42862e-5 -2.778947 -6.255535 -0.7565955 -4.184371 -6.255535 -0.7565951 4.183484 -5.97544 -0.7565956 -4.463571 -6.204273 -0.756595 4.330767 -6.236375 -1.017427 -4.171547 6.236375 -1.017428 4.170677 -6.236375 -1.017426 4.170677 6.236375 -1.017428 -4.171547 -5.957137 -1.017426 4.45842 5.957137 -1.017429 -4.449891 5.957137 -1.017428 4.45842 -5.957137 -1.017427 -4.449891 -6.18534 -1.017426 4.317307 6.096584 -1.017428 4.407449 6.186281 -1.017429 -4.309118 -6.096584 -1.017427 -4.398923 -6.136788 -1.270134 -4.104896 6.136788 -1.270135 4.104115 -6.136788 -1.270134 4.104115 6.136788 -1.270136 -4.104896 -5.86201 -1.270133 4.387263 5.86201 -1.270136 -4.378795 5.86201 -1.270135 4.387263 -5.86201 -1.270134 -4.378795 -6.086936 -1.270133 4.247348 5.99818 -1.270135 4.33749 6.087877 -1.270136 -4.239219 -5.99818 -1.270134 -4.329024 -5.104618 0.3764305 3.732374 -5.104618 0.2599258 3.732374 5.104618 0.376429 3.732374 5.198568 0.2599243 3.636553 5.104599 0.3764285 -3.724339 5.104599 0.2599238 -3.724339 -5.104599 0.37643 -3.724339 -5.199545 0.2599254 -3.628868 -5.356819 0.3651479 3.947689 5.445095 0.3651462 3.857067 5.35682 0.3651457 -3.939553 -5.446027 0.3651474 -3.849257 -5.677001 0.2491492 4.167907 5.765353 0.2491475 4.077361 5.677001 0.2491469 -4.159585 -5.766286 0.2491486 -4.069366 -6.115518 -0.1999227 4.420909 6.204273 -0.1999247 4.330767 6.115518 -0.1999253 -4.412372 -6.205214 -0.1999233 -4.322567 6.204273 -0.7565969 4.330767 6.115518 -0.7565975 -4.412372 -6.205214 -0.7565955 -4.322567 -6.115518 -0.7565949 4.420909 -6.096584 -1.017426 4.407449 6.18534 -1.017428 4.317307 6.096584 -1.017429 -4.398923 -6.186281 -1.017427 -4.309118 -5.99818 -1.270133 4.33749 6.086936 -1.270135 4.247348 5.99818 -1.270136 -4.329024 -6.087877 -1.270134 -4.239219 -6.08393 0.04560708 -4.09631 6.08393 0.04560583 4.09554 -6.08393 0.04560744 4.09554 6.08393 0.04560548 -4.096309 -5.811518 0.04560762 4.378097 5.811518 0.04560524 -4.369636 5.811518 0.04560583 4.378097 -5.811518 0.04560703 -4.369636 -5.946002 0.04560762 4.328621 6.034568 0.04560583 4.238289 5.946002 0.04560518 -4.320162 -6.035505 0.04560708 -4.230162 -6.034568 0.04560762 4.238288 5.946002 0.04560583 4.328621 6.035505 0.04560524 -4.230162 -5.946002 0.04560708 -4.320162 -4.70375 -5.28606e-5 -2.778947 -4.70375 -5.25503e-5 3.322751 4.79375 -5.3989e-5 3.232751 -4.91 0.2552309 3.525528 4.91 0.255229 -2.981724 5 0.2552294 3.435528 -5 0.2552305 -2.891724 4.79375 -5.42952e-5 -2.688947 -4.81 -5.28424e-5 -2.800004 -4.81 -5.25413e-5 3.340001 4.81 -5.3989e-5 3.340001 4.81 -5.42952e-5 -2.800004</float_array>
          <technique_common>
            <accessor source="#gps-mesh-positions-array" count="164" stride="3">
              <param name="X" type="float"/>
              <param name="Y" type="float"/>
              <param name="Z" type="float"/>
            </accessor>
          </technique_common>
        </source>
        <source id="gps-mesh-normals">
          <float_array id="gps-mesh-normals-array" count="528">0.6488916 0.7551173 -0.09347558 0.7346656 0.6704286 -0.1038849 0.7329429 0.6716429 0.1081232 0.6469391 0.7564018 0.09657263 -0.6469601 0.7563659 0.09671211 -0.7324666 0.6721716 0.1080649 -0.7346661 0.6704281 -0.1038842 -0.648871 0.7551518 -0.09334027 -0.09948819 0.7592229 -0.6431816 -0.1106967 0.668843 -0.735116 0.1106975 0.6688423 -0.7351163 0.09934598 0.7592533 -0.6431679 0.09950172 0.7592364 0.6431638 0.1099652 0.6730948 0.7313351 -0.1099644 0.6730958 0.7313343 -0.09935939 0.7592659 0.6431508 0.5405825 0.7795643 -0.3163071 0.6559889 0.6503491 -0.3830465 -0.6559894 0.6503493 -0.3830455 -0.5403057 0.7797031 -0.3164379 0.3953126 0.6502614 -0.6487589 0.3266727 0.7804688 -0.5330606 -0.3265637 0.7802648 -0.5334258 -0.3953121 0.6502615 -0.6487591 -0.5383076 0.7791081 0.321272 -0.6501176 0.6537089 0.3873136 0.6500923 0.6536653 0.3874297 0.538029 0.7792472 0.321401 -0.3908237 0.6543521 0.647364 -0.3253554 0.7795754 0.5351694 0.3252465 0.77937 0.5355347 0.3908243 0.6543517 0.6473642 -0.1924451 0.980977 -0.02548009 -0.1927524 0.9809455 0.02434116 0.1925024 0.9809934 0.02439135 0.1926939 0.9809292 -0.02543467 -0.02419286 0.9664642 0.2556591 0.0241937 0.9663739 0.2560005 0.0241996 0.966419 -0.2558296 -0.02420097 0.9663283 -0.2561717 -0.153212 0.9838188 0.09288012 0.1532195 0.9838258 0.09279423 -0.09745216 0.9805551 0.1703376 0.09758323 0.9805271 0.1704235 0.1517618 0.9838832 -0.0945636 -0.1517688 0.9838908 -0.09447354 0.09696865 0.9805504 -0.1706403 -0.09710133 0.9805218 -0.1707291 -0.4519278 0.8891147 -0.07236307 -0.4528272 0.8888846 0.06951129 0.4528044 0.8888958 0.06951713 0.4519494 0.889104 -0.07235836 -0.08088511 0.8132888 0.5762109 0.08088701 0.8133133 0.576176 0.08091783 0.8131162 -0.5764498 -0.08091855 0.8131424 -0.5764127 -0.3703277 0.9000447 0.2297325 0.3703072 0.9000563 0.2297202 -0.2456513 0.8798836 0.4067684 0.2456371 0.8798974 0.4067469 0.3675855 0.9001188 -0.2338097 -0.3675658 0.9001304 -0.2337963 0.2446402 0.879665 -0.4078488 -0.2446247 0.8796799 -0.407826 -0.6918697 0.7122052 -0.1186594 -0.693116 0.711757 0.1139836 0.6931164 0.7117566 0.1139833 0.6918687 0.7122063 -0.1186594 -0.1359937 0.5787826 0.8040626 0.135995 0.5787822 0.8040626 0.136024 0.5785574 -0.8042194 -0.1360244 0.5785575 -0.8042194 -0.5826469 0.7269956 0.3633182 0.5826458 0.7269955 0.3633201 -0.3867555 0.6859871 0.6163132 0.3867548 0.6859861 0.6163148 0.5787088 0.7269402 -0.3696675 -0.5787093 0.7269402 -0.3696669 0.3850219 0.685452 -0.6179916 -0.3850234 0.6854518 -0.617991 -0.9370487 0.3073135 0.1658258 -0.9357883 0.3074182 -0.1726105 -0.9836621 -0.04023194 -0.175472 -0.9849019 -0.04010689 0.1684033 0.9357877 0.3074197 -0.1726112 0.9370486 0.3073134 0.1658266 0.984902 -0.04010742 0.168403 0.983662 -0.04022997 -0.1754729 0.191708 0.2329483 0.9534061 -0.1917099 0.2329484 0.9534057 -0.177448 -0.03199291 0.98361 0.1774509 -0.03199321 0.9836095 -0.8072948 0.3136402 0.4999051 -0.848198 -0.04404526 0.5278449 0.8072951 0.3136394 0.4999051 0.8481979 -0.04404604 0.5278449 -0.5309053 0.2905024 0.7960829 -0.5425748 -0.04107141 0.8390028 0.5309039 0.2905017 0.7960841 0.5425776 -0.04107201 0.839001 0.8020532 0.3136776 -0.5082491 0.8425359 -0.04406231 -0.5368352 -0.8020521 0.3136781 -0.5082506 -0.8425369 -0.04406315 -0.5368335 0.1917101 0.2328349 -0.9534333 0.5280295 0.2901982 -0.7981041 0.5395549 -0.04099851 -0.8409516 0.1774391 -0.03197121 -0.9836124 -0.5280278 0.290198 -0.7981052 -0.1917104 0.2328347 -0.9534333 -0.1774395 -0.03197121 -0.9836123 -0.5395563 -0.04099965 -0.8409507 0.6735152 0.7093225 -0.2079402 0.6735143 0.7093231 0.2079405 0.2642614 0.9565813 0.1229563 0.2646288 0.9561548 -0.1254581 -0.6735137 0.7093237 0.2079408 -0.6735145 0.7093229 -0.2079405 -0.2646291 0.9561547 -0.125458 -0.2642504 0.9565692 0.1230741 -0.2064936 0.7054183 -0.6780453 0.2064947 0.7054181 -0.6780452 0.1265632 0.9559358 -0.2648934 -0.126563 0.955936 -0.2648933 0.2064937 0.7054185 0.678045 -0.206493 0.7054187 0.6780451 -0.1252973 0.9578285 0.2585833 0.1250574 0.957883 0.2584973 -0.955002 -0.2397199 -0.1746587 -0.956376 -0.2391824 0.16774 0.956376 -0.2391831 0.1677393 0.9550028 -0.2397177 -0.1746572 -0.1817766 -0.1970355 0.9633973 0.1817771 -0.1970353 0.9633972 -0.8199741 -0.2576007 0.5111601 0.8199743 -0.2576003 0.5111598 -0.5306279 -0.2432911 0.8119382 0.5306288 -0.2432899 0.8119379 0.8145316 -0.2577601 -0.5197095 -0.8145323 -0.2577567 -0.5197103 0.5277399 -0.2429866 -0.8139092 0.1817759 -0.1969156 -0.963422 -0.1817772 -0.1969157 -0.9634217 -0.5277431 -0.2429845 -0.8139079 -1.66441e-7 -1 0 -1.68932e-7 -1 0 -0.5829061 -0.8074808 -0.09052819 -0.5824556 -0.8082399 0.08656734 0.5824566 -0.8082394 0.08656519 0.5829048 -0.8074816 -0.0905286 -0.08765023 -0.780476 0.619011 0.08765029 -0.7804736 0.6190142 0.08765572 -0.7804068 -0.6190974 -0.08765625 -0.7804038 -0.6191012 -0.4965555 -0.8122941 0.3059592 0.4965551 -0.8122957 0.3059552 -0.3103463 -0.8026692 0.5093204 0.3103452 -0.8026717 0.5093173 0.4923279 -0.8128692 -0.3112185 -0.4923248 -0.8128711 -0.3112183 0.308396 -0.8029917 -0.5099965 -0.3083928 -0.8029936 -0.5099954 0 -1 0 -1.65116e-7 -1 0 -1.66469e-7 -1 1.73809e-6 -1.68932e-7 -1 -1.76381e-6 -1.72857e-7 -1 -1.02144e-6 -1.68927e-7 -1 1.29772e-6 0 -1 -4.40768e-7 -1.66467e-7 -1 7.30659e-6 -1.72853e-7 -1 2.40045e-6 -1.68932e-7 -1 -1.7969e-6 -1.65116e-7 -1 4.15773e-7 -1.66442e-7 -1 -6.24114e-7 1.50488e-7 1 0 1.51018e-7 1 0</float_array>
          <technique_common>
            <accessor source="#gps-mesh-normals-array" count="176" stride="3">
              <param name="X" type="float"/>
              <param name="Y" type="float"/>
              <param name="Z" type="float"/>
            </accessor>
          </technique_common>
        </source>
        <source id="gps-mesh-map-0">
          <float_array id="gps-mesh-map-0-array" count="1872">0.7181914 0.90598 0.7120892 0.9049294 0.7120895 0.5832168 0.7120895 0.5832168 0.7181821 0.5821462 0.7181914 0.90598 0.1403677 0.5821471 0.1464602 0.5832179 0.1464605 0.9049299 0.1464605 0.9049299 0.1403583 0.9059807 0.1403677 0.5821471 0.157066 0.9204237 0.1582617 0.915154 0.7002885 0.915154 0.7002885 0.915154 0.7014842 0.9204237 0.157066 0.9204237 0.7014786 0.568139 0.7003012 0.5734146 0.1582489 0.5734149 0.1582489 0.5734149 0.1570712 0.568139 0.7014786 0.568139 0.7149804 0.9126379 0.7098201 0.9096426 0.7120892 0.9049294 0.7120892 0.9049294 0.7181914 0.90598 0.7149804 0.9126379 0.1403583 0.9059807 0.1464605 0.9049299 0.1487296 0.9096429 0.1487296 0.9096429 0.1435696 0.9126385 0.1403583 0.9059807 0.7014842 0.9204237 0.7002885 0.915154 0.7054613 0.9133495 0.7054613 0.9133495 0.7088878 0.9178295 0.7014842 0.9204237 0.1496624 0.9178295 0.1530887 0.9133499 0.1582617 0.915154 0.1582617 0.915154 0.157066 0.9204237 0.1496624 0.9178295 0.1434804 0.5758457 0.1486088 0.57888 0.1464602 0.5832179 0.1464602 0.5832179 0.1403677 0.5821471 0.1434804 0.5758457 0.7181821 0.5821462 0.7120895 0.5832168 0.7099412 0.5788789 0.7099412 0.5788789 0.7150696 0.5758448 0.7181821 0.5821462 0.1570712 0.568139 0.1582489 0.5734149 0.1530402 0.5751952 0.1530402 0.5751952 0.1496537 0.5706908 0.1570712 0.568139 0.7088962 0.5706899 0.7055101 0.5751946 0.7003012 0.5734146 0.7003012 0.5734146 0.7014786 0.568139 0.7088962 0.5706899 0.728707 0.9157627 0.7287279 0.5712396 0.7422937 0.5601791 0.7422937 0.5601791 0.7422786 0.9268228 0.728707 0.9157627 0.1312159 0.5712398 0.1312368 0.9157626 0.1176656 0.9268228 0.1176656 0.9268228 0.1176502 0.5601792 0.1312159 0.5712398 0.1466798 0.9270167 0.7132661 0.9270173 0.7273607 0.9379709 0.7273607 0.9379709 0.1325848 0.9379706 0.1466798 0.9270167 0.7132744 0.5604025 0.1466715 0.5604031 0.13258 0.5494456 0.13258 0.5494456 0.7273655 0.5494452 0.7132744 0.5604025 0.7262863 0.920926 0.728707 0.9157627 0.7422786 0.9268228 0.7422786 0.9268228 0.739248 0.9321028 0.7262863 0.920926 0.1312368 0.9157626 0.1336578 0.9209256 0.1206968 0.9321026 0.1206968 0.9321026 0.1176656 0.9268228 0.1312368 0.9157626 0.7132661 0.9270173 0.7201333 0.9252911 0.7334864 0.9362578 0.7334864 0.9362578 0.7273607 0.9379709 0.7132661 0.9270173 0.1398115 0.9252905 0.1466798 0.9270167 0.1325848 0.9379706 0.1325848 0.9379706 0.1264588 0.9362575 0.1398115 0.9252905 0.1335649 0.5664754 0.1312159 0.5712398 0.1176502 0.5601792 0.1176502 0.5601792 0.1206194 0.5552933 0.1335649 0.5664754 0.7287279 0.5712396 0.7263791 0.5664752 0.7393253 0.5552931 0.7393253 0.5552931 0.7422937 0.5601791 0.7287279 0.5712396 0.1466715 0.5604031 0.139787 0.5621321 0.126444 0.5511564 0.126444 0.5511564 0.13258 0.5494456 0.1466715 0.5604031 0.7201579 0.5621318 0.7132744 0.5604025 0.7273655 0.5494452 0.7273655 0.5494452 0.7335011 0.5511562 0.7201579 0.5621318 0.7422786 0.9268228 0.7422937 0.5601791 0.7602186 0.5498847 0.7602186 0.5498847 0.7602096 0.9370993 0.7422786 0.9268228 0.1176502 0.5601792 0.1176656 0.9268228 0.09973508 0.9370993 0.09973508 0.9370993 0.0997259 0.5498847 0.1176502 0.5601792 0.1325848 0.9379706 0.7273607 0.9379709 0.7449648 0.9488066 0.7449648 0.9488066 0.1149819 0.9488064 0.1325848 0.9379706 0.7273655 0.5494452 0.13258 0.5494456 0.114976 0.5386084 0.114976 0.5386084 0.7449709 0.5386083 0.7273655 0.5494452 0.739248 0.9321028 0.7422786 0.9268228 0.7602096 0.9370993 0.7602096 0.9370993 0.7570869 0.9427595 0.739248 0.9321028 0.1176656 0.9268228 0.1206968 0.9321026 0.1028582 0.9427595 0.1028582 0.9427595 0.09973508 0.9370993 0.1176656 0.9268228 0.7273607 0.9379709 0.7334864 0.9362578 0.7515464 0.9467772 0.7515464 0.9467772 0.7449648 0.9488066 0.7273607 0.9379709 0.1264588 0.9362575 0.1325848 0.9379706 0.1149819 0.9488064 0.1149819 0.9488064 0.1083992 0.9467771 0.1264588 0.9362575 0.1206194 0.5552933 0.1176502 0.5601792 0.0997259 0.5498847 0.0997259 0.5498847 0.10278 0.5446404 0.1206194 0.5552933 0.7422937 0.5601791 0.7393253 0.5552931 0.7571647 0.5446404 0.7571647 0.5446404 0.7602186 0.5498847 0.7422937 0.5601791 0.13258 0.5494456 0.126444 0.5511564 0.1083813 0.5406356 0.1083813 0.5406356 0.114976 0.5386084 0.13258 0.5494456 0.7335011 0.5511562 0.7273655 0.5494452 0.7449709 0.5386083 0.7449709 0.5386083 0.7515643 0.5406356 0.7335011 0.5511562 0.7602186 0.5498847 0.7770067 0.5420417 0.7770066 0.9449272 0.7770066 0.9449272 0.7602096 0.9370993 0.7602186 0.5498847 0.09973508 0.9370993 0.08293837 0.9449272 0.08293831 0.5420416 0.08293831 0.5420416 0.0997259 0.5498847 0.09973508 0.9370993 0.7449648 0.9488066 0.7600892 0.9585698 0.09985888 0.9585695 0.09985888 0.9585695 0.1149819 0.9488064 0.7449648 0.9488066 0.114976 0.5386084 0.09985089 0.5288382 0.760097 0.5288379 0.760097 0.5288379 0.7449709 0.5386083 0.114976 0.5386084 0.7570869 0.9427595 0.7602096 0.9370993 0.7770066 0.9449272 0.7770066 0.9449272 0.7734821 0.9514696 0.7570869 0.9427595 0.1028582 0.9427595 0.08646368 0.9514696 0.08293837 0.9449272 0.08293837 0.9449272 0.09973508 0.9370993 0.1028582 0.9427595 0.7515464 0.9467772 0.767664 0.9559112 0.7600892 0.9585698 0.7600892 0.9585698 0.7449648 0.9488066 0.7515464 0.9467772 0.1083992 0.9467771 0.1149819 0.9488064 0.09985888 0.9585695 0.09985888 0.9585695 0.09228289 0.9559112 0.1083992 0.9467771 0.10278 0.5446404 0.0997259 0.5498847 0.08293831 0.5420416 0.08293831 0.5420416 0.08637833 0.5359271 0.10278 0.5446404 0.7571647 0.5446404 0.7735669 0.5359274 0.7770067 0.5420417 0.7770067 0.5420417 0.7602186 0.5498847 0.7571647 0.5446404 0.1083813 0.5406356 0.09225779 0.5314934 0.09985089 0.5288382 0.09985089 0.5288382 0.114976 0.5386084 0.1083813 0.5406356 0.7515643 0.5406356 0.7449709 0.5386083 0.760097 0.5288379 0.760097 0.5288379 0.7676886 0.5314936 0.7515643 0.5406356 0.7908733 0.9501335 0.7908552 0.5368205 0.8199144 0.5316901 0.8199144 0.5316901 0.8199537 0.9552372 0.7908733 0.9501335 0.06909054 0.5368202 0.06907242 0.9501334 0.03999269 0.9552374 0.03999269 0.9552374 0.04003179 0.5316893 0.06909054 0.5368202 0.08992177 0.9682743 0.7700284 0.9682741 0.775845 0.9934967 0.775845 0.9934967 0.08410549 0.9934967 0.08992177 0.9682743 0.7862735 0.958584 0.7908733 0.9501335 0.8199537 0.9552372 0.8199537 0.9552372 0.8108894 0.9729974 0.7862735 0.958584 0.06907242 0.9501334 0.073673 0.9585842 0.04905718 0.972998 0.04905718 0.972998 0.03999269 0.9552374 0.06907242 0.9501334 0.7700284 0.9682741 0.7792013 0.9645406 0.7956761 0.9859873 0.7956761 0.9859873 0.775845 0.9934967 0.7700284 0.9682741 0.08074706 0.9645413 0.08992177 0.9682743 0.08410549 0.9934967 0.08410549 0.9934967 0.06427228 0.9859878 0.08074706 0.9645413 0.07358086 0.528796 0.06909054 0.5368202 0.04003179 0.5316893 0.04003179 0.5316893 0.04898685 0.5143375 0.07358086 0.528796 0.7908552 0.5368205 0.7863654 0.5287966 0.8109601 0.5143386 0.8109601 0.5143386 0.8199144 0.5316901 0.7908552 0.5368205 0.08991384 0.5191204 0.0807169 0.5228441 0.06426745 0.5013695 0.06426745 0.5013695 0.08410912 0.4938884 0.08991384 0.5191204 0.7792314 0.5228449 0.7700363 0.5191208 0.7758421 0.4938889 0.7758421 0.4938889 0.7956811 0.5013707 0.7792314 0.5228449 0.775762 0.4485939 0.775762 0.07733535 0.7935951 0.06179928 0.7935951 0.06179928 0.7935951 0.4645183 0.775762 0.4485939 0.07751417 0.07733535 0.07751417 0.4485939 0.05918812 0.4645183 0.05918812 0.4645183 0.05918812 0.06179928 0.07751417 0.07733535 0.08406865 0.4542364 0.7692074 0.4542364 0.7869855 0.4702469 0.7869855 0.4702469 0.0657978 0.4702469 0.08406865 0.4542364 0.7692074 0.0716933 0.08406865 0.0716933 0.0657978 0.0560708 0.0657978 0.0560708 0.7869855 0.0560708 0.7692074 0.0716933 0.9624535 0.6051965 0.9624533 0.9677653 0.9416844 0.9677653 0.9416844 0.9677653 0.9416847 0.605198 0.9624535 0.6051965 0.9001229 0.6020945 0.9001231 0.9647623 0.8793542 0.9647623 0.8793542 0.9647623 0.879354 0.6020945 0.9001229 0.6020945 0.9624534 0.01749932 0.9624535 0.5888799 0.9416847 0.5888799 0.9416847 0.5888799 0.9416845 0.01749932 0.9624534 0.01749932 0.9624535 0.5990587 0.9624535 0.6051965 0.9416847 0.605198 0.9416847 0.605198 0.9416847 0.5990673 0.9624535 0.5990587 0.9001231 0.9647623 0.9001231 0.9709064 0.8793542 0.970898 0.8793542 0.970898 0.8793542 0.9647623 0.9001231 0.9647623 0.9624535 0.5888799 0.9624535 0.5939735 0.9416847 0.5939651 0.9416847 0.5939651 0.9416847 0.5888799 0.9624535 0.5888799 0.9001231 0.9759915 0.9001231 0.981084 0.8793542 0.981084 0.8793542 0.981084 0.8793542 0.975998 0.9001231 0.9759915 0.9001229 0.5962852 0.9001229 0.6020945 0.879354 0.6020945 0.879354 0.6020945 0.879354 0.5962951 0.9001229 0.5962852 0.9624533 0.9677653 0.9624534 0.973479 0.9416845 0.9734694 0.9416845 0.9734694 0.9416844 0.9677653 0.9624533 0.9677653 0.9001229 0.5860981 0.9001229 0.5911897 0.879354 0.5911819 0.879354 0.5911819 0.879354 0.5860981 0.9001229 0.5860981 0.9624534 0.9785748 0.9624534 0.9836667 0.9416845 0.9836667 0.9416845 0.9836667 0.9416845 0.9785804 0.9624534 0.9785748 0.7023176 0.08221614 0.7064561 0.08602064 0.1446819 0.08602064 0.1446819 0.08602064 0.1488204 0.08221614 0.7023176 0.08221614 0.9215624 0.9677668 0.9215626 0.605198 0.9416847 0.605198 0.9416847 0.605198 0.9416844 0.9677653 0.9215624 0.9677668 0.8592322 0.9647615 0.8592319 0.6020927 0.879354 0.6020945 0.879354 0.6020945 0.8793542 0.9647623 0.8592322 0.9647615 0.9215626 0.5888819 0.9215626 0.01749867 0.9416845 0.01749932 0.9416845 0.01749932 0.9416847 0.5888799 0.9215626 0.5888819 0.8592319 0.5860961 0.8592319 0.01471924 0.8793542 0.0147171 0.8793542 0.0147171 0.879354 0.5860981 0.8592319 0.5860961 0.9416847 0.605198 0.9215626 0.605198 0.9215626 0.5991126 0.9215626 0.5991126 0.9416847 0.5990673 0.9416847 0.605198 0.8592322 0.9708527 0.8592322 0.9647615 0.8793542 0.9647623 0.8793542 0.9647623 0.8793542 0.970898 0.8592322 0.9708527 0.9215626 0.5939282 0.9215626 0.5888819 0.9416847 0.5888799 0.9416847 0.5888799 0.9416847 0.5939651 0.9215626 0.5939282 0.8793542 0.981084 0.8592322 0.9810835 0.8592322 0.9760357 0.8592322 0.9760357 0.8793542 0.975998 0.8793542 0.981084 0.879354 0.6020945 0.8592319 0.6020927 0.8592319 0.5963387 0.8592319 0.5963387 0.879354 0.5962951 0.879354 0.6020945 0.9215624 0.9734257 0.9215624 0.9677668 0.9416844 0.9677653 0.9416844 0.9677653 0.9416845 0.9734694 0.9215624 0.9734257 0.8592319 0.5911424 0.8592319 0.5860961 0.879354 0.5860981 0.879354 0.5860981 0.879354 0.5911819 0.8592319 0.5911424 0.9416845 0.9836667 0.9215624 0.9836685 0.9215624 0.9786201 0.9215624 0.9786201 0.9416845 0.9785804 0.9416845 0.9836667 0.7087126 0.4346019 0.1424252 0.4346019 0.1424252 0.09171128 0.1424252 0.09171128 0.7087126 0.09171128 0.7087126 0.4346019 0.1488204 0.4444884 0.1447254 0.4406693 0.7064127 0.4406693 0.7064127 0.4406693 0.7023176 0.4444884 0.1488204 0.4444884 0.7054613 0.9133495 0.7098201 0.9096426 0.7149804 0.9126379 0.7149804 0.9126379 0.7088878 0.9178295 0.7054613 0.9133495 0.1487296 0.9096429 0.1530887 0.9133499 0.1496624 0.9178295 0.1496624 0.9178295 0.1435696 0.9126385 0.1487296 0.9096429 0.1530402 0.5751952 0.1486088 0.57888 0.1434804 0.5758457 0.1434804 0.5758457 0.1496537 0.5706908 0.1530402 0.5751952 0.7099412 0.5788789 0.7055101 0.5751946 0.7088962 0.5706899 0.7088962 0.5706899 0.7150696 0.5758448 0.7099412 0.5788789 0.7201333 0.9252911 0.7262863 0.920926 0.739248 0.9321028 0.739248 0.9321028 0.7334864 0.9362578 0.7201333 0.9252911 0.1336578 0.9209256 0.1398115 0.9252905 0.1264588 0.9362575 0.1264588 0.9362575 0.1206968 0.9321026 0.1336578 0.9209256 0.139787 0.5621321 0.1335649 0.5664754 0.1206194 0.5552933 0.1206194 0.5552933 0.126444 0.5511564 0.139787 0.5621321 0.7263791 0.5664752 0.7201579 0.5621318 0.7335011 0.5511562 0.7335011 0.5511562 0.7393253 0.5552931 0.7263791 0.5664752 0.7334864 0.9362578 0.739248 0.9321028 0.7570869 0.9427595 0.7570869 0.9427595 0.7515464 0.9467772 0.7334864 0.9362578 0.1206968 0.9321026 0.1264588 0.9362575 0.1083992 0.9467771 0.1083992 0.9467771 0.1028582 0.9427595 0.1206968 0.9321026 0.126444 0.5511564 0.1206194 0.5552933 0.10278 0.5446404 0.10278 0.5446404 0.1083813 0.5406356 0.126444 0.5511564 0.7393253 0.5552931 0.7335011 0.5511562 0.7515643 0.5406356 0.7515643 0.5406356 0.7571647 0.5446404 0.7393253 0.5552931 0.7570869 0.9427595 0.7734821 0.9514696 0.767664 0.9559112 0.767664 0.9559112 0.7515464 0.9467772 0.7570869 0.9427595 0.1028582 0.9427595 0.1083992 0.9467771 0.09228289 0.9559112 0.09228289 0.9559112 0.08646368 0.9514696 0.1028582 0.9427595 0.10278 0.5446404 0.08637833 0.5359271 0.09225779 0.5314934 0.09225779 0.5314934 0.1083813 0.5406356 0.10278 0.5446404 0.7571647 0.5446404 0.7515643 0.5406356 0.7676886 0.5314936 0.7676886 0.5314936 0.7735669 0.5359274 0.7571647 0.5446404 0.7792013 0.9645406 0.7862735 0.958584 0.8108894 0.9729974 0.8108894 0.9729974 0.7956761 0.9859873 0.7792013 0.9645406 0.073673 0.9585842 0.08074706 0.9645413 0.06427228 0.9859878 0.06427228 0.9859878 0.04905718 0.972998 0.073673 0.9585842 0.0807169 0.5228441 0.07358086 0.528796 0.04898685 0.5143375 0.04898685 0.5143375 0.06426745 0.5013695 0.0807169 0.5228441 0.7863654 0.5287966 0.7792314 0.5228449 0.7956811 0.5013707 0.7956811 0.5013707 0.8109601 0.5143386 0.7863654 0.5287966 0.9624535 0.5939735 0.9624535 0.5990587 0.9416847 0.5990673 0.9416847 0.5990673 0.9416847 0.5939651 0.9624535 0.5939735 0.9001231 0.9709064 0.9001231 0.9759915 0.8793542 0.975998 0.8793542 0.975998 0.8793542 0.970898 0.9001231 0.9709064 0.9001229 0.5911897 0.9001229 0.5962852 0.879354 0.5962951 0.879354 0.5962951 0.879354 0.5911819 0.9001229 0.5911897 0.9624534 0.973479 0.9624534 0.9785748 0.9416845 0.9785804 0.9416845 0.9785804 0.9416845 0.9734694 0.9624534 0.973479 0.9416847 0.5939651 0.9416847 0.5990673 0.9215626 0.5991126 0.9215626 0.5991126 0.9215626 0.5939282 0.9416847 0.5939651 0.8793542 0.970898 0.8793542 0.975998 0.8592322 0.9760357 0.8592322 0.9760357 0.8592322 0.9708527 0.8793542 0.970898 0.879354 0.5911819 0.879354 0.5962951 0.8592319 0.5963387 0.8592319 0.5963387 0.8592319 0.5911424 0.879354 0.5911819 0.9416845 0.9734694 0.9416845 0.9785804 0.9215624 0.9786201 0.9215624 0.9786201 0.9215624 0.9734257 0.9416845 0.9734694 0.7908552 0.5368205 0.7908733 0.9501335 0.7770066 0.9449272 0.7770066 0.9449272 0.7770067 0.5420417 0.7908552 0.5368205 0.06907242 0.9501334 0.06909054 0.5368202 0.08293831 0.5420416 0.08293831 0.5420416 0.08293837 0.9449272 0.06907242 0.9501334 0.7700284 0.9682741 0.08992177 0.9682743 0.09985888 0.9585695 0.09985888 0.9585695 0.7600892 0.9585698 0.7700284 0.9682741 0.08991384 0.5191204 0.7700363 0.5191208 0.760097 0.5288379 0.760097 0.5288379 0.09985089 0.5288382 0.08991384 0.5191204 0.7908733 0.9501335 0.7862735 0.958584 0.7734821 0.9514696 0.7734821 0.9514696 0.7770066 0.9449272 0.7908733 0.9501335 0.08646368 0.9514696 0.073673 0.9585842 0.06907242 0.9501334 0.06907242 0.9501334 0.08293837 0.9449272 0.08646368 0.9514696 0.767664 0.9559112 0.7792013 0.9645406 0.7700284 0.9682741 0.7700284 0.9682741 0.7600892 0.9585698 0.767664 0.9559112 0.08992177 0.9682743 0.08074706 0.9645413 0.09228289 0.9559112 0.09228289 0.9559112 0.09985888 0.9585695 0.08992177 0.9682743 0.06909054 0.5368202 0.07358086 0.528796 0.08637833 0.5359271 0.08637833 0.5359271 0.08293831 0.5420416 0.06909054 0.5368202 0.7735669 0.5359274 0.7863654 0.5287966 0.7908552 0.5368205 0.7908552 0.5368205 0.7770067 0.5420417 0.7735669 0.5359274 0.09225779 0.5314934 0.0807169 0.5228441 0.08991384 0.5191204 0.08991384 0.5191204 0.09985089 0.5288382 0.09225779 0.5314934 0.7700363 0.5191208 0.7792314 0.5228449 0.7676886 0.5314936 0.7676886 0.5314936 0.760097 0.5288379 0.7700363 0.5191208 0.7734821 0.9514696 0.7862735 0.958584 0.7792013 0.9645406 0.7792013 0.9645406 0.767664 0.9559112 0.7734821 0.9514696 0.08074706 0.9645413 0.073673 0.9585842 0.08646368 0.9514696 0.08646368 0.9514696 0.09228289 0.9559112 0.08074706 0.9645413 0.08637833 0.5359271 0.07358086 0.528796 0.0807169 0.5228441 0.0807169 0.5228441 0.09225779 0.5314934 0.08637833 0.5359271 0.7792314 0.5228449 0.7863654 0.5287966 0.7735669 0.5359274 0.7735669 0.5359274 0.7676886 0.5314936 0.7792314 0.5228449 0.775762 0.07733535 0.7692074 0.0716933 0.7869855 0.0560708 0.7869855 0.0560708 0.7935951 0.06179928 0.775762 0.07733535 0.07751417 0.4485939 0.08406865 0.4542364 0.0657978 0.4702469 0.0657978 0.4702469 0.05918812 0.4645183 0.07751417 0.4485939 0.7692074 0.4542364 0.775762 0.4485939 0.7935951 0.4645183 0.7935951 0.4645183 0.7869855 0.4702469 0.7692074 0.4542364 0.08406865 0.0716933 0.07751417 0.07733535 0.05918812 0.06179928 0.05918812 0.06179928 0.0657978 0.0560708 0.08406865 0.0716933 0.0657978 0.0560708 0.06019592 0.006486952 0.7925875 0.006486952 0.7925875 0.006486952 0.7869855 0.0560708 0.0657978 0.0560708 0.7935951 0.06179928 0.8108301 0.02234929 0.8108313 0.4693313 0.8108313 0.4693313 0.7935951 0.4645183 0.7935951 0.06179928 0.05918812 0.06179928 0.05918812 0.4645183 0.04195207 0.4693313 0.04195207 0.4693313 0.04195332 0.02234929 0.05918812 0.06179928 0.7869855 0.4702469 0.7925889 0.4857293 0.06019449 0.4857293 0.06019449 0.4857293 0.0657978 0.4702469 0.7869855 0.4702469 0.8081782 0.4773132 0.7935951 0.4645183 0.8108313 0.4693313 0.04195207 0.4693313 0.05918812 0.4645183 0.04460537 0.4773132 0.0657978 0.0560708 0.05918812 0.06179928 0.04195332 0.02234929 0.04195332 0.02234929 0.04453343 0.01488083 0.0657978 0.0560708 0.7935951 0.06179928 0.7869855 0.0560708 0.8082498 0.01488083 0.8082498 0.01488083 0.8108301 0.02234929 0.7935951 0.06179928 0.7700363 0.5191208 0.08991384 0.5191204 0.08410912 0.4938884 0.08410912 0.4938884 0.7758421 0.4938889 0.7700363 0.5191208 0.9001229 0.5860981 0.879354 0.5860981 0.8793542 0.0147171 0.8793542 0.0147171 0.9001231 0.0147171 0.9001229 0.5860981 0.7869855 0.0560708 0.7925875 0.006486952 0.8012769 0.008804619 0.7869855 0.0560708 0.8012769 0.008804619 0.8082498 0.01488083 0.05150634 0.008804619 0.06019592 0.006486952 0.0657978 0.0560708 0.04453343 0.01488083 0.05150634 0.008804619 0.0657978 0.0560708 0.0657978 0.4702469 0.05150508 0.483412 0.04460537 0.4773132 0.04460537 0.4773132 0.05918812 0.4645183 0.0657978 0.4702469 0.0657978 0.4702469 0.06019449 0.4857293 0.05150508 0.483412 0.8012784 0.483412 0.7925889 0.4857293 0.7869855 0.4702469 0.8081782 0.4773132 0.8012784 0.483412 0.7869855 0.4702469 0.7869855 0.4702469 0.7935951 0.4645183 0.8081782 0.4773132 0.6960349 0.4465973 0.1551032 0.4465973 0.1488204 0.4444884 0.1488204 0.4444884 0.7023176 0.4444884 0.6960349 0.4465973 0.1424252 0.4346019 0.7087126 0.4346019 0.7064127 0.4406693 0.7064127 0.4406693 0.1447254 0.4406693 0.1424252 0.4346019 0.1551032 0.08010721 0.6960349 0.08010721 0.7023176 0.08221614 0.7023176 0.08221614 0.1488204 0.08221614 0.1551032 0.08010721 0.7087126 0.09171128 0.1424252 0.09171128 0.1446819 0.08602064 0.1446819 0.08602064 0.7064561 0.08602064 0.7087126 0.09171128 1 -1.66893e-6 1 0.999998 0 0.9999981 0 0.9999981 0 -1.66893e-6 1 -1.66893e-6</float_array>
          <technique_common>
            <accessor source="#gps-mesh-map-0-array" count="936" stride="2">
              <param name="S" type="float"/>
              <param name="T" type="float"/>
            </accessor>
          </technique_common>
        </source>
        <vertices id="gps-mesh-vertices">
          <input semantic="POSITION" source="#gps-mesh-positions"/>
        </vertices>
        <triangles material="gps-material" count="310">
          <input semantic="VERTEX" source="#gps-mesh-vertices" offset="0"/>
          <input semantic="NORMAL" source="#gps-mesh-normals" offset="1"/>
          <input semantic="TEXCOORD" source="#gps-mesh-map-0" offset="2" set="0"/>
          <p>4 0 0 5 1 1 1 2 2 1 2 3 0 3 4 4 0 5 6 4 6 7 5 7 3 6 8 3 6 9 2 7 10 6 4 11 12 8 12 13 9 13 9 10 14 9 10 15 8 11 16 12 8 17 14 12 18 15 13 19 11 14 20 11 14 21 10 15 22 14 12 23 16 16 24 17 17 25 5 1 26 5 1 27 4 0 28 16 16 29 2 7 30 3 6 31 107 18 32 107 18 33 18 19 34 2 7 35 8 11 36 9 10 37 105 20 38 105 20 39 104 21 40 8 11 41 106 22 42 19 23 43 13 9 44 13 9 45 12 8 46 106 22 47 20 24 48 21 25 49 7 5 50 7 5 51 6 4 52 20 24 53 0 3 54 1 2 55 111 26 56 111 26 57 22 27 58 0 3 59 10 15 60 11 14 61 109 28 62 109 28 63 108 29 64 10 15 65 110 30 66 23 31 67 15 13 68 15 13 69 14 12 70 110 30 71 4 0 72 0 3 73 24 32 74 24 32 75 26 33 76 4 0 77 6 4 78 2 7 79 25 34 80 25 34 81 27 35 82 6 4 83 12 8 84 8 11 85 28 36 86 28 36 87 30 37 88 12 8 89 14 12 90 10 15 91 29 38 92 29 38 93 31 39 94 14 12 95 16 16 96 4 0 97 26 33 98 26 33 99 32 40 100 16 16 101 2 7 102 18 19 103 113 41 104 113 41 105 25 34 106 2 7 107 8 11 108 104 21 109 112 42 110 112 42 111 28 36 112 8 11 113 106 22 114 12 8 115 30 37 116 30 37 117 33 43 118 106 22 119 20 24 120 6 4 121 27 35 122 27 35 123 34 44 124 20 24 125 0 3 126 22 27 127 115 45 128 115 45 129 24 32 130 0 3 131 10 15 132 108 29 133 114 46 134 114 46 135 29 38 136 10 15 137 110 30 138 14 12 139 31 39 140 31 39 141 35 47 142 110 30 143 26 33 144 24 32 145 36 48 146 36 48 147 38 49 148 26 33 149 27 35 150 25 34 151 37 50 152 37 50 153 39 51 154 27 35 155 30 37 156 28 36 157 40 52 158 40 52 159 42 53 160 30 37 161 31 39 162 29 38 163 41 54 164 41 54 165 43 55 166 31 39 167 32 40 168 26 33 169 38 49 170 38 49 171 44 56 172 32 40 173 25 34 174 113 41 175 117 57 176 117 57 177 37 50 178 25 34 179 28 36 180 112 42 181 116 58 182 116 58 183 40 52 184 28 36 185 33 43 186 30 37 187 42 53 188 42 53 189 45 59 190 33 43 191 34 44 192 27 35 193 39 51 194 39 51 195 46 60 196 34 44 197 24 32 198 115 45 199 119 61 200 119 61 201 36 48 202 24 32 203 29 38 204 114 46 205 118 62 206 118 62 207 41 54 208 29 38 209 35 47 210 31 39 211 43 55 212 43 55 213 47 63 214 35 47 215 36 48 216 136 64 217 138 65 218 138 65 219 38 49 220 36 48 221 37 50 222 137 66 223 139 67 224 139 67 225 39 51 226 37 50 227 40 52 228 140 68 229 142 69 230 142 69 231 42 53 232 40 52 233 41 54 234 141 70 235 143 71 236 143 71 237 43 55 238 41 54 239 44 56 240 38 49 241 138 65 242 138 65 243 148 72 244 44 56 245 117 57 246 145 73 247 137 66 248 137 66 249 37 50 250 117 57 251 116 58 252 144 74 253 140 68 254 140 68 255 40 52 256 116 58 257 45 59 258 42 53 259 142 69 260 142 69 261 149 75 262 45 59 263 46 60 264 39 51 265 139 67 266 139 67 267 150 76 268 46 60 269 119 61 270 147 77 271 136 64 272 136 64 273 36 48 274 119 61 275 118 62 276 146 78 277 141 70 278 141 70 279 41 54 280 118 62 281 47 63 282 43 55 283 143 71 284 143 71 285 151 79 286 47 63 287 50 80 288 48 81 289 76 82 290 76 82 291 77 83 292 50 80 293 51 84 294 49 85 295 60 86 296 60 86 297 61 87 298 51 84 299 54 88 300 52 89 301 62 90 302 62 90 303 64 91 304 54 88 305 56 92 306 50 80 307 77 83 308 77 83 309 79 93 310 56 92 311 49 85 312 121 94 313 124 95 314 124 95 315 60 86 316 49 85 317 52 89 318 120 96 319 127 97 320 127 97 321 62 90 322 52 89 323 57 98 324 54 88 325 64 91 326 64 91 327 65 99 328 57 98 329 58 100 330 51 84 331 61 87 332 61 87 333 66 101 334 58 100 335 48 81 336 123 102 337 126 103 338 126 103 339 76 82 340 48 81 341 53 104 342 122 105 343 125 106 344 125 106 345 63 107 346 53 104 347 59 108 348 55 109 349 78 110 350 78 110 351 67 111 352 59 108 353 69 112 354 68 113 355 158 114 356 158 114 357 71 115 358 69 112 359 159 116 360 154 117 361 157 118 362 157 118 363 72 119 364 159 116 365 70 120 366 153 121 367 155 122 368 155 122 369 73 123 370 70 120 371 152 124 372 75 125 373 156 126 374 156 126 375 74 127 376 152 124 377 77 83 378 76 82 379 80 128 380 80 128 381 82 129 382 77 83 383 61 87 384 60 86 385 81 130 386 81 130 387 83 131 388 61 87 389 64 91 390 62 90 391 84 132 392 84 132 393 86 133 394 64 91 395 79 93 396 77 83 397 82 129 398 82 129 399 88 134 400 79 93 401 60 86 402 124 95 403 129 135 404 129 135 405 81 130 406 60 86 407 62 90 408 127 97 409 128 136 410 128 136 411 84 132 412 62 90 413 65 99 414 64 91 415 86 133 416 86 133 417 89 137 418 65 99 419 66 101 420 61 87 421 83 131 422 83 131 423 90 138 424 66 101 425 76 82 426 126 103 427 131 139 428 131 139 429 80 128 430 76 82 431 63 107 432 125 106 433 130 140 434 130 140 435 85 141 436 63 107 437 67 111 438 78 110 439 87 142 440 87 142 441 91 143 442 67 111 443 134 144 444 102 144 445 135 144 446 135 145 447 103 145 448 134 145 449 92 146 450 94 147 451 82 129 452 82 129 453 80 128 454 92 146 455 93 148 456 95 149 457 83 131 458 83 131 459 81 130 460 93 148 461 96 150 462 98 151 463 86 133 464 86 133 465 84 132 466 96 150 467 97 152 468 99 153 469 87 142 470 87 142 471 85 141 472 97 152 473 82 129 474 94 147 475 100 154 476 100 154 477 88 134 478 82 129 479 133 155 480 93 148 481 81 130 482 81 130 483 129 135 484 133 155 485 132 156 486 96 150 487 84 132 488 84 132 489 128 136 490 132 156 491 86 133 492 98 151 493 101 157 494 101 157 495 89 137 496 86 133 497 83 131 498 95 149 499 102 158 500 102 158 501 90 138 502 83 131 503 135 159 504 92 146 505 80 128 506 80 128 507 131 139 508 135 159 509 134 160 510 97 152 511 85 141 512 85 141 513 130 140 514 134 160 515 87 142 516 99 153 517 103 161 518 103 161 519 91 143 520 87 142 521 93 162 522 94 162 523 92 162 524 92 163 525 95 163 526 93 163 527 132 164 528 100 164 529 133 164 530 133 165 531 101 165 532 132 165 533 105 20 534 17 17 535 16 16 536 16 16 537 104 21 538 105 20 539 107 18 540 19 23 541 106 22 542 106 22 543 18 19 544 107 18 545 109 28 546 21 25 547 20 24 548 20 24 549 108 29 550 109 28 551 111 26 552 23 31 553 110 30 554 110 30 555 22 27 556 111 26 557 104 21 558 16 16 559 32 40 560 32 40 561 112 42 562 104 21 563 18 19 564 106 22 565 33 43 566 33 43 567 113 41 568 18 19 569 108 29 570 20 24 571 34 44 572 34 44 573 114 46 574 108 29 575 22 27 576 110 30 577 35 47 578 35 47 579 115 45 580 22 27 581 112 42 582 32 40 583 44 56 584 44 56 585 116 58 586 112 42 587 113 41 588 33 43 589 45 59 590 45 59 591 117 57 592 113 41 593 114 46 594 34 44 595 46 60 596 46 60 597 118 62 598 114 46 599 115 45 600 35 47 601 47 63 602 47 63 603 119 61 604 115 45 605 44 56 606 148 72 607 144 74 608 144 74 609 116 58 610 44 56 611 117 57 612 45 59 613 149 75 614 149 75 615 145 73 616 117 57 617 46 60 618 150 76 619 146 78 620 146 78 621 118 62 622 46 60 623 119 61 624 47 63 625 151 79 626 151 79 627 147 77 628 119 61 629 120 96 630 56 92 631 79 93 632 79 93 633 127 97 634 120 96 635 121 94 636 57 98 637 65 99 638 65 99 639 124 95 640 121 94 641 122 105 642 58 100 643 66 101 644 66 101 645 125 106 646 122 105 647 123 102 648 59 108 649 67 111 650 67 111 651 126 103 652 123 102 653 127 97 654 79 93 655 88 134 656 88 134 657 128 136 658 127 97 659 124 95 660 65 99 661 89 137 662 89 137 663 129 135 664 124 95 665 125 106 666 66 101 667 90 138 668 90 138 669 130 140 670 125 106 671 126 103 672 67 111 673 91 143 674 91 143 675 131 139 676 126 103 677 128 136 678 88 134 679 100 154 680 100 154 681 132 156 682 128 136 683 129 135 684 89 137 685 101 157 686 101 157 687 133 155 688 129 135 689 130 140 690 90 138 691 102 158 692 102 158 693 134 160 694 130 140 695 131 139 696 91 143 697 103 161 698 103 161 699 135 159 700 131 139 701 48 81 702 50 80 703 138 65 704 138 65 705 136 64 706 48 81 707 49 85 708 51 84 709 139 67 710 139 67 711 137 66 712 49 85 713 52 89 714 54 88 715 142 69 716 142 69 717 140 68 718 52 89 719 53 104 720 55 109 721 143 71 722 143 71 723 141 70 724 53 104 725 50 80 726 56 92 727 148 72 728 148 72 729 138 65 730 50 80 731 145 73 732 121 94 733 49 85 734 49 85 735 137 66 736 145 73 737 144 74 738 120 96 739 52 89 740 52 89 741 140 68 742 144 74 743 54 88 744 57 98 745 149 75 746 149 75 747 142 69 748 54 88 749 51 84 750 58 100 751 150 76 752 150 76 753 139 67 754 51 84 755 147 77 756 123 102 757 48 81 758 48 81 759 136 64 760 147 77 761 146 78 762 122 105 763 53 104 764 53 104 765 141 70 766 146 78 767 55 109 768 59 108 769 151 79 770 151 79 771 143 71 772 55 109 773 148 72 774 56 92 775 120 96 776 120 96 777 144 74 778 148 72 779 57 98 780 121 94 781 145 73 782 145 73 783 149 75 784 57 98 785 150 76 786 58 100 787 122 105 788 122 105 789 146 78 790 150 76 791 59 108 792 123 102 793 147 77 794 147 77 795 151 79 796 59 108 797 68 113 798 152 124 799 74 127 800 74 127 801 158 114 802 68 113 803 154 117 804 70 120 805 73 123 806 73 123 807 157 118 808 154 117 809 153 121 810 69 112 811 71 115 812 71 115 813 155 122 814 153 121 815 75 125 816 159 116 817 72 119 818 72 119 819 156 126 820 75 125 821 156 126 822 11 14 823 15 13 824 15 13 825 74 127 826 156 126 827 158 114 828 1 2 829 5 1 830 5 1 831 71 115 832 158 114 833 72 119 834 157 118 835 3 6 836 3 6 837 7 5 838 72 119 839 155 122 840 9 10 841 13 9 842 13 9 843 73 123 844 155 122 845 17 17 846 71 115 847 5 1 848 3 6 849 157 118 850 107 18 851 156 126 852 72 119 853 7 5 854 7 5 855 21 25 856 156 126 857 158 114 858 74 127 859 111 26 860 111 26 861 1 2 862 158 114 863 55 109 864 53 104 865 63 107 866 63 107 867 78 110 868 55 109 869 63 107 870 85 141 871 87 142 872 87 142 873 78 110 874 63 107 875 74 127 876 15 13 877 23 31 878 74 127 879 23 31 880 111 26 881 109 28 882 11 14 883 156 126 884 21 25 885 109 28 886 156 126 887 73 123 888 19 23 889 107 18 890 107 18 891 157 118 892 73 123 893 73 123 894 13 9 895 19 23 896 105 20 897 9 10 898 155 122 899 17 17 900 105 20 901 155 122 902 155 122 903 71 115 904 17 17 905 98 166 906 96 166 907 132 166 908 132 167 909 101 167 910 98 167 911 94 168 912 93 168 913 133 168 914 133 169 915 100 169 916 94 169 917 99 170 918 97 170 919 134 170 920 134 171 921 103 171 922 99 171 923 95 172 924 92 172 925 135 172 926 135 173 927 102 173 928 95 173 929</p>
        </triangles>
        <triangles material="screen_gps-material" count="2">
          <input semantic="VERTEX" source="#gps-mesh-vertices" offset="0"/>
          <input semantic="NORMAL" source="#gps-mesh-normals" offset="1"/>
          <input semantic="TEXCOORD" source="#gps-mesh-map-0" offset="2" set="0"/>
          <p>160 174 930 161 174 931 162 174 932 162 175 933 163 175 934 160 175 935</p>
        </triangles>
      </mesh>
    </geometry>
  </library_geometries>
  <library_visual_scenes>
    <visual_scene id="Scene" name="Scene">
      <node id="suctionmount_alt2" name="suctionmount_alt2" type="NODE">
        <matrix sid="transform">0.01 0 0 0 0 0.01 0 0 0 0 0.01 0 0 0 0 1</matrix>
        <instance_geometry url="#suctionmount_alt-mesh" name="suctionmount_alt2">
          <bind_material>
            <technique_common>
              <instance_material symbol="suctionmount-material" target="#suctionmount-material">
                <bind_vertex_input semantic="geom-suctionmount_alt-map1" input_semantic="TEXCOORD" input_set="0"/>
              </instance_material>
            </technique_common>
          </bind_material>
        </instance_geometry>
      </node>
      <node id="gpsholder" name="gpsholder" type="NODE">
        <matrix sid="transform">0.01 0 0 0 0 0.01 0 0 0 0 0.01 0 0 0 0 1</matrix>
        <instance_geometry url="#gpsholder-mesh" name="gpsholder">
          <bind_material>
            <technique_common>
              <instance_material symbol="suctionmount-material" target="#suctionmount-material">
                <bind_vertex_input semantic="geom-gpsholder-map1" input_semantic="TEXCOORD" input_set="0"/>
              </instance_material>
            </technique_common>
          </bind_material>
        </instance_geometry>
      </node>
      <node id="gps" name="gps" type="NODE">
        <matrix sid="transform">0.01 0 0 0 0 0.01 0 0 0 0 0.01 0 0 0 0 1</matrix>
        <instance_geometry url="#gps-mesh" name="gps">
          <bind_material>
            <technique_common>
              <instance_material symbol="gps-material" target="#gps-material">
                <bind_vertex_input semantic="geom-gps-map1" input_semantic="TEXCOORD" input_set="0"/>
              </instance_material>
              <instance_material symbol="screen_gps-material" target="#screen_gps-material">
                <bind_vertex_input semantic="geom-gps-map1" input_semantic="TEXCOORD" input_set="0"/>
              </instance_material>
            </technique_common>
          </bind_material>
        </instance_geometry>
      </node>
    </visual_scene>
  </library_visual_scenes>
  <scene>
    <instance_visual_scene url="#Scene"/>
  </scene>
</COLLADA>